<svg xmlns="http://www.w3.org/2000/svg" width="76" height="77.97" viewBox="0 0 76 77.97">
  <defs>
    <style>
      .cls-1 {
        fill: #e8b7a0;
        fill-rule: evenodd;
      }
    </style>
  </defs>
  <path class="cls-1" d="M595.67,5459.6c-1.283-1.71-4.431-3.15-8.31-2.26a8.709,8.709,0,0,0-4.519,2.63l-2.684-2.67h-5.142l-4.957-3.29h-3.414l-2.515-1.24a23.052,23.052,0,0,0-1.484-4.55c3.35-4.79,2.555-11.64.229-14.92-3.506-4.94-8.588-6.11-13.5-7.24-3.109-.72-6.046-1.39-8.528-2.99l-1.648-1.05-0.769,1.79c-3.032,7.07-2.334,15.17,1.779,20.65,3.155,4.19,7.932,6.42,13.633,6.42a22.622,22.622,0,0,0,2.693-.16l-0.384-3.26c-7.262.84-11.241-2.24-13.293-4.97-3.1-4.12-3.839-10.11-2.037-15.67a35.685,35.685,0,0,0,7.809,2.44c4.508,1.04,8.768,2.02,11.547,5.93,1.431,2.02,2.019,6.25.571,9.64-2.812-4.17-6.684-7.11-10.281-9.83-1.357-1.03-2.639-2-3.809-2.99l-2.15,2.49c1.244,1.06,2.563,2.06,3.96,3.11,5.334,4.04,10.826,8.2,12.485,16.07l-1.99,1.98h-4.773l-6.109,4.04v2.53h-1.652c-2.742,0-5.881,2-7.778,3.76l-5.442,5.41-2.136-2.12a1.644,1.644,0,0,0-2.337,0l-8.262,8.21a1.633,1.633,0,0,0,0,2.32l19.829,19.71a1.662,1.662,0,0,0,2.337,0l8.262-8.21a1.645,1.645,0,0,0,0-2.33l-2.011-2a2.7,2.7,0,0,1,.842-0.12h23.134c3.079,0,14.344-11.92,14.452-12.05,1.3-1.45,6.938-9.84,8.549-13.58A1.645,1.645,0,0,0,595.67,5459.6Zm-44.288,1.86,3.805-2.52h5.141l2.946-2.93,2.589,1.29h3.195l4.957,3.28h4.773l2.062,2.05c-0.32.53-.637,1.07-0.95,1.66l-5.586,2.88a6.945,6.945,0,0,0-4.756-1.66l-8.591.02a9.744,9.744,0,0,1-1.533-1.04c-1.393-1.06-2.971-2.26-4.747-2.26h-3.305v-0.77Zm-9.915,34.57-17.492-17.38,5.926-5.89,17.492,17.38Zm43.382-23.4c-1.9,2.11-10.274,10.17-12.148,10.94H549.729a5.24,5.24,0,0,0-3.277,1l-10.91-10.85,5.4-5.37c1.527-1.41,3.9-2.84,5.484-2.84h8.262c0.656,0,1.909.95,2.738,1.58,1.2,0.92,2.233,1.7,3.4,1.7h8.73c2.283,0,3.305,1.24,3.305,2.47s-1.022,2.46-3.305,2.46H556.339v3.29h13.219c4.339,0,6.61-2.9,6.61-5.75A5.5,5.5,0,0,0,576,5470l5.882-3.03a1.692,1.692,0,0,0,.709-0.71c1.928-3.73,3.371-5.22,5.514-5.72a6.015,6.015,0,0,1,4.213.45A94.413,94.413,0,0,1,584.849,5472.63Zm-52.812,10.46,2.337-2.32-3.305-3.28-2.337,2.32Zm41.658-31.3a11.091,11.091,0,0,0,5.584-1.35c4.686-2.7,9.691-11.68,9.9-12.06l1.355-2.44-2.811.01c-0.45,0-11.1.08-15.769,2.78-5.029,2.9-5.673,9.92-5.7,10.22l-0.1,1.22,1.141,0.44A19.023,19.023,0,0,0,573.7,5451.79Zm-0.079-10.22c2.426-1.4,7.533-2,11.141-2.23-1.865,2.93-4.743,6.88-7.137,8.26-2.537,1.46-6.016.85-7.854,0.35C570.149,5446.17,571.156,5442.99,573.616,5441.57Z" transform="translate(-520 -5422.03)"/>
</svg>
