<svg xmlns="http://www.w3.org/2000/svg" width="60" height="63" viewBox="0 0 60 63">
  <defs>
    <style>
      .cls-1 {
        fill: #e8b7a0;
        fill-rule: evenodd;
      }
    </style>
  </defs>
  <path class="cls-1" d="M655.257,464.478h-5.474V467.1h4.96l22.32,9.173H670.91l-20.638-8.482-0.987,2.426,20.063,8.247v6.34l-19.066-7.836-0.987,2.426,17.938,7.373L655,491.889,629.723,481.5l10.127-4.24-1-2.418L625,480.639v24.03L655,517l30-12.33V476.7Zm-27.648,18.988L653.7,494.187v19.446l-6.522-2.681v-9L634.13,496.6v8.994l-6.521-2.68V483.466Zm16.956,26.414-7.826-3.217V500.5l7.826,3.211v6.168Zm11.739,3.753V494.18l15.652-6.551v-8.736h10.435v24.018Zm-11.739-30.809c2.888,0,3.913-1.411,3.913-2.621V456.616c0-1.209-1.025-2.62-3.913-2.62s-3.913,1.411-3.913,2.62V480.2C640.652,481.413,641.677,482.824,644.565,482.824Zm-1.3-26a4.119,4.119,0,0,1,2.609,0V479.99a4.1,4.1,0,0,1-2.609,0V456.828Zm16.373,48.411,1.167,2.345,2.608-1.312-1.166-2.344Zm6.522-2.621,1.167,2.344,2.608-1.31-1.167-2.345ZM672.677,500l1.167,2.345,2.609-1.311-1.167-2.344Z" transform="translate(-625 -454)"/>
</svg>
