<svg xmlns="http://www.w3.org/2000/svg" width="26" height="15" viewBox="0 0 26 15">
  <defs>
    <style>
      .cls-1 {
        fill: #4ed7bb;
        fill-rule: evenodd;
      }
    </style>
  </defs>
  <path class="cls-1" d="M1507.73,44.8h1.55a1.314,1.314,0,0,0,.71-0.311,1.17,1.17,0,0,0,.22-0.683s-0.03-2.088.93-2.4,2.19,2.018,3.48,2.911a2.469,2.469,0,0,0,1.73.528l3.48-.048s1.82-.112.95-1.542a11.569,11.569,0,0,0-2.58-2.991c-2.18-2.024-1.89-1.7.74-5.2,1.6-2.132,2.24-3.434,2.04-3.991-0.19-.531-1.37-0.391-1.37-0.391l-3.91.024a0.907,0.907,0,0,0-.51.089,1.059,1.059,0,0,0-.34.42,22.467,22.467,0,0,1-1.45,3.053c-1.74,2.96-2.44,3.117-2.72,2.933-0.66-.428-0.5-1.721-0.5-2.639,0-2.869.44-4.065-.84-4.375a6.736,6.736,0,0,0-1.83-.182,8.451,8.451,0,0,0-3.25.332c-0.44.218-.78,0.7-0.58,0.732a1.763,1.763,0,0,1,1.16.581,3.811,3.811,0,0,1,.39,1.772s0.23,3.377-.54,3.8c-0.53.288-1.25-.3-2.81-2.985a25.426,25.426,0,0,1-1.39-2.9,1.233,1.233,0,0,0-.32-0.436,1.626,1.626,0,0,0-.61-0.243l-3.71.024a1.291,1.291,0,0,0-.77.258,0.815,0.815,0,0,0-.01.663s2.91,6.815,6.21,10.249a8.916,8.916,0,0,0,6.45,2.942" transform="translate(-1495 -30)"/>
</svg>
