<svg xmlns="http://www.w3.org/2000/svg" width="81" height="80" viewBox="0 0 81 80">
  <defs>
    <style>
      .cls-1 {
        fill: #e8b7a0;
        fill-rule: evenodd;
      }
    </style>
  </defs>
  <path class="cls-1" d="M1003,5485.68H952.375v-18.72h3.375v15.32h43.875v-49.37H955.75v15.32h-3.375v-18.72H1003v56.17Zm-64.125-35.75c-4.731,0-8.438-3.95-8.438-8.99v-1.22h3.375v1.22a5.087,5.087,0,1,0,10.125,0v-1.22h3.375v1.22C947.312,5445.98,943.606,5449.93,938.875,5449.93ZM949,5434.62h-3.375v-1.71a6.471,6.471,0,0,0-4-6.3l1.243-3.16a9.89,9.89,0,0,1,6.135,9.46v1.71Zm-16.875,0H928.75v-1.71a9.887,9.887,0,0,1,6.129-9.46l1.246,3.16a6.481,6.481,0,0,0-4,6.3v1.71ZM949,5501h-3.375v-42.55h11.812c2.878,0,4.445-1.07,4.913-3.41H932.125c-4.573,0-6.75,1.27-6.75,8.51v11.92c0,1.9.438,5.1,3.375,5.1h1.687v3.41H928.75c-4.164,0-6.75-3.26-6.75-8.51v-11.92c0-8.35,3.027-11.91,10.125-11.91h33.75v1.7c0,5.41-3.075,8.51-8.438,8.51H949V5501Zm-8.438,0h-3.375v-23.83h3.375V5501Zm-8.437,0H928.75v-37.45h3.375V5501Zm64.125-22.13h-5.063a1.693,1.693,0,0,1-1.687-1.7v-2.69a11.275,11.275,0,0,1-1.745-.74l-3.089,3.11a1.667,1.667,0,0,1-2.386,0l-5.965-6.02a1.7,1.7,0,0,1,0-2.4l3.024-3.05a16.74,16.74,0,0,1-1.106-1.83h-3.921a1.693,1.693,0,0,1-1.687-1.7v-8.51a1.693,1.693,0,0,1,1.687-1.7h4.348a10.687,10.687,0,0,1,.741-1.76l-3.086-3.12a1.716,1.716,0,0,1,0-2.41l5.965-6.01a1.723,1.723,0,0,1,2.386,0l3.089,3.11a11.258,11.258,0,0,1,1.745-.75v-2.68a1.693,1.693,0,0,1,1.687-1.7h5.063v3.4h-3.375v2.29a1.69,1.69,0,0,1-1.337,1.66,9.373,9.373,0,0,0-3.165,1.33,1.784,1.784,0,0,1-2.105-.23l-2.8-2.82-3.579,3.61,2.793,2.82a1.713,1.713,0,0,1,.272,2.05,9.809,9.809,0,0,0-1.353,3.26,1.69,1.69,0,0,1-1.651,1.35H976v5.11h3.375A1.686,1.686,0,0,1,981,5461.4a8.263,8.263,0,0,0,1.155,2.1c0.287,0.43.567,0.85,0.8,1.26a1.711,1.711,0,0,1-.271,2.05l-2.793,2.82,3.579,3.61,2.8-2.82a1.681,1.681,0,0,1,2.031-.27,9.514,9.514,0,0,0,3.239,1.36,1.709,1.709,0,0,1,1.337,1.67v2.29h3.375v3.4Zm0-13.71a7.66,7.66,0,0,1,0-15.32v3.4a4.255,4.255,0,0,0,0,8.51v3.41Zm-55.688-35.65h-3.375V5421h3.375v8.51Zm10.125,8.51H927.062v-3.4h23.625v3.4Z" transform="translate(-922 -5421)"/>
</svg>
