<svg xmlns="http://www.w3.org/2000/svg" width="22" height="22" viewBox="0 0 22 22">
  <defs>
    <style>
      .cls-1 {
        fill: #4ed7bb;
        fill-rule: evenodd;
      }
    </style>
  </defs>
  <path class="cls-1" d="M1548.01,27.981c2.93,0,3.28.011,4.44,0.064a6.093,6.093,0,0,1,2.04.379,3.691,3.691,0,0,1,2.09,2.088,5.935,5.935,0,0,1,.37,2.042c0.06,1.16.07,1.508,0.07,4.445s-0.01,3.285-.07,4.445a5.936,5.936,0,0,1-.37,2.043,3.691,3.691,0,0,1-2.09,2.087,6.092,6.092,0,0,1-2.04.379c-1.16.053-1.51,0.064-4.44,0.064s-3.29-.011-4.45-0.064a6.092,6.092,0,0,1-2.04-.379,3.636,3.636,0,0,1-2.08-2.087,6.122,6.122,0,0,1-.38-2.043c-0.06-1.16-.07-1.508-0.07-4.445s0.01-3.285.07-4.445a6.122,6.122,0,0,1,.38-2.042,3.636,3.636,0,0,1,2.08-2.088,6.093,6.093,0,0,1,2.04-.379c1.16-.053,1.51-0.064,4.45-0.064m0-1.982c-2.99,0-3.36.013-4.54,0.066a7.971,7.971,0,0,0-2.66.511,5.331,5.331,0,0,0-1.95,1.269,5.4,5.4,0,0,0-1.27,1.948,8.039,8.039,0,0,0-.51,2.67c-0.05,1.173-.07,1.548-0.07,4.535s0.02,3.362.07,4.535a8.039,8.039,0,0,0,.51,2.67,5.4,5.4,0,0,0,1.27,1.948,5.329,5.329,0,0,0,1.95,1.269,7.971,7.971,0,0,0,2.66.512c1.18,0.053,1.55.066,4.54,0.066s3.36-.013,4.53-0.066a8.091,8.091,0,0,0,2.67-.512,5.377,5.377,0,0,0,1.94-1.269,5.271,5.271,0,0,0,1.27-1.948,8.039,8.039,0,0,0,.51-2.67c0.06-1.173.07-1.548,0.07-4.535s-0.01-3.362-.07-4.535a8.039,8.039,0,0,0-.51-2.67,5.273,5.273,0,0,0-1.27-1.948,5.38,5.38,0,0,0-1.94-1.269,8.092,8.092,0,0,0-2.67-.511c-1.17-.053-1.55-0.066-4.53-0.066m0,5.352A5.649,5.649,0,1,0,1553.65,37a5.649,5.649,0,0,0-5.64-5.648m0,9.315A3.667,3.667,0,1,1,1551.67,37a3.666,3.666,0,0,1-3.66,3.667m7.18-9.538a1.315,1.315,0,1,1-1.32-1.32,1.32,1.32,0,0,1,1.32,1.32" transform="translate(-1537 -26)"/>
</svg>
