<svg xmlns="http://www.w3.org/2000/svg" width="59" height="54" viewBox="0 0 59 54">
  <defs>
    <style>
      .cls-1 {
        fill: #e8b7a0;
        fill-rule: evenodd;
      }
    </style>
  </defs>
  <path class="cls-1" d="M975.633,497.89l2.357-2.151-1.664-1.808-4.154,3.79,1.964,2.181-4.551,1.876,1.1,2.719-4.923.215,0.1,2.926-4.7-1.474-0.916,2.784-3.909-2.985-1.816,2.3-2.649-4.135-2.5,1.547-1.067-4.787-2.88.6,0.642-4.861-3.071-.437,0.368-.9-2.281-.925-1.56,3.806,3.785,0.537-0.778,5.889,3.9-.816,1.293,5.8L951.1,507.5l3.208,5.008,2.458-3.119L961.5,513l1.239-3.768,5.692,1.785-0.131-3.962,5.962-.261-1.484-3.678,5.512-2.274Zm20.334-13.224-1.971-16a5.5,5.5,0,0,0-5.373-4.768H964.1c-4.95,0-7.461,2.062-7.461,6.129H959.1c0-2.208.85-3.678,5-3.678h24.524a3.082,3.082,0,0,1,2.927,2.615l1.972,16a1.728,1.728,0,0,1-.45,1.381,2.68,2.68,0,0,1-1.986.85h-8.51v2.452h8.51a5.179,5.179,0,0,0,3.831-1.678A4.149,4.149,0,0,0,995.967,484.666Zm-12.152.076H987.6a2.216,2.216,0,0,0,2.21-2.68l-2.091-11.033a2.8,2.8,0,0,0-2.674-2.224H981.26a2.214,2.214,0,0,0-2.21,2.678l2.09,11.034A2.8,2.8,0,0,0,983.815,484.742Zm1.232-13.485a0.348,0.348,0,0,1,.253.227l2.048,10.806h-3.533a0.348,0.348,0,0,1-.253-0.227l-2.048-10.806h3.533Zm-3.577-.232a0.008,0.008,0,0,1,0,0l-1.21.228Zm-35.847,2.683a12.3,12.3,0,0,1,12.317-12.259h11.086v1.226h2.464v-1.226A2.46,2.46,0,0,0,969.026,459H957.94a14.763,14.763,0,0,0-14.781,14.711v1.226h2.464v-1.226ZM980.112,492.1a20.93,20.93,0,0,0-41.818-1.225H937v2.452h16.218a6.157,6.157,0,0,0,12.02,0h18.57v-2.452h-3.7V492.1Zm-20.884,3.594a3.678,3.678,0,1,1,3.7-3.677A3.69,3.69,0,0,1,959.228,495.691Zm6.043-4.819a6.155,6.155,0,0,0-12.086,0H940.736a18.483,18.483,0,0,1,36.872,0H965.271Z" transform="translate(-937 -459)"/>
</svg>
