<svg xmlns="http://www.w3.org/2000/svg" width="56" height="59" viewBox="0 0 56 59">
  <defs>
    <style>
      .cls-1 {
        fill: #e8b7a0;
        fill-rule: evenodd;
      }
    </style>
  </defs>
  <path class="cls-1" d="M1291,483.808v-1.229a1.235,1.235,0,0,0-.75-1.137l-7.77-3.23V475.2a1.235,1.235,0,0,0-.79-1.151l-9.74-3.688a1.215,1.215,0,0,0-.88.009l-0.77.31V462.91a1.235,1.235,0,0,0-.73-1.13l-8.53-3.688a1.189,1.189,0,0,0-.95,0l-8.53,3.688a1.235,1.235,0,0,0-.73,1.13v9.74l-6.54,2.64V475.3a1.135,1.135,0,0,0-.23.118,1.225,1.225,0,0,0-.54,1.018v1.78l-7.77,3.23a1.235,1.235,0,0,0-.75,1.137v1.229a1.223,1.223,0,0,0,.59,1.054l5.36,3.248-5.36,3.249a1.225,1.225,0,0,0-.59,1.054v1.23a1.234,1.234,0,0,0,.75,1.136l5.34,2.218v10.168a1.221,1.221,0,0,0,.75,1.137l20.7,8.606a1.2,1.2,0,0,0,.92,0l20.7-8.606a1.221,1.221,0,0,0,.75-1.137V497l5.34-2.218a1.234,1.234,0,0,0,.75-1.136v-1.23a1.225,1.225,0,0,0-.59-1.054l-5.36-3.249,5.36-3.248A1.223,1.223,0,0,0,1291,483.808ZM1263,496l-4.87-2.025v-11.8l9.74-3.934v15.729Zm2.81-19.569-8.9,3.593-8.89-3.593,8.89-3.593Zm-19.85,1.815,9.74,3.934v10.783l-9.74-4.05V478.247Zm24.34,2.706,9.74-3.934v11.895l-9.74,4.05V480.953Zm1.24-8.12,6.35,2.407-7.59,3.065v-1.873a1.241,1.241,0,0,0-.53-1.018,1.192,1.192,0,0,0-.23-0.119v0l-2.04-.824Zm-7.32.309-2.44-.984v-4.75l6.09-2.634v6.892Zm-3.65-12.583,5.43,2.351-5.43,2.35-5.44-2.35Zm-7.31,4.215,6.09,2.634v3.767l-1.99-.8a1.2,1.2,0,0,0-.9,0l-3.2,1.293v-6.892Zm-9.74,16.1v4.788l-1.11.464-4.69-2.84Zm-1.11,9.226,19.09,7.937-4.69,2.841-19.09-7.938Zm1.11,7.912,12.93,5.375a1.237,1.237,0,0,0,.46.092,1.212,1.212,0,0,0,.63-0.175l4.24-2.571v13.2l-18.26-7.593V498.01Zm38.96,8.332-18.26,7.593v-13.2l4.24,2.571a1.212,1.212,0,0,0,.63.175,1.237,1.237,0,0,0,.46-0.092l12.93-5.375v8.332Zm-13.29-5.466-4.69-2.841,19.09-7.937,4.69,2.84Zm14.45-14.781-1.16-.588v-4.635l5.8,2.412Z" transform="translate(-1235 -458)"/>
</svg>
