<svg xmlns="http://www.w3.org/2000/svg" width="83" height="74.03" viewBox="0 0 83 74.03">
  <defs>
    <style>
      .cls-1 {
        fill: #e8b7a0;
        fill-rule: evenodd;
      }
    </style>
  </defs>
  <path class="cls-1" d="M1397.24,5456.67v-20.66a1.722,1.722,0,0,0-.9-1.52l-19.02-10.33a1.726,1.726,0,0,0-1.65,0l-19.02,10.33a1.722,1.722,0,0,0-.9,1.52v20.75a1.707,1.707,0,0,0,.9,1.51l19.02,10.24a1.725,1.725,0,0,0,1.65,0l19.02-10.33A1.707,1.707,0,0,0,1397.24,5456.67Zm-3.45-1.02-17.3,9.39-17.29-9.31v-18.7l17.29-9.39,17.3,9.39v18.62Zm-32.67-16.98a1.716,1.716,0,0,0,.76,2.31l12.89,6.53v12.6a1.725,1.725,0,0,0,3.45,0v-12.56l12.89-6.57a1.71,1.71,0,0,0,.76-2.31,1.738,1.738,0,0,0-2.33-.75l-13.01,6.62-13.08-6.63A1.748,1.748,0,0,0,1361.12,5438.67Zm54.64,36.43c2.05-2.04,2.24-18.38,2.23-18.53a83.908,83.908,0,0,0-3.58-14.32,1.73,1.73,0,0,0-1.6-1.08,8.586,8.586,0,0,0-6.66,4.26c-1.88,3-1.33,6.33-.34,9.52l-1.69,5.35a1.514,1.514,0,0,0-.3-0.02,6.478,6.478,0,0,0-4.34,2.06l-5.06,5.04a15.456,15.456,0,0,1-1.85.25c-1.86.18-3.98,0.39-5.19,1.6l-5.19,5.16c-1.79,1.78-2.13,5.24-2.24,8.11v6.88a1.737,1.737,0,0,0-1.73,1.73v6.88h3.46v-5.16h20.75v5.16h3.46v-6.88a1.731,1.731,0,0,0-1.73-1.73h-1.46a5.278,5.278,0,0,1,.95-2.22Zm-32.35,14.28v-6.82c0.15-4.07.83-5.34,1.22-5.73l5.19-5.17a9.44,9.44,0,0,1,3.09-.6c1.68-.17,3-0.3,3.83-1.12l5.18-5.17c1.35-1.33,2.64-1.25,3.32-.56,0.68,0.67.77,1.96-.57,3.29l-8.65,8.61,2.45,2.44,8.64-8.61c2.88-2.87,2.47-6.28.57-8.17a4.031,4.031,0,0,0-.32-0.26l1.91-6.05a1.756,1.756,0,0,0-.01-1.04c-1.14-3.54-1.19-5.55-.17-7.17a5.939,5.939,0,0,1,2.6-2.33,90.116,90.116,0,0,1,2.85,11.85c0.12,2.08-.58,14.07-1.36,16.03l-11.97,11.92a9.077,9.077,0,0,0-2.04,4.66h-15.76Zm-10.37,0v-6.88c0-2.2-.29-6.18-2.23-8.11l-5.19-5.16c-1.21-1.21-3.33-1.42-5.2-1.6a15.545,15.545,0,0,1-1.84-.25l-5.06-5.04a6.478,6.478,0,0,0-4.34-2.06,1.514,1.514,0,0,0-.3.02l-1.69-5.35c0.98-3.19,1.54-6.52-.34-9.52a8.586,8.586,0,0,0-6.66-4.26,1.73,1.73,0,0,0-1.6,1.08,84.137,84.137,0,0,0-3.58,14.32c-0.01.15,0.18,16.49,2.23,18.53l12.11,12.06a5.278,5.278,0,0,1,.95,2.22h-1.47a1.731,1.731,0,0,0-1.73,1.73v6.88h3.46v-5.16h20.75v5.16h3.46v-6.88A1.737,1.737,0,0,0,1373.04,5489.38Zm-21.25-4.66-11.97-11.92c-0.78-1.96-1.48-13.95-1.36-16.03a90.116,90.116,0,0,1,2.85-11.85,6.047,6.047,0,0,1,2.6,2.33c1.02,1.62.97,3.63-.18,7.17a1.756,1.756,0,0,0,0,1.04l1.91,6.05a4.192,4.192,0,0,0-.33.26c-1.89,1.89-2.31,5.3.57,8.17l8.65,8.61,2.44-2.44-8.64-8.61a3.14,3.14,0,0,1-1.06-2.02,1.643,1.643,0,0,1,.49-1.27,1.782,1.782,0,0,1,1.28-.49,3.19,3.19,0,0,1,2.03,1.05l5.19,5.17c0.83,0.82,2.15.95,3.83,1.12a9.5,9.5,0,0,1,3.09.6l5.18,5.17c0.72,0.71,1.22,3.04,1.22,5.67v6.88h-15.75A9.077,9.077,0,0,0,1351.79,5484.72Z" transform="translate(-1335 -5423.97)"/>
</svg>
