<svg xmlns="http://www.w3.org/2000/svg" viewBox="0 0 612 612">
  <defs>
    <style>
      .cls-1 {
        fill: #02cfa6;
      }
    </style>
  </defs>
  <title>price</title>
  <g id="Слой_2" data-name="Слой 2">
    <g id="Capa_1" data-name="Capa 1">
      <g>
        <path class="cls-1" d="M591.29,0H373.45A19.89,19.89,0,0,0,359,6.29L5.83,359.12a20.76,20.76,0,0,0,0,28.85L224,606.18a20.76,20.76,0,0,0,28.84,0L605.71,253A19.86,19.86,0,0,0,612,238.55V20.71A20.68,20.68,0,0,0,591.29,0ZM571,230.42,238.46,562.17,49.1,373.54,381.59,41.05H571Z"/>
        <path class="cls-1" d="M473.31,206.75c18.86,0,34.77-6.66,48.45-20.35,13.31-13.31,20-29.22,20-48.08s-6.66-34.76-20-48.08c-12.94-12.94-29.21-19.6-48.45-19.6s-35.51,6.66-48.45,19.6-19.6,29.22-19.6,48.45c0,18.86,6.66,34.77,19.6,47.71C438.55,200.09,454.45,206.75,473.31,206.75Zm-18.86-87.66c4.65-5,10.72-7.77,18.86-7.77,7.77,0,14.42,2.59,19.61,7.77a27,27,0,0,1,0,38.46c-5.55,5.55-12.21,8.51-19.61,8.51-7.77,0-13.85-3.14-18.86-8.51-5.36-5.73-8.5-11.83-8.5-18.86C446,131.29,449.1,124.83,454.45,119.09Z"/>
      </g>
    </g>
  </g>
</svg>
