<?xml version="1.0" standalone="no"?>
<!DOCTYPE svg PUBLIC "-//W3C//DTD SVG 20010904//EN"
 "http://www.w3.org/TR/2001/REC-SVG-20010904/DTD/svg10.dtd">
<svg version="1.0" xmlns="http://www.w3.org/2000/svg"
 width="512.000000pt" height="512.000000pt" viewBox="0 0 512.000000 512.000000"
 preserveAspectRatio="xMidYMid meet">
<metadata>
Created by potrace 1.11, written by Peter Selinger 2001-2013
</metadata>
<g transform="translate(0.000000,512.000000) scale(0.100000,-0.100000)"
fill="#000000" stroke="none">
<path d="M0 2560 l0 -2560 2560 0 2560 0 0 2560 0 2560 -2560 0 -2560 0 0
-2560z m2631 2504 c39 -20 895 -880 944 -949 56 -78 128 -216 151 -288 13 -43
22 -57 36 -57 49 0 236 -96 333 -172 52 -41 311 -295 697 -685 209 -212 227
-233 242 -284 14 -44 14 -63 5 -108 -11 -52 -19 -62 -172 -220 -265 -273 -729
-734 -777 -773 -68 -54 -199 -126 -275 -152 l-68 -23 -22 -59 c-30 -80 -79
-175 -130 -255 -58 -89 -912 -944 -970 -970 -54 -25 -128 -24 -181 2 -47 22
-873 843 -944 938 -54 72 -108 169 -147 266 -30 75 -35 81 -70 91 -53 16 -196
89 -268 137 -83 56 -939 918 -965 972 -25 52 -26 127 -1 180 26 58 886 917
980 980 75 49 248 135 274 135 10 0 23 21 36 55 33 87 95 204 149 280 28 39
199 220 390 410 478 479 556 553 583 559 13 3 33 7 44 10 29 6 96 -4 126 -20z"/>
<path d="M2199 4242 c-300 -301 -399 -407 -399 -426 0 -3 7 -6 15 -6 8 0 64
-12 123 -26 200 -48 415 -183 540 -338 l60 -74 52 63 c138 171 359 306 582
356 l106 24 -21 30 c-25 36 -219 235 -508 522 l-215 213 -335 -338z"/>
<path d="M1710 3090 l0 -320 310 0 310 0 0 25 c0 87 -61 238 -134 334 -103
133 -235 224 -382 261 -43 11 -83 20 -91 20 -11 0 -13 -59 -13 -320z"/>
<path d="M3310 3403 c-157 -26 -321 -134 -436 -287 -70 -92 -123 -230 -124
-318 l0 -28 305 0 305 0 0 320 c0 250 -3 320 -12 319 -7 -1 -24 -4 -38 -6z"/>
<path d="M1235 3268 c-27 -25 -151 -146 -275 -269 l-225 -224 274 -3 c151 -1
276 -1 278 1 2 2 2 125 1 272 l-3 268 -50 -45z"/>
<path d="M3770 3040 l0 -270 288 0 287 0 -220 220 c-195 196 -331 320 -349
320 -3 0 -6 -121 -6 -270z"/>
<path d="M759 2332 c17 -25 449 -445 509 -496 l22 -19 0 271 0 272 -276 0
-275 0 20 -28z"/>
<path d="M1710 1935 c0 -421 0 -425 24 -489 13 -36 39 -91 57 -122 39 -64 199
-238 402 -433 l137 -134 0 802 0 801 -310 0 -310 0 0 -425z"/>
<path d="M2740 1558 l0 -803 236 235 c256 255 312 323 355 433 l28 72 1 433 0
432 -310 0 -310 0 0 -802z"/>
<path d="M3770 2090 c0 -148 3 -270 7 -270 19 0 133 104 338 310 l230 230
-288 0 -287 0 0 -270z"/>
</g>
</svg>
