<?xml version="1.0" standalone="no"?>
<!DOCTYPE svg PUBLIC "-//W3C//DTD SVG 20010904//EN"
 "http://www.w3.org/TR/2001/REC-SVG-20010904/DTD/svg10.dtd">
<svg version="1.0" xmlns="http://www.w3.org/2000/svg"
 width="512.000000pt" height="512.000000pt" viewBox="0 0 512.000000 512.000000"
 preserveAspectRatio="xMidYMid meet">
<metadata>
Created by potrace 1.11, written by Peter Selinger 2001-2013
</metadata>
<g transform="translate(0.000000,512.000000) scale(0.100000,-0.100000)"
fill="#000000" stroke="none">
<path d="M2315 5109 c-556 -57 -1079 -290 -1476 -657 -454 -418 -720 -922
-816 -1542 -21 -142 -25 -528 -5 -665 59 -415 188 -761 406 -1095 178 -272
455 -548 726 -726 334 -218 683 -347 1095 -406 118 -17 512 -17 630 0 598 85
1094 331 1502 743 404 409 641 894 725 1484 17 118 17 512 0 630 -96 677 -410
1242 -927 1671 -343 284 -783 476 -1255 549 -126 19 -477 28 -605 14z m318
-235 c37 -18 757 -783 834 -885 60 -80 117 -193 148 -292 l20 -68 66 -23 c86
-30 169 -75 249 -135 78 -59 851 -879 863 -916 22 -66 16 -74 -382 -498 -208
-221 -400 -423 -427 -449 -83 -78 -235 -165 -352 -199 -7 -2 -27 -47 -45 -100
-36 -103 -85 -198 -145 -277 -65 -87 -812 -873 -840 -883 -57 -22 -70 -10
-399 339 -174 185 -354 377 -400 425 -128 135 -199 252 -253 411 l-27 79 -75
27 c-102 37 -199 95 -285 172 -74 65 -774 810 -805 857 -23 34 -23 79 1 116
31 49 773 832 840 885 77 61 172 115 257 145 l66 23 29 88 c37 109 84 199 148
284 67 87 799 861 831 877 33 17 46 16 83 -3z"/>
<path d="M2288 4298 c-401 -426 -417 -445 -466 -536 -23 -44 -42 -84 -42 -89
0 -6 40 -16 89 -22 218 -28 404 -122 552 -279 72 -75 114 -132 148 -201 l22
-43 42 71 c77 131 206 260 337 337 89 53 231 100 339 113 46 6 87 13 90 17 12
12 -82 174 -136 235 -126 140 -665 709 -673 709 -4 0 -140 -141 -302 -312z"/>
<path d="M1740 3030 l0 -400 375 0 375 0 0 53 c-1 122 -47 285 -111 394 -52
88 -200 231 -286 276 -88 46 -205 77 -290 77 l-63 0 0 -400z"/>
<path d="M3250 3414 c-124 -33 -271 -122 -349 -210 -126 -144 -201 -333 -201
-509 l0 -65 365 0 365 0 0 400 0 400 -62 -1 c-35 0 -88 -7 -118 -15z"/>
<path d="M1481 3369 c-96 -42 -174 -114 -462 -421 l-294 -313 399 -3 c220 -1
401 -1 403 1 2 2 2 173 1 380 l-3 376 -44 -20z"/>
<path d="M3640 3010 l0 -380 410 0 411 0 -299 318 c-165 174 -319 331 -343
348 -40 29 -161 94 -174 94 -3 0 -5 -171 -5 -380z"/>
<path d="M747 2377 c68 -85 578 -615 623 -646 59 -41 133 -81 150 -81 7 0 10
122 10 375 l0 375 -401 0 -400 0 18 -23z"/>
<path d="M1740 1941 l0 -460 25 -78 c33 -104 93 -208 163 -285 134 -147 546
-583 554 -586 4 -2 8 417 8 932 l0 936 -375 0 -375 0 0 -459z"/>
<path d="M2700 1658 c0 -409 -3 -827 -7 -930 -4 -135 -3 -188 5 -188 14 0 565
585 610 648 42 59 79 131 103 201 18 50 19 91 19 533 l0 478 -365 0 -365 0 0
-742z"/>
<path d="M3640 2020 c0 -209 2 -380 5 -380 14 0 115 56 166 92 46 32 584 589
627 650 13 17 -1 18 -392 18 l-406 0 0 -380z"/>
</g>
</svg>
