<?xml version="1.0" standalone="no"?>
<!DOCTYPE svg PUBLIC "-//W3C//DTD SVG 20010904//EN"
 "http://www.w3.org/TR/2001/REC-SVG-20010904/DTD/svg10.dtd">
<svg version="1.0" xmlns="http://www.w3.org/2000/svg"
 width="512.000000pt" height="512.000000pt" viewBox="0 0 512.000000 512.000000"
 preserveAspectRatio="xMidYMid meet">
<metadata>
Created by potrace 1.11, written by Peter Selinger 2001-2013
</metadata>
<g transform="translate(0.000000,512.000000) scale(0.100000,-0.100000)"
fill="#000000" stroke="none">
<path d="M2315 5109 c-556 -57 -1079 -290 -1476 -657 -454 -418 -720 -922
-816 -1542 -21 -142 -25 -528 -5 -665 59 -415 188 -761 406 -1095 178 -272
455 -548 726 -726 334 -218 683 -347 1095 -406 118 -17 512 -17 630 0 598 85
1094 331 1502 743 404 409 641 894 725 1484 17 118 17 512 0 630 -96 677 -410
1242 -927 1671 -343 284 -783 476 -1255 549 -126 19 -477 28 -605 14z m332
-612 c51 -27 624 -634 697 -739 27 -39 66 -109 86 -156 35 -82 39 -86 85 -104
72 -28 175 -99 249 -170 139 -135 605 -641 622 -676 26 -54 23 -130 -6 -185
-33 -62 -613 -680 -698 -745 -64 -48 -138 -90 -194 -111 -18 -7 -30 -22 -38
-48 -20 -62 -75 -164 -123 -228 -82 -110 -635 -688 -684 -714 -60 -33 -126
-33 -186 0 -61 33 -631 639 -708 753 -31 45 -68 115 -84 155 -21 56 -33 75
-54 82 -139 52 -225 124 -510 429 -384 410 -379 405 -396 465 -19 62 -7 130
30 180 12 17 157 173 322 348 312 332 387 398 511 456 62 28 72 36 82 69 19
57 85 178 134 240 49 63 618 669 649 691 33 23 100 41 137 35 19 -3 54 -15 77
-27z"/>
<path d="M2324 3783 l-222 -237 67 -21 c123 -40 233 -109 330 -209 l54 -55 39
44 c76 87 216 175 345 219 l63 21 -221 235 c-121 129 -223 236 -227 237 -4 2
-107 -104 -228 -234z"/>
<path d="M2010 2960 l0 -190 165 0 165 0 0 23 c0 39 -67 165 -117 218 -58 62
-86 83 -158 114 l-55 25 0 -190z"/>
<path d="M3010 3113 c-105 -51 -217 -194 -246 -315 l-6 -28 166 0 166 0 0 185
c0 142 -3 185 -12 185 -7 -1 -38 -13 -68 -27z"/>
<path d="M3490 2897 l0 -127 115 0 c95 0 115 2 108 14 -4 7 -56 64 -115 127
l-108 113 0 -127z"/>
<path d="M1485 2892 l-110 -117 109 -3 c60 -1 110 -1 113 1 2 3 2 57 1 120
l-3 116 -110 -117z"/>
<path d="M1392 2331 c7 -10 57 -64 111 -121 l97 -102 0 121 0 121 -111 0
c-105 0 -110 -1 -97 -19z"/>
<path d="M2010 2047 l0 -303 36 -74 c35 -74 51 -94 216 -268 l88 -93 0 521 0
520 -170 0 -170 0 0 -303z"/>
<path d="M2750 1830 l0 -520 130 138 c104 109 139 153 170 216 l40 78 0 304 0
304 -170 0 -170 0 0 -520z"/>
<path d="M3490 2223 l0 -127 108 113 c59 63 111 120 115 127 7 12 -13 14 -108
14 l-115 0 0 -127z"/>
</g>
</svg>
