<?xml version="1.0" standalone="no"?>
<!DOCTYPE svg PUBLIC "-//W3C//DTD SVG 20010904//EN"
 "http://www.w3.org/TR/2001/REC-SVG-20010904/DTD/svg10.dtd">
<svg version="1.0" xmlns="http://www.w3.org/2000/svg"
 width="512.000000pt" height="512.000000pt" viewBox="0 0 512.000000 512.000000"
 preserveAspectRatio="xMidYMid meet">
<metadata>
Created by potrace 1.11, written by Peter Selinger 2001-2013
</metadata>
<g transform="translate(0.000000,512.000000) scale(0.100000,-0.100000)"
fill="#000000" stroke="none">
<path d="M2315 5109 c-556 -57 -1079 -290 -1476 -657 -454 -418 -720 -922
-816 -1542 -21 -142 -25 -528 -5 -665 59 -415 188 -761 406 -1095 178 -272
455 -548 726 -726 334 -218 683 -347 1095 -406 118 -17 512 -17 630 0 598 85
1094 331 1502 743 404 409 641 894 725 1484 17 118 17 512 0 630 -96 677 -410
1242 -927 1671 -343 284 -783 476 -1255 549 -126 19 -477 28 -605 14z m320
-160 c22 -6 53 -23 69 -37 76 -71 780 -827 820 -882 54 -73 130 -221 151 -294
l15 -51 75 -29 c90 -34 230 -124 307 -197 82 -77 745 -786 779 -832 15 -21 31
-59 35 -83 13 -87 -1 -105 -348 -476 -418 -447 -499 -529 -583 -587 -75 -52
-168 -101 -226 -120 -32 -10 -37 -18 -53 -69 -28 -89 -93 -212 -155 -295 -77
-103 -815 -883 -854 -904 -40 -20 -102 -22 -145 -4 -42 17 -800 821 -874 925
-60 86 -108 178 -137 268 -20 61 -25 68 -59 79 -93 30 -236 116 -323 193 -25
23 -217 224 -426 448 -412 440 -422 453 -409 542 4 24 20 62 35 83 37 49 747
801 811 858 86 76 216 153 311 184 30 10 38 18 48 54 42 140 136 299 248 419
271 288 723 765 736 777 17 13 83 40 102 41 6 0 28 -5 50 -11z"/>
<path d="M2265 4170 c-277 -295 -397 -434 -384 -444 2 -2 46 -12 96 -24 230
-53 436 -186 570 -368 l46 -63 47 62 c139 183 329 308 550 363 58 15 107 28
108 30 2 1 -12 27 -31 56 -35 52 -663 728 -677 728 -4 0 -150 -153 -325 -340z"/>
<path d="M1810 3030 l0 -330 306 0 306 0 -6 48 c-13 97 -29 150 -73 240 -60
126 -168 242 -282 301 -80 41 -173 71 -223 71 l-28 0 0 -330z"/>
<path d="M3234 3336 c-106 -34 -180 -81 -265 -166 -59 -60 -86 -97 -122 -171
-45 -91 -76 -199 -77 -266 l0 -33 295 0 295 0 0 330 0 330 -27 0 c-16 -1 -60
-11 -99 -24z"/>
<path d="M1409 3245 c-26 -18 -154 -148 -285 -287 l-237 -253 283 -3 c156 -1
285 -1 287 1 2 2 2 133 1 290 l-3 286 -46 -34z"/>
<path d="M3710 2990 l0 -290 291 0 c276 0 291 1 278 17 -8 10 -114 124 -237
255 -213 226 -259 270 -309 297 l-23 12 0 -291z"/>
<path d="M931 2283 c295 -323 494 -523 521 -523 4 0 8 128 8 285 l0 285 -286
0 -287 0 44 -47z"/>
<path d="M1810 1906 l0 -425 30 -84 c17 -46 47 -109 68 -140 30 -45 497 -557
509 -557 2 0 3 367 3 815 l0 815 -305 0 -305 0 0 -424z"/>
<path d="M2768 1518 c-2 -447 -3 -814 -3 -815 0 -1 106 111 235 249 244 259
289 318 333 430 l27 66 0 441 0 441 -295 0 -294 0 -3 -812z"/>
<path d="M3710 2040 l0 -291 23 12 c48 26 103 79 295 283 109 116 213 228 231
249 l33 37 -291 0 -291 0 0 -290z"/>
</g>
</svg>
