<?xml version="1.0" standalone="no"?>
<!DOCTYPE svg PUBLIC "-//W3C//DTD SVG 20010904//EN"
 "http://www.w3.org/TR/2001/REC-SVG-20010904/DTD/svg10.dtd">
<svg version="1.0" xmlns="http://www.w3.org/2000/svg"
 width="16.000000pt" height="16.000000pt" viewBox="0 0 16.000000 16.000000"
 preserveAspectRatio="xMidYMid meet">
<metadata>
Created by potrace 1.11, written by Peter Selinger 2001-2013
</metadata>
<g transform="translate(0.000000,16.000000) scale(0.003125,-0.003125)"
fill="#000000" stroke="none">
<path d="M2525 4980 c-29 -12 -867 -854 -920 -925 -53 -71 -140 -241 -155
-306 -11 -44 -13 -46 -68 -64 -31 -9 -84 -30 -118 -45 -144 -65 -194 -108
-647 -559 -241 -240 -445 -448 -453 -463 -18 -34 -18 -72 0 -106 20 -37 868
-879 932 -925 64 -46 211 -120 285 -142 l56 -18 18 -61 c31 -104 116 -257 190
-343 6 -6 203 -205 439 -442 302 -303 438 -432 458 -436 15 -4 41 -4 56 0 33
7 862 830 937 930 75 100 160 276 164 342 1 6 32 21 70 32 81 25 202 87 281
144 67 49 906 881 926 919 18 34 18 72 0 106 -8 15 -212 223 -453 463 -308
306 -459 449 -508 481 -79 52 -173 97 -257 123 -54 18 -57 20 -68 64 -23 90
-107 251 -173 331 -63 76 -883 893 -905 901 -28 11 -60 11 -87 -1z m836 -1077
c32 -46 89 -152 89 -165 0 -5 -19 -8 -42 -8 -39 0 -100 -9 -181 -25 -15 -3
-64 -19 -108 -35 -226 -82 -397 -229 -534 -455 -9 -14 -19 -4 -62 62 -125 192
-334 348 -549 412 -83 24 -117 30 -209 38 -38 3 -71 7 -73 8 -8 7 55 123 98
180 26 35 213 228 415 430 l366 367 380 -382 c208 -210 393 -402 410 -427z
m-1479 -427 c324 -87 555 -373 573 -708 l5 -88 -405 0 -405 1 0 411 0 411 88
-6 c48 -3 113 -13 144 -21z m1601 -386 l0 -405 -398 -3 -398 -2 6 97 c17 263
164 497 395 625 75 42 177 79 237 86 22 2 42 6 45 9 2 2 29 3 59 1 l55 -3 -1
-405z m-2067 -22 l-1 -383 -434 -2 c-239 -2 -432 -1 -430 1 140 145 611 615
646 644 47 40 188 122 209 122 8 0 11 -109 10 -382z m2387 351 c34 -17 83 -47
109 -66 37 -27 542 -524 660 -651 l22 -22 -440 0 -440 1 0 384 c0 317 2 385
13 385 7 0 42 -14 76 -31z m-2386 -1349 c0 -209 -3 -383 -8 -386 -12 -7 -124
52 -183 96 -36 27 -576 559 -675 666 -2 2 192 4 431 4 l435 0 0 -380z m1040
-575 c-1 -525 -3 -955 -5 -955 -11 0 -634 637 -669 684 -24 32 -57 87 -73 122
-61 131 -60 125 -60 636 l0 468 404 0 405 0 -2 -955z m1024 938 c0 -10 1 -225
1 -478 1 -489 0 -497 -50 -604 -50 -108 -102 -168 -419 -488 -177 -178 -322
-323 -324 -323 -3 0 -3 727 0 1753 l1 157 395 0 c369 0 395 -1 396 -17z m1064
-34 c-260 -265 -610 -607 -646 -631 -59 -40 -179 -100 -180 -91 -4 19 -6 759
-2 766 2 4 201 7 441 7 l436 0 -49 -51z"/>
</g>
</svg>
