<?xml version="1.0" standalone="no"?>
<!DOCTYPE svg PUBLIC "-//W3C//DTD SVG 20010904//EN"
 "http://www.w3.org/TR/2001/REC-SVG-20010904/DTD/svg10.dtd">
<svg version="1.0" xmlns="http://www.w3.org/2000/svg"
 width="512.000000pt" height="512.000000pt" viewBox="0 0 512.000000 512.000000"
 preserveAspectRatio="xMidYMid meet">
<metadata>
Created by potrace 1.11, written by Peter Selinger 2001-2013
</metadata>
<g transform="translate(0.000000,512.000000) scale(0.100000,-0.100000)"
fill="#000000" stroke="none">
<path d="M2375 5054 c-470 -48 -826 -170 -1180 -402 -165 -108 -260 -185 -401
-326 -141 -141 -218 -236 -326 -401 -209 -318 -334 -658 -390 -1060 -16 -118
-16 -495 0 -610 68 -482 243 -895 532 -1260 81 -103 282 -304 385 -385 365
-289 779 -464 1260 -532 117 -17 493 -17 610 0 481 68 895 243 1260 532 103
81 304 282 385 385 246 310 425 692 499 1065 37 189 46 282 46 500 0 218 -9
311 -46 500 -74 373 -253 755 -499 1065 -81 103 -282 304 -385 385 -360 286
-778 464 -1245 530 -79 11 -436 21 -505 14z m268 -268 c18 -8 206 -189 433
-417 435 -437 475 -485 535 -644 31 -81 33 -84 78 -101 65 -24 178 -81 231
-117 74 -49 839 -816 861 -862 24 -51 24 -109 0 -160 -25 -53 -803 -826 -884
-879 -62 -40 -185 -100 -228 -111 -20 -5 -29 -17 -39 -48 -16 -57 -67 -159
-115 -232 -24 -37 -196 -218 -444 -466 -383 -383 -409 -407 -454 -418 -100
-24 -89 -32 -535 412 -441 439 -492 500 -553 662 -18 47 -36 85 -41 85 -20 0
-189 80 -243 115 -82 53 -859 826 -885 881 -25 51 -25 107 0 159 25 52 769
793 860 857 74 52 153 93 224 118 49 16 50 17 85 106 68 167 101 206 535 643
220 222 415 409 431 417 39 17 107 18 148 0z"/>
<path d="M2259 4053 c-272 -274 -359 -368 -348 -377 2 -1 40 -10 84 -20 214
-48 404 -165 540 -333 25 -30 45 -50 45 -45 0 23 168 186 244 236 105 70 177
102 308 135 l106 27 -25 35 c-28 36 -634 649 -643 649 -3 0 -143 -138 -311
-307z"/>
<path d="M1830 3030 l0 -290 280 0 280 0 0 28 c0 15 -7 55 -15 87 -47 178
-166 323 -333 405 -52 25 -167 59 -204 60 -5 0 -8 -130 -8 -290z"/>
<path d="M3233 3305 c-169 -37 -324 -156 -407 -315 -38 -72 -66 -164 -66 -217
l0 -33 275 0 275 0 0 290 c0 160 -3 290 -7 289 -5 0 -36 -7 -70 -14z"/>
<path d="M1415 3198 c-51 -40 -455 -440 -455 -450 0 -5 115 -8 255 -8 l255 0
0 245 c0 135 -3 245 -8 245 -4 0 -25 -14 -47 -32z"/>
<path d="M3670 2985 l0 -245 262 0 263 0 -205 205 c-183 184 -294 285 -313
285 -4 0 -7 -110 -7 -245z"/>
<path d="M1165 2169 c182 -183 278 -269 299 -269 3 0 6 108 6 240 l0 240 -257
0 -258 0 210 -211z"/>
<path d="M1832 1988 l3 -393 32 -67 c49 -104 67 -125 302 -363 l221 -223 0
719 0 719 -280 0 -281 0 3 -392z"/>
<path d="M2750 1663 l0 -718 234 235 c222 224 235 239 277 324 l44 89 3 394 3
393 -281 0 -280 0 0 -717z"/>
<path d="M3670 2134 l0 -245 43 30 c23 17 139 128 257 246 l215 215 -258 0
-257 0 0 -246z"/>
</g>
</svg>
