<svg xmlns="http://www.w3.org/2000/svg" xmlns:xlink="http://www.w3.org/1999/xlink" width="1043" height="601" viewBox="0 0 1043 601">
  <defs>
    <style>
      .cls-1 {
        fill-rule: evenodd;
        fill: url(#linear-gradient);
      }
    </style>
    <linearGradient id="linear-gradient" y1="300.5" x2="1043" y2="300.5" gradientUnits="userSpaceOnUse">
      <stop offset="0" stop-color="#2a675b"/>
      <stop offset="0.479" stop-color="#005f4d"/>
      <stop offset="1" stop-color="#112a25"/>
    </linearGradient>
  </defs>
  <path class="cls-1" d="M1016.6,301.754a30.038,30.038,0,0,1-.72-4.326c-0.12-.887-0.89-5.157-0.95-5.546s-2.33-3.938-2.44-4.159-4.11-4.16-4.27-4.493-2.28-2.606-2.61-3.494,0-4.159,0-4.325,0.44-4.548.44-5.436,1.17-2.551,1.17-2.883a3.287,3.287,0,0,0-1-1.387c-0.33-.277-3.72-1.442-4.72-2.163s-5.436-2.717-5.935-3.328-1.055-3.771-1.055-3.771l-0.444-5.324s2.137-4.867,2.22-5.158,1.415-1.123,1.748-1.705a2.863,2.863,0,0,0,0-2.039,6.527,6.527,0,0,0-.832-1.705c-0.25-.249-4.038-0.665-4.537-0.957a23.984,23.984,0,0,0-3.33-.831,31.445,31.445,0,0,1-3.121-3.12c-0.125-.416-0.25-3.078-0.291-3.286s-2.664-3.12-2.664-3.12,0.541-3.868.624-4.118,1.5-2.038,1.5-2.2-0.249-2.122-.332-2.33a15.062,15.062,0,0,0-2.456-1.206,24.8,24.8,0,0,0-3.746-.416l-4.12-.374s-3.538-1.872-3.788-2.039a36.539,36.539,0,0,1-2.872-2.828,25.73,25.73,0,0,1-1.5-2.62,5.135,5.135,0,0,0-.874-1.248l-2.872.166a18.741,18.741,0,0,0-.791,1.747,7.512,7.512,0,0,1-.666,1.788c-0.166.126-1.956,2.912-2.164,2.954a9.013,9.013,0,0,1-2.331-.125,4.529,4.529,0,0,1-1.54-.873c-0.333-.458-1.914-2.247-2.289-2.87s-3.2-4.535-3.2-4.535-6.035-10.44-6.285-10.773-2.706-2.7-2.955-3.036-1.748-2.288-1.832-2.454a17.968,17.968,0,0,1,1.624-2.454l1.456-2.371s1.832-2.454,1.915-2.7a7.691,7.691,0,0,0,.749-1.789,4.512,4.512,0,0,0-.874-1.289s-2.872-7.071-2.872-7.529-0.041-2.7.042-2.953a8.2,8.2,0,0,1,2.289-.915,4.2,4.2,0,0,1,1.5.665l1.832,2.663,2.33-.458s-0.125-.874-0.166-1.373a30.324,30.324,0,0,0-1.665-3,16.383,16.383,0,0,1,.042-3.2c0.041-.375,0-2.538,0-2.538l1.165-7.528s0.125-1.373.167-1.5S950.836,152,950.836,152l3.913-1.289a47.676,47.676,0,0,0,4.62-2.039c0.124-.249,1.5-1.039,1.54-1.289a3.421,3.421,0,0,0-.417-1.5c-0.249-.415-2.039-1.913-2.289-2.371s-1.873-2.911-2-3.078-2.289-5.7-2.289-5.7l-2-9.9-1.331-7.653-2.914-6.073-1.29-8.4L943.3,92.6s-0.208-2.08-.166-2.288-0.5-2.829-.417-3.036a10.222,10.222,0,0,1,1.54-1.539c0.666-.583,3.705-2.621,3.954-2.787s2.622-2.829,2.622-2.829,0.5-3.12.5-3.369a8.115,8.115,0,0,0-.874-1.539c-0.125-.208-3.288-0.624-3.788-0.874s-2.455.208-2.663,0.208-3.788,1.872-4.2,1.913a16.8,16.8,0,0,0-2.123.749,58.476,58.476,0,0,1-6.243-.54,22.4,22.4,0,0,0-2.039-1c-0.125-.083-4.37,1.414-4.787,1.414s-2.455,1.955-2.663,2.08-1.665,1.747-1.915,1.872a11.989,11.989,0,0,1-2.081.042,24.149,24.149,0,0,1-3.871-.416,7.45,7.45,0,0,1-1.456-1.789c0-.166,1.789-2.912,1.831-3.078a14.727,14.727,0,0,0,2-2c0.333-.707,1.332-2.412,1.332-2.662s-0.833-1.913-.874-2.08-1.291-4.242-1.291-4.242-0.333-2.246-.582-3.369-0.666-1.872-.708-2.288-4.578-.208-5.2-0.416-5.494-.333-5.744-0.5-3.579-2.579-3.579-2.579,0-4.243.041-4.784-0.416-2.288-.416-2.579,2.289-1.04,2.414-1a43.608,43.608,0,0,1,4.911.374,12.444,12.444,0,0,0,3.663.167c0.125-.125,1.873-0.5,2.164-0.915a3.959,3.959,0,0,0,0-1.872s1.623-6.239,1.623-6.863,0.791-1.331,1.624-2.246,2.122-1.123,2.788-1.581a9.8,9.8,0,0,1,2.206-.873s1.04-.083,1.332-0.125a16.085,16.085,0,0,0,1.748-.25,3.3,3.3,0,0,0,.916-0.541c0.332-.332,1.914-1.83,2.538-2.579s1.54-1.913,1.707-2.2a17.176,17.176,0,0,1,1.248-1.414,20.89,20.89,0,0,0,3.746-1.331c0.791-.541,3.08-1.414,3.247-1.539a6.011,6.011,0,0,0,.374-1.913,14.315,14.315,0,0,0-.666-1.539c-0.124-.5-2.372-1.165-2.372-1.165s-6.826-1.789-7.117-2-5.494-.832-5.785-1-3.08-1.539-3.08-1.539-1.79-4.076-1.665-4.534,0.957-2.121,1.04-2.371a16.114,16.114,0,0,1,1.374-2.121c0.374-.458,0-1.789,0-2.038a12.43,12.43,0,0,0-1.249-1.664c-0.083-.166-2.58-1.5-2.663-1.622a25.516,25.516,0,0,0-3.039,1.456s-3.205,2.288-3.246,2.413-2.955,1.705-4.412,2.579a2.648,2.648,0,0,0-1.5,1.913,11.135,11.135,0,0,0-.791,1.581c-0.083.374-1,2.579-1.165,3.2s-2.04,3.536-2.04,3.7,0.042,0.748.042,0.956a4.733,4.733,0,0,0,.249,1.04,3.912,3.912,0,0,0,1.332.457s3.288-.208,3.413-0.208a23.059,23.059,0,0,1,3.746.291,9.264,9.264,0,0,0,1.332.832,13.14,13.14,0,0,1-.208,1.913,35.35,35.35,0,0,1-3.205,2.7c-0.333.249-3.871,2.746-3.871,2.746l-4.037.083-2.331-1.955-3-.873s-2.83.832-3,.874-3.912,1.83-4.12,1.913-4.2,2.953-4.329,3.078S875,35.655,875,35.655L859.063,46.178l-2.955,2.7s-3.912,3.369-4.079,3.452-4.412,3.619-4.911,4.16-1.748,1.456-2,1.747-3.371,4.534-3.5,4.825-3.746,6.115-4.037,6.614-1.124,2.621-1.124,2.621-3.121,4.659-3.621,5.241a34.13,34.13,0,0,0-2.331,4.118,9.425,9.425,0,0,0,.791,2.454c0.125,0.167,1.582,2.746,1.832,3.161s1.872,0.5,3.079.458,3.5-.083,4.038,0a10.963,10.963,0,0,1,4.661,2.371,9.919,9.919,0,0,1,.291,2c0.084,1.206.209,3.244,0.209,3.952a5.393,5.393,0,0,1-1.124,2.08s-0.916.915-1.082,1.04a33.907,33.907,0,0,1-3.33,1c-0.166,0-2.747-.249-2.747-0.249s-3.871.208-4,.249-3.83.874-3.83,0.874l-1.623,1.871s-0.416,1.872-.5,2.33-1,2.329-1.249,3.119-2.331,2.871-2.747,3.536a34.443,34.443,0,0,0-1.914,4.617c0,0.291-3.372,3.536-3.663,4.285a24.118,24.118,0,0,1-1.748,2.828,19,19,0,0,0-.874,3.952,4.43,4.43,0,0,1-1,1.747s-2.164,3.036-2.331,3.327-4.2,3.2-4.287,3.328a11.249,11.249,0,0,1-3,.582,9.311,9.311,0,0,1-2.248-1.456,5.233,5.233,0,0,1-.916-1.788,2.8,2.8,0,0,0-.832-1.123c-0.083-.208-4.037-1.248-4.62-1.831s-2.5-.083-2.663,0-4.953,2.538-5.12,2.787-4.245,1.913-4.412,2a36.151,36.151,0,0,0-2.788,3.868c-0.208.5-4.2,9.65-4.2,9.65s-3.538,6.531-3.621,6.864a41.851,41.851,0,0,1-3.829,3.244l-5.91.749s-6.285.873-6.451,0.873-5.786,1.747-5.786,1.747l-3.412-.083s-0.458-1.5-.458-1.622,1.124-1.414,1.124-1.539a15.743,15.743,0,0,0-.25-1.955,12.715,12.715,0,0,0-1.166-.832s-3.621.5-4.12,0.5a9.773,9.773,0,0,0-1.748.375s-1.665,1.746-1.831,1.913-2.747,2.163-3.122,2.537-2.123,1.747-2.622,2.08-5.494,3.244-5.7,3.369-7.783,4.243-7.991,4.368-7.409,3.369-7.409,3.369-0.957,3.161-1.123,3.66a24.787,24.787,0,0,0,.124,3.952,45.169,45.169,0,0,0,2.081,5.033c0.125,0.041,2.706,1.955,3.413,2.329s1.957,1.207,2.414,1.456a4.76,4.76,0,0,1,1.041,1.83,2.483,2.483,0,0,1-.375,1.539,41.72,41.72,0,0,1-3.038,3c-0.5.541-1.582,1.456-1.831,1.789a14.086,14.086,0,0,0-1.082,1.913,15.556,15.556,0,0,1-.791,1.414,5.613,5.613,0,0,1-1.873.874l-3.163.416-3.663.915a13.562,13.562,0,0,1-.375,1.581c-0.124.249-3.038,5.657-3.121,5.865a6.612,6.612,0,0,1-2.04.083h-4.411l-2.622.208a15.167,15.167,0,0,0-1.54,1.331c-0.25.332,0.083,0.624,0.333,1s0.624,0.915,1.332,1.789,0.749,2.7,1,3.244,1.873,4.451,2.081,4.7a3.039,3.039,0,0,1-.249,1.623c-0.084.166-.666,2.287-0.749,2.454a6.509,6.509,0,0,1-3.372.457c-1.248-.249-2.206-0.54-2.455-1.039s-3.621-1.373-4.412-1.872-5.286-1.332-6.16-1.664a11.287,11.287,0,0,1-2.747-1.331,26.587,26.587,0,0,0-2.83-1.789,47.151,47.151,0,0,1-3.954-2.995c-0.042-.249-1.207-1.414-1.29-1.747a8.287,8.287,0,0,1,1.04-2.2,1.021,1.021,0,0,1,.957-0.583,5.739,5.739,0,0,0,0-1.7,4.022,4.022,0,0,0-1.207-1.29c-0.124-.124-4.12-3.577-4.411-3.951s-2.5-1.5-3.039-1.955-2.58-2-2.58-2-1.831.207-1.956,0.207a21.161,21.161,0,0,0-2.331,1.248c-0.125.125-2.539,1.539-2.539,1.539s-2.872-.166-3.121-0.249-2.914,0-3.164-.125a7.019,7.019,0,0,0-2.455,1.165c-0.125.207-1.748,2.329-1.873,2.578a18.457,18.457,0,0,0,1.29,4.2c0.291,0.417,1.415,1.872,1.54,2.205a6.934,6.934,0,0,1,.666,2.288c-0.125.458-5.327,3.036-5.785,3.078s-3.954,1.372-3.954,1.372-4.786,2.08-4.911,2.08-4.329,2-4.329,2a13.1,13.1,0,0,1-2.955-.707c-0.208-.291-2.789-1.123-3.163-1.664s0.458-1.04.458-1.248a13.917,13.917,0,0,0-.958-1.788h-3.371c-0.166,0-5.119,1.206-5.119,1.206l-2.664,1.7s-3.912,1.914-4.12,2.08a12.2,12.2,0,0,0-1.207,2.787,8,8,0,0,1-1.415,1.83,8.757,8.757,0,0,1-2.664-.749c-0.749-.5,0-2,0-2.121s-1.915-1.123-2.04-1.248a10.7,10.7,0,0,0-1.581-.333,16.3,16.3,0,0,0-2.123,1.748c-0.083.124-2.039,1.622-2.122,1.746s-2,2.122-2.248,2.372a29.167,29.167,0,0,1-2.664,2.038,19.616,19.616,0,0,0-2.289,2.287,23.83,23.83,0,0,1-2.7,1.914c-0.416.166-3.5,3.41-4.121,3.826a2.866,2.866,0,0,1-1.956.208c-0.125-.083-2.5-0.041-3.371-0.624a1.958,1.958,0,0,1-1.124-1.372,7.244,7.244,0,0,1-.5-2.122,7.681,7.681,0,0,1,1.373-3.41,16.261,16.261,0,0,0,1.457-2.122,23.766,23.766,0,0,1,2.789-2.745l3.288-6.905s7.491-12.021,7.616-12.437,2.289-2.5,2.664-3.12a12.41,12.41,0,0,0,.749-1.622l-0.583-7.279s-0.166-2.62-.208-3.244,0-2.7,0-2.912-1.5-1.872-1.831-2.579-1.873-1.789-2.414-2.621a11.827,11.827,0,0,0-2.747-2.37,23.454,23.454,0,0,0-3.7.332l-6.243-.374s-3.829-.291-4.079-0.291a22.3,22.3,0,0,0-2.539,1.788l-2.7,3.2s-1.54.167-1.79-.166a14.6,14.6,0,0,1-1.5-1.706c-0.167-.416.666-1.83,0.79-2.038a2.713,2.713,0,0,0,0-1.414c-0.124-.208-1.082-0.583-2.58-1.5a1.5,1.5,0,0,0-2.229.332,20.028,20.028,0,0,1-3.348.25,9.912,9.912,0,0,1-1.873-1.289c-0.167-.292,1.373-2.788,1.373-3.162s2.04-.416,2.04-0.416,1.748-2.121,1.789-2.329a8.4,8.4,0,0,0,0-1.04s-3.662-1.289-4.286-1.456-1.832.874-2.165,1a43.824,43.824,0,0,0-3.413,3.7A28.137,28.137,0,0,0,543,181.987c-0.166.333-2.77,5.158-2.77,5.158a12.271,12.271,0,0,0-1.017,2.621,8.629,8.629,0,0,0,.708,2.7,4.446,4.446,0,0,1,.208,2.579c-0.125.541-1.956,1.04-2.331,1.373a1.615,1.615,0,0,0-.624,1.289v2.829c0,0.665-1.79,1.372-2.789,1.955s-4.911,2.288-4.911,2.288-5.2,1.372-5.661,1.372a9.7,9.7,0,0,1-2.622-.624c-0.083-.166-0.582-1.539-0.582-1.539a15.3,15.3,0,0,1-2.706-.457,2,2,0,0,0-1.207.291s-2.039,1.414-2.414,1.789-3.08,2.5-3.537,3.119-3.164,1.539-3.788,1.913S504,212.768,504,212.768s-4.828,1.372-5.619,1.747a11.675,11.675,0,0,0-2.539,2.371c-0.416.5-5.868,5.324-6.076,5.657s-3.7,5.491-3.829,5.74-1.374,1.83-1.457,2.828a3.632,3.632,0,0,0,1,2.871,5.27,5.27,0,0,1,1.623,2.038,6.681,6.681,0,0,1,.375,2.329c-0.167.624-1.332,0.79-1.5,0.915s-4.12.167-4.5,0.167-6.2.832-6.534,0.707-5.7.332-5.827,0.332-4.245.458-4.245,0.458l-5.05,1.206a44.927,44.927,0,0,1-2.053,5.6c-1.5,3.494-.333,3.66-0.222,4.159a27.818,27.818,0,0,0,1.775,3.993,10.74,10.74,0,0,0,2.664,2.995c0.333,0.388,1.5,2.108,1.5,2.108l1.388,4.492s-0.888,4.714-1.11,5.435-0.833.277-1.332,0.222-3.163-.665-3.552-1.276-0.777-.943-1-1.386-1.11-1.72-1.277-1.941a7.373,7.373,0,0,0-.943-0.777s-0.611.389-1.055,0.666a3.541,3.541,0,0,1-2.164-.056,15.969,15.969,0,0,1-1.942-.942,28.062,28.062,0,0,0-1.443-2.441,19.676,19.676,0,0,0-1.554-1.608,27.112,27.112,0,0,1-2.664-3,3.988,3.988,0,0,1,.389-1.885l0.555-1.332s-2.5-1.442-2.664-1.552a7.768,7.768,0,0,0-1.72,1.164,15.058,15.058,0,0,0-.888,2.052,25.471,25.471,0,0,0,1.387,2.884,17.351,17.351,0,0,0,1.831,2.274,7.657,7.657,0,0,1,0,1.608,10.591,10.591,0,0,1-1.886,1.331,12.318,12.318,0,0,1-1.943.112l-1.331-1.72-2.165-.942a7.841,7.841,0,0,0-1,1.275,7.488,7.488,0,0,0-.222,1.83,16.882,16.882,0,0,0,1.5,1.886c0.277,0.443,3.773,2.884,3.995,3.161s2.109,2.662,2.22,2.828a16.654,16.654,0,0,1,.5,1.609l-0.444,1.109-2,2.274a15.639,15.639,0,0,1-2.331-.388c-0.277-.167-2.164-0.5-2.83-1.11s-3.829-1.441-4.162-1.83-3.718-2.551-3.94-2.828a20.709,20.709,0,0,1-2-2.5c-0.056-.333.832-2.718,0.832-3.161s0.944-2.94,1-3.217a9.083,9.083,0,0,1,.833-1.386l1.775-2.76a9.34,9.34,0,0,0-.277-1.456,5.5,5.5,0,0,0-1.609-.11l-3.052,1.566-0.389.486s-4.162,3.438-4.218,3.6-1.331,1.608-1.775,2.274-0.333,2.662-.278,3.216,1.61,6.656,1.665,6.988,0.832,1.608,1.609,3.716-0.277,3.161-.666,4.1-3.163,3.328-3.718,3.883a18.18,18.18,0,0,0-1.609,3.6s-0.388,3.55-.555,5.047,1.054,2.33,1.276,2.884,3.053,0.388,3.219.444,4.606,0.388,4.606.388a6.891,6.891,0,0,1,2.22,1.664,16.207,16.207,0,0,1,2.386,3.605c0.056,0.444,4.329,2,5.438,2.662s0.5,2.218.4,3.05,0.157,2.219-.009,2.829,0.055,3.438,0,3.716a6.779,6.779,0,0,1-1.055,1.275l-3,1.5s-3.552.166-4.051-.167a4.1,4.1,0,0,1-1-2.218,24.359,24.359,0,0,1,.277-2.5,12.179,12.179,0,0,0-.888-2.969c-0.166-.53-1.442-3.02-1.609-3.3a7.9,7.9,0,0,0-2.275-1.275,18.338,18.338,0,0,0-3.219.11,32.3,32.3,0,0,0-3.274,3.162c-0.444.721-.111,2.44-0.166,3.161a25.429,25.429,0,0,0,.222,2.607c0,0.332-.944,5.269-0.944,5.269a18.926,18.926,0,0,1-.943,2.384c-0.444.832-.777,1.331-0.777,1.331a35.953,35.953,0,0,0-3.385,2.274c-0.555.555-1.11,1.165-1.388,1.442s-2.608,3-3.607,4.049a15.242,15.242,0,0,1-3.218,2.773,8.393,8.393,0,0,1-3.718,1.164c-1.665.222-2.442,1.221-3.83,1.442a10.724,10.724,0,0,1-3.773,0,31.65,31.65,0,0,1-3.441-.61c-0.943-.332-2.22-0.942-2.22-0.942a47.256,47.256,0,0,1-4.051-3.494,18.26,18.26,0,0,0-2.108-2.274,11.129,11.129,0,0,1-1.887-2.219c-0.389-.554.055-1.83,0.111-2.108a1.227,1.227,0,0,1,.444-0.554s0.943-.61,1.387-0.832a3.444,3.444,0,0,1,1.554.167c0.277,0,2.553.277,3.219,0.332a17,17,0,0,1,2.608,1.054,18.4,18.4,0,0,0,4.051.61,9.679,9.679,0,0,0,2.608-.444,3.431,3.431,0,0,0,2.22-1.608c0.111-.277,4.273-3.827,4.273-3.827s4.55-5.6,4.717-5.657,1.165-1.608,1.831-2.274a11.036,11.036,0,0,0,2.5-3.494,2.738,2.738,0,0,0-.277-2.44c-0.388-.721-1.554-2.5-2.22-3.771a11.625,11.625,0,0,1-1.11-3.771c-0.333-1.72.611-3.883,0.611-4.216s1.609-6.655,1.886-7.653,1.055-2.718,1.166-3.217,1.887-6.1,1.942-6.489a33.762,33.762,0,0,1,1.276-3.6,5.545,5.545,0,0,0,.389-2.717,41.7,41.7,0,0,0-.278-4.271,18.444,18.444,0,0,1,0-3.493,10.441,10.441,0,0,1,.167-2.219c0.167-.832,1.165-1.5,1.221-1.886s0.5-1.664.666-2.329a35.625,35.625,0,0,1,2.5-4.437c0.444-.665,1.609-1.83,2.331-2.717s1.054-1.22,1.054-1.609a17.082,17.082,0,0,0,0-2.385,10.181,10.181,0,0,0-.666-1.774,17.086,17.086,0,0,0-2.275-2.33c-0.832-.665-3.33-1.053-4.218-1.386a4.921,4.921,0,0,0-2.552.277s-2.5,2.385-3.052,3.05-2.442,2.663-2.886,3.384a20.681,20.681,0,0,1-2.331,3.327,32.677,32.677,0,0,0-2.775,2.884c-0.666.943-4.883,3.494-4.883,3.494s-3.774,2.94-5.106,4.16-0.5,1.664-.388,3,1.665,2.717,1.665,3.438a8.031,8.031,0,0,1-1.277,2.884c-0.332.444-3.274,4.714-3.773,5.712s-1.332,2.219-1.665,3.051,0.055,1.164.444,2.385,2.109,1.885,2.886,2.773,0.222,1,.222,1.664-0.389,1.885-.444,2.939a20.6,20.6,0,0,0,0,2.662,3.9,3.9,0,0,0,.943,1.941,1.645,1.645,0,0,1,.5,1.387,24.68,24.68,0,0,1-1.221,3.771c-0.278.555-2.109,3-2.276,3.217a8.314,8.314,0,0,1-1.609.776,4.236,4.236,0,0,1-1.387-.277,10.8,10.8,0,0,1-2-1.5,5.828,5.828,0,0,1-1.554-2.939c-0.333-1.5-1.387-2-2.22-2.829a11.78,11.78,0,0,1-2.053-2.329c-0.277-.61-1.221-2.218-1.554-3.106a31.861,31.861,0,0,0-2.386-3.715s-3.33-4.826-3.441-5.879-1.332-1.72-2.053-2.663-1.72-.721-2.386-1.109a12.531,12.531,0,0,1-2.386-2.717c-0.444-.666-1.055-1.11-1.166-1.387s-3.052-1.553-3.274-1.83a17.427,17.427,0,0,0-2.608-1.22l-2.442.111a5.8,5.8,0,0,0-1.221.721,10.1,10.1,0,0,0-.61,1.83,22.235,22.235,0,0,0,.333,2.829,20.939,20.939,0,0,1-.333,3.937c-0.056.444-.389,1.054-0.389,1.276a2.771,2.771,0,0,1-.721.832s-2.664,1.275-2.775,1.442a11.019,11.019,0,0,1-2.608.832,27.794,27.794,0,0,1-3.052-.888,18.735,18.735,0,0,0-2.664-.666s-0.111-2.329-.111-2.5a7.859,7.859,0,0,1,1.221-1.165,13.173,13.173,0,0,0,0-1.5c-0.056-.395-1.332,0-1.332,0s-2.719-.05-2.941-0.05a31.117,31.117,0,0,1-3.219,0,27.656,27.656,0,0,1-3-.388,13.861,13.861,0,0,1-2.22-1.719c-0.167-.333-2.719-0.943-3.163-1.22s-2.664.665-2.886,0.665-2.109.721-2.331,0.721-3.718,1.331-4.051,1.276a8.062,8.062,0,0,1-2.386-1.054c-0.389-.388-2.886-1.941-3.108-2.218a8.376,8.376,0,0,1-1.443-1.942,1.77,1.77,0,0,1,.5-1.441s1.942-1.609,2.164-1.775,2.5-1.941,2.5-1.941l0.444-.777a11.665,11.665,0,0,1-.777-1.109c-0.333-.554-1.831.056-2.053,0s-4.883-.111-5.05-0.222-3.552-.332-3.774-0.5-6.992.055-7.325-.055-4.439-.222-4.439-0.222-4.051.222-4.329,0.111-5.327.333-5.827,0.277a7.176,7.176,0,0,0-1.775.333s-2.387,1.275-2.664,1.553-1.72,2.44-2.053,2.773-2.609,1.885-2.831,2.052a8.235,8.235,0,0,1-2.608,0c-0.277-.111-3.274-0.555-4.162-0.943a10.445,10.445,0,0,1-2.22-1.719s0.056-2.857.056-3.938-0.083-3.827-.083-4.243a26.99,26.99,0,0,1-.417-3.827,7.085,7.085,0,0,1,1.083-1.664s4.245-1.33,4.744-1.33,1.748,0.5,2.331.582a26.629,26.629,0,0,0,3.579.083,5.335,5.335,0,0,0,2.081-1.164,11.026,11.026,0,0,1,2.331-1.914c0.833-.5,0-1.165,0-1.913a38.253,38.253,0,0,0-.916-4.492c-0.083-.25-2.33-1.5-2.5-1.831a4.992,4.992,0,0,0-1.748-.749l-2.164-.415a6.553,6.553,0,0,0-.666,1.33c0,0.25-.416,2-0.416,2a29.805,29.805,0,0,1-2.248,2.163c-0.5.333-2.663,1.83-2.913,2s-3.247,2.994-4,3.41a17.6,17.6,0,0,0-2.406,1.332,17.425,17.425,0,0,0-1.34,2.745,8.012,8.012,0,0,0,.5,1.747,26.243,26.243,0,0,1,.832,3.244,6.2,6.2,0,0,1-.5,2.08s-1.831,1.082-2.5,1.414-4.246,2.33-4.246,2.33l-1.332,1.414s-2.081.915-2.256,0.915a13.307,13.307,0,0,1-1.489-.582s-1-2.912-1.083-3.328a20.463,20.463,0,0,0-1.831-3.078,12.966,12.966,0,0,0-1.914-2.08s-2.331-1.83-2.5-2.079a10.95,10.95,0,0,0-2.663-.417s-6.909.5-7.159,0.5-2.581.332-2.83,0.332-3.5,2-3.5,2-1.832,2.329-2,2.662-1.249,3.91-1.332,4.409a7.588,7.588,0,0,1-2.58,2.329,6.776,6.776,0,0,1-2.664-.5,9.874,9.874,0,0,0-2.165-.853s-1.664-2.891-2.33-3.723a13.707,13.707,0,0,0-2-1.747,9.818,9.818,0,0,1-1.332-2.163,11.366,11.366,0,0,1-.083-2.912c0-.665.416-2.828,0.416-3.078s-0.25-2.828-.25-2.828l-1.332-1-2.58-.166a6.76,6.76,0,0,0-.832,1.414c-0.417.915-.25,1.331-0.5,3.328a27.248,27.248,0,0,0,.25,5.49,6.308,6.308,0,0,0,.666,2.08,6.224,6.224,0,0,1-.583,1.83,16.506,16.506,0,0,1-3.579,3.162,1.625,1.625,0,0,1-1.915,0c-0.749-.416-2.5-0.5-3.5-1.165a3.544,3.544,0,0,1-1.415-2.579c-0.166-.915-0.333-2.745-0.333-2.745s-0.416-4.326-.666-4.992-1.082-2.5-1.415-3.494a15.64,15.64,0,0,1-.083-3.91,13.626,13.626,0,0,1,1.082-3.826c0.583-1.332,3.08-2.33,3.08-2.33s4.079-5.989,4.162-6.488,1.665-1,2.58-1.665,1.915-.665,2.581-1.164a3.355,3.355,0,0,0,1.5-1.747,8.97,8.97,0,0,0-.166-2.579,24.159,24.159,0,0,0-1.415-3.244,32.672,32.672,0,0,1-1.249-4.16,6.873,6.873,0,0,1,.666-3.244c0.416-1.082,1.831-2.5,2.664-3.578a35.134,35.134,0,0,1,2.5-2.5,4.773,4.773,0,0,1,2.247-1.415,6.756,6.756,0,0,1,1.582.25,7.836,7.836,0,0,1,.832,3.577c0,1.5.5,2.5,0.833,4.576s1.248,3.577,1.581,5.906,0.833,2.413,1.249,3.661,0.749,1.747,1.415,3.493,2.747,3.412,3.746,5.408,2.247,4.409,2.664,5.158,3.912,2.911,4.328,3.244a24.673,24.673,0,0,0,5.827,2.08,23.414,23.414,0,0,0,5.161-.416,42.065,42.065,0,0,0,5.161-1.081c1-.417,1.415-1.914,1.748-3.328s0.749-3.827.832-4.659,0.25-1.83.417-2.662,1.165-4.076,1.331-5.158a8.062,8.062,0,0,0,0-3.161c-0.249-1-1.082-3.244-1.082-3.244s-3.08-9.734-3.413-10.732,0.084-3.827,0-4.991a19.962,19.962,0,0,0-.582-4.326,42.548,42.548,0,0,0-2.331-4.409,13.3,13.3,0,0,1-.583-3.245s-4.078-7.82-4.328-8.4-1.5-2-1.748-3a1.049,1.049,0,0,1,.416-1.248,7.6,7.6,0,0,1,2-1.248c0.666-.332.249-0.582,0-1.164a2.424,2.424,0,0,0-1.166-1.082,21.36,21.36,0,0,0-2.414-.832s-3.246-.582-3.579-0.665-6.077-.666-6.826-0.666-6.243,1.331-6.742,1.414a26.624,26.624,0,0,0-3.08,1.165,23.378,23.378,0,0,0-3.829,3c-0.75.915-.666,2.828-0.666,3.244s-1.5,6.822-1.5,7.155a9.354,9.354,0,0,1-1.748,2,20.851,20.851,0,0,1-3.579,1.082l-3.163.915s-4.578,3.078-4.911,3.661-0.916,2-1.166,2.412-0.832,1.248-1.332,1.913a16.216,16.216,0,0,0-1.581,2.746c-0.167.5-4.745,5.49-4.745,5.49s-5.494,3.078-5.827,3.328-2,1.414-2.664,1.913a10.525,10.525,0,0,0-1.914,2.5c-0.333.582-1.332,2.745-1.5,3.078s-4.079,5.824-4.079,5.824l-2,1.5c-0.333.249-2,.915-2.248,1.165s-1,.665-1.248.914a2.932,2.932,0,0,0-.5,1.165c-0.083.333-.832,2.163-1.082,2.912s-0.25,2.662-.666,3.577-0.749,3.161-1,3.91a14.089,14.089,0,0,1-1.5,2.413s-2.58.915-3.413,1.081-8.158,2.246-8.158,2.246h-7.158l-2.248.471s-4.661.222-5.161,0.222a9.746,9.746,0,0,1-2.663-.332,19.721,19.721,0,0,0-3.552-.112s-2.608,1.276-2.83,1.442a41.614,41.614,0,0,0-3,3.439c0,0.166-.333,3-0.333,3a3.1,3.1,0,0,0,1.221,1.386,20.882,20.882,0,0,1,2.331,2c0.777,0.666.333,1,.444,1.5a3.328,3.328,0,0,1-.056,1.11,9.677,9.677,0,0,1-1,1.83,14.089,14.089,0,0,0-.888,1.83,2.19,2.19,0,0,1-1.775.056,6.919,6.919,0,0,0-1.943-.444l-1.831-1.221a10.654,10.654,0,0,1-1.831-.055,6.127,6.127,0,0,1-1.5-1.442,8.308,8.308,0,0,0-1.664-1.774c-0.333-.222-2.054-0.666-2.387-0.888a40.589,40.589,0,0,0-5.161-.055l-1.387.166L92.9,266.98s-2.275-.055-2.553-0.111a3.623,3.623,0,0,1-.555-0.166l-1.554,1s-1,.777-1.165.888a10.642,10.642,0,0,0-1.332,1.386c-0.166.277-2.553,1.775-2.941,2.219s-1.554,1.719-1.554,1.719-1,1.331-1.276,1.608a3.014,3.014,0,0,1-1.554.056l-1.665.333-3.274,2.828s-4.218,5.713-4.273,5.935a43.039,43.039,0,0,0-2.331,3.826c-0.111.61-1.5,2.717-1.665,3.438S64.54,295.6,64.54,295.6a38.486,38.486,0,0,1,2.442,4.9c0.166,0.909,2,4.637,2.22,5.58s2.053,6.1,2.22,6.6a13.022,13.022,0,0,0,2.109,2.385c0.611,0.61.055,0.887-.111,1.608a1.137,1.137,0,0,1-.888.943c-0.166,0-2.386.554-2.553,0.554a7.436,7.436,0,0,0-1.165.61s-1.276.555-1.609,0.777a30.325,30.325,0,0,0-3.163,3.05,21.118,21.118,0,0,0-1.665,2.5,43.1,43.1,0,0,0-2.331,5.158c0,0.5-.666,5.934-0.777,6.822s-0.5,2.994-.5,3.6,0.277,4.215.277,4.215,1.11,1.165,1.387,1.387a2.084,2.084,0,0,1,.389,1l-0.888.832s-1.221.666-1.776,0.943a9.208,9.208,0,0,1-2.442.277s-2.719,0-2.941-.055-1.942-.278-1.942-0.278a18.454,18.454,0,0,1-2.109-1.663,2.684,2.684,0,0,0-.611-0.943,3.543,3.543,0,0,0-1.387-.222,5.1,5.1,0,0,0-.832.777c-0.055.166-1.554,1.608-2,2.162s-1.443,1.609-1.776,2.163a7.052,7.052,0,0,0-.722,2.552c0,0.61.833,0.942,1.221,1.331a29.493,29.493,0,0,0,2.664,1.553,7.357,7.357,0,0,1,.444,1.941s0.222,2.107.222,3.106a1.94,1.94,0,0,0,.333,1.33l3.829,0.389,3.94-.167a6.009,6.009,0,0,1,1.609,1.72c0.444,0.887-.278,1.775-0.5,2.163a7.266,7.266,0,0,0-.333,1.719,15.126,15.126,0,0,1-.555,2.274c-0.222.5-.61,1.165-0.832,1.608s-0.833,2.219-1,2.44-1.609,1.22-2.164,1.719-2.164,1.886-2.442,2.053-0.278,1.885-.278,2.385,0.944,2.551.944,2.884,0.721,3.327.721,3.327,0.222,3.383.222,3.771a4.522,4.522,0,0,1-.5,1.332,7.152,7.152,0,0,1-.832,1.275,6.435,6.435,0,0,0-.777,1.83,30.578,30.578,0,0,0,.055,3.161c0.056,0.777,1.387,2.108,1.665,2.441a28.812,28.812,0,0,1,1.72,2.385c0.721,1.109,5.549,2.994,5.993,3.272s1.443,1,1.443,1a12.245,12.245,0,0,1,.388,2.052c0,0.61.444,3.328,0.5,3.716s0.278,6.489.278,6.988a3.711,3.711,0,0,0,1.276,1.941c0.555,0.444,1.609,1.386,1.609,1.386a9.944,9.944,0,0,0-.111,2.108,6.049,6.049,0,0,0,1.054,1.83c0.333,0.5,2.941,3,3.33,3.6a12.628,12.628,0,0,0,2.442,1.886l-2.109.887-1.554,2.552s-1.11,2.052-1.276,2.384-1.387,1.886-1.554,2.108-4.162,1.331-4.439,1.442-2.83,1-2.83,1l-1.887,2.052s-2.83,5.047-2.886,5.269a14.494,14.494,0,0,1-1.554,2.44c-0.388.388-1.387-.277-1.609-0.554s-1.609-2.163-1.776-2.441-4.384-3.272-4.384-3.272-2.553-1.165-2.775-1.276a12.6,12.6,0,0,0-2.053,0l-3,1.609a15.219,15.219,0,0,0,.278,1.719c0.111,0.277,1.165,1.276,1.443,1.83a8.567,8.567,0,0,0,2,1.831,6.368,6.368,0,0,1,1.5,1.5,3.728,3.728,0,0,1-.555,1.276,5.89,5.89,0,0,1-1.276.443l-2.22.277a22.743,22.743,0,0,1-3.33-.388,11.736,11.736,0,0,1-1.887-1.442c-0.166-.166-3.108-0.776-3.662-0.943s-3.052.888-3.385,1.054a1.661,1.661,0,0,0-.333,1.11s0.111,2.329.055,2.939a7.432,7.432,0,0,1-.389,1.941,2.261,2.261,0,0,1-.777.555s-3.44.055-3.718,0.055-4.162.5-4.828,0.555-3.274,1.719-3.441,1.719-1.332,1.608-1.5,1.719a12.5,12.5,0,0,1-2,.056,5.436,5.436,0,0,1-1.665-1.331c-0.111-.444-1-2.552-1-2.552l-2.053.777a18.1,18.1,0,0,0-.555,2.5c-0.056.777,1.5,3.162,1.609,3.5s1.054,5.823,1.054,5.823a9.035,9.035,0,0,1,.888,2.607c0,0.832,3.052,6.489,3.052,6.821s0.278,8.486.278,9.151,0.444,2.607.444,3.439a16.053,16.053,0,0,0,1.332,3.549l1.054,1.331a46.666,46.666,0,0,1,4.995,1.553c0.056,0.222.388,1.109,0.444,1.442s0.61,1.775.777,2.718,1.11,2.107,1.165,2.551,4.551,6.322,4.662,6.489,2.053,1.719,2.553,2.274a19.442,19.442,0,0,0,2.386,1.774l0.832,2.108s0.666,3.494.721,4.16,1.942,3.438,2.164,3.826a6.7,6.7,0,0,1,0,2.108c0,0.277.555,1.608,0.777,2.44s2.053,1.941,2.386,2.107,4,1.942,4.273,2.053,3.385,1.442,3.385,1.442l1.609,0.776v1.22a3.34,3.34,0,0,0,.278.887l2.22,1.221a5.425,5.425,0,0,0-.277,1.053,4.735,4.735,0,0,0,.693,1.221l1.693,3.1,0.61,2.163a37.061,37.061,0,0,0-2.22,3.106c-0.278.61,0.222,2.607,0.222,3s3.885,4.88,4.329,5.546a36.215,36.215,0,0,1,2.5,3.716,22.77,22.77,0,0,1-.166,3.105c-0.167.832-.167,4.715-0.222,5.38a4.854,4.854,0,0,0,1.332,2.385,2.708,2.708,0,0,0,1.11.555s5.438-.444,5.716-0.611,3.052-.887,3.219-1.275,0.888-.777.719-1.109a36.525,36.525,0,0,1,0-4.271c0-.388.058-11.868,0-12.866a19.9,19.9,0,0,1,.888-3.772c0.111-.61,2.5-3.439,2.775-3.938s2-1.941,2.413-2.5A13.573,13.573,0,0,0,71.81,545c0-.277-0.333-3.993-0.389-4.215s-0.166-3.106-.222-3.772a36.3,36.3,0,0,1-.5-4.6c0.166-.444,2-1.332,2.386-1.664s1.609-1.886,1.776-2,1.554,0.388,1.72.333,3.108-.777,3.108-0.777a23.087,23.087,0,0,0,3.5-1.275,8.92,8.92,0,0,0,1.5-2.274v-1.608s1.776-.112,2-0.112H89.9c0.277,0,4.606.721,4.994,0.777s4.939,0.555,5.327.555,4.218,0.277,4.218.277l2.053-.277s0.61-.056.777-1.553-0.222-3.438-.111-3.771,2.053-1,2.553-1.276,2.053-.721,2.164-1.109a7.062,7.062,0,0,0-.111-2.108c-0.111-.61-0.666-3.105-0.722-3.882s-0.444-3.55-.444-3.827a14.117,14.117,0,0,0-.61-2.884c-0.222-.333-1.831-0.776-2.608-1.275a23.287,23.287,0,0,1-3.5-2.662,2.939,2.939,0,0,1-.666-2,21.806,21.806,0,0,1,1.346-3.272s0.1-3.938.041-4.16-0.055-3.327,0-4.1,1.887-2,2.053-2.164a13.474,13.474,0,0,0,1.832-2.107c0.055-.333,3.107-2.329,3.107-2.329a11.027,11.027,0,0,0,1.554-2.718c0.111-.777-0.055-2.108,0-2.274s2.775-1.054,3.33-1.442,3.829-2.662,4.106-3.05,4.384-2.552,4.606-2.774a13.884,13.884,0,0,1,2.775-.388,9.8,9.8,0,0,1,1.055,2.163,26.176,26.176,0,0,0,1.054,2.94c0.166,0.5,1.387,3.827,1.554,4.326a3.1,3.1,0,0,0,1.5.942,5.184,5.184,0,0,0,2.164-1.608,9.14,9.14,0,0,0,.722-2.662c0-.277,2.164-1,2.552-1.386s2.775-.888,2.942-1.054a35.086,35.086,0,0,1,4-.333s4.551-.5,4.828-0.61,4.939-.555,4.939-0.555,7.825-2.218,8.1-2.55a6.1,6.1,0,0,0,.666-0.833,16.563,16.563,0,0,1,2.886-.832l1.72,0.278s0.777,1,.888,1.165a2.3,2.3,0,0,1-.055,1.053c-0.056.222-2.5,1.22-2.5,1.553s0.777,1.83.888,2.274,2.22,0.832,2.886.832,4-.111,4-0.111l2.053,0.61a6.57,6.57,0,0,1,.277,1.608,31.258,31.258,0,0,0,.722,3.051,11.862,11.862,0,0,0,1.887,2.717,4.6,4.6,0,0,1,1.054,1s2.775,3.272,2.775,3.494a19.582,19.582,0,0,0-.278,3.66c0.167,1,1.332,4.215,1.443,5.158s2.109,2,2.442,2.274a0.888,0.888,0,0,0,.888-0.056h2.552l1.5,1.054s0.555,2.108.61,2.662,1.721,1.83,2.22,2.218a20.894,20.894,0,0,0,2,1.11c0.166,0.111,3.94-.444,3.94-0.444l5.267-1.79,2.622,1a11.108,11.108,0,0,1,1.249,3.369c0.124,1.373,2.247.749,2.247,0.749s4.37,0.124,4.744.249a8.721,8.721,0,0,1,2.123,1.623,15.114,15.114,0,0,1,1.124,3.369c0.125,0.873,4,2.5,4.37,3.244a10.726,10.726,0,0,1,1.123,3.369c0,0.873,2.248,1.747,2.622,2.246s2.248,0.624,3.122-.125,2.247-1.747,2.247-1.747a22.771,22.771,0,0,1,2.372.749c0.5,0.249,3.5,3.993,4,4.492s2.871-.25,3.621-0.749a7.005,7.005,0,0,0,2.247-2c0.375-.749,1.5-1.872,1.373-2.371a6.728,6.728,0,0,0-1.872-2.246,58.052,58.052,0,0,1-4-4.866c-0.374-.5-3.246-4.742-3.371-5.117a21.56,21.56,0,0,1,.5-3.369l0.624-2.994,0.874,0.624,2.122,2.245,1.374,0.5,2.247-1,1.873-1.872c0.374-.374.125-1.373-0.25-2.246a7.036,7.036,0,0,1,0-2.87l4.245-1.123s2.248,0.5,2.373.873a21.155,21.155,0,0,0,2.247,2.371l2.622-.249a3.223,3.223,0,0,0,.5-2c-0.249-.748-2-2-2.5-2.62a16.569,16.569,0,0,1-1.5-4.992,17.264,17.264,0,0,1,1.373-3.743s2.872-1.372,3-1.747a8.21,8.21,0,0,1,2-1.372h1.623a36.12,36.12,0,0,1,4.744,2.5,8.69,8.69,0,0,0,2.872,1.123l5.119,0.25a28.555,28.555,0,0,1,3.121,1c0.375,0.25,5,.374,5.619.749s7.117,0.5,7.616.624,6.867,0.249,6.867.249l16.356,0.624,4.745-.749,3-2,3.5-.5s2.372,2,3,2.371,3.87-.125,3.87-0.125l4.62,1.248a19.48,19.48,0,0,1,2.122,3.494,40.852,40.852,0,0,0,1.5,3.992,4.2,4.2,0,0,1-.75,2.371c-0.749.874,0,1.622,0,2.122s0.75,4.741.75,5.615,1.623,2.745,1.623,2.745l3.621,0.125a36.27,36.27,0,0,1,3.5-1.248,7.716,7.716,0,0,1,2.247,2.246,23.746,23.746,0,0,0,2.747,2.5l1.5,1.621,0.125,3.619,0.125,2.5,2.622,1h6.617l4.37-1.248s11.986-4.117,12.61-4.866,2.123-1.248,2.622-2.121,0.749,0.749.749,0.749a11.132,11.132,0,0,1,1.374,2.5,6.9,6.9,0,0,1-1.124,3,3.254,3.254,0,0,0-.375,2.5c0,0.5.5,2.621,0.625,3.494s2.5,2.87,2.5,2.87a31.881,31.881,0,0,1,1.248,3.743,6.448,6.448,0,0,0,2.248,2.87c0.624,0.375,3.87,3.619,3.87,3.619s3.871,9.858,4.121,10.731a74.4,74.4,0,0,1,.624,8.36c0,1.747,3.5,4.617,3.5,5.74a42.567,42.567,0,0,1-.749,4.742,17.8,17.8,0,0,0,2.871-.375,13.078,13.078,0,0,0,1.5-.624s1.5-3.743,1.5-4.117,1.873-1.248,1.873-1.248l2.5,0.749a23.123,23.123,0,0,1,1,3.619c0,0.748,1.123,5.115.874,6.238s1.5,1.248,1.5,1.248h11.861l6.867-.25a16.883,16.883,0,0,1,2.123,2.122c0.125,0.374,6.243,5.49,6.617,5.865a22.851,22.851,0,0,1,1.873,3.119,10.327,10.327,0,0,0,3,3.494,10.906,10.906,0,0,1,3,3.369c0.125,0.375,2.747,1.622,3.121,1.871a8.831,8.831,0,0,0,3.5-.249,32.325,32.325,0,0,1,3.5-.5l3.122,0.5s1.748,1.872,2,2.246a30.458,30.458,0,0,1,1.873,3.993c0.25,0.873,2.5,2.371,2.747,2.746s2.5,0.249,2.872,0a10.932,10.932,0,0,0,1.873-3c0-.375,3.121-2.371,3.121-2.371l4.62-1.248,4.494-.749,2.123-2.62,1.623-2.246a46.928,46.928,0,0,0,5.369-2.011,30.876,30.876,0,0,1,3-1.858l11.987-6.613s4.494-2.121,4.994-2.37,4.37,0.124,4.37.124,6.992,0.874,7.366.874,4.87,1.871,4.87,1.871a36.344,36.344,0,0,1,3,3.494c0.5,0.874,3.246,4.478,3.246,4.478l5-.11s8.739,0.249,9.988,0,6.617-1,6.992-1.248a28.145,28.145,0,0,1,3.745-.749s3.621-.749,4.121-1.247a1.71,1.71,0,0,0,.249-1.873,10.249,10.249,0,0,0-2.372-2.37,30.455,30.455,0,0,1-5.868-10.232c-0.125-.624,2.122-1.623,2.622-2.371s3.5-4.242,3.5-4.242,2.622-3.744,2.872-4.243a30.281,30.281,0,0,0,.749-3.494,19.644,19.644,0,0,1,.806-2c-0.067.374,3.564,0.623,4.188,0.748s2.372,0.749,2.372.749,5.406,1.474,5.629,1.585,5.438,1.386,5.66,1.5,8.1,1.553,8.38,1.719,3.829,0.444,4,.61a20.17,20.17,0,0,1,1.887,1.5c0.222,0.333,2.719,7.1,2.886,7.487s1.664,2.44,1.775,2.718,5.494,2,5.494,2,4.5,0.111,4.662.055,5.549-.388,5.549-0.388,3.607-3.216,4-3.549,5.272-2.108,5.716-2.274,3.662-1,4-1,3.718,0.5,4.773.721,4.883,0.222,5.66.277,5.605,0.444,5.605.444,5.05,1.5,5.217,1.664,1.942,1.885,2.275,2.163,2.22,1.275,2.22,1.275,6.992,0.166,8.268.056,6.659-.722,7.27-0.777,6.049-1.22,6.548-1.386,4.107-.721,5.328-1.442a12.089,12.089,0,0,0,3.218-2.663c0.278-.554,6.438-4.215,6.6-4.492s4.994-4.326,5.272-4.77a24.993,24.993,0,0,0,2.5-3.993c0.278-1,1.831-3.66,2-4.159s4.162-2.385,4.162-2.385l3.885-.555,3.5,0.444s4,0.222,4.162.277a20.06,20.06,0,0,0,2.83.222,8.055,8.055,0,0,0,2.275-2.273,20.734,20.734,0,0,1,1.61-1.831,15.249,15.249,0,0,1,2.663-.222s2.331,0.832,2.553.943,4.717,0.277,6.6.277a35.854,35.854,0,0,0,4.218-.332,6.032,6.032,0,0,0,1.664-1.22c0.056-.333.777-3.827,0.777-3.827a42.667,42.667,0,0,1,2.775-3.661,8.1,8.1,0,0,0,1.554-.721c0.166-.221,2.442-1.552,2.442-1.885a5.612,5.612,0,0,0-.666-2.218c-0.444-.722-1.166-1.387-1.443-1.886a25.07,25.07,0,0,1-.888-2.884l-0.055-12.756s0.776-4.991.943-5.435,1.276-3.66,1.332-3.937,0-1.942,0-2.441-1.721-1.941-1.943-2.274a20.386,20.386,0,0,0-3.107-2,5.9,5.9,0,0,1-1.776-1.219,12.483,12.483,0,0,1-.944-3.051c-0.166-.943.611-2.052,0.666-2.828s2.22-4.493,2.387-5.38,3.829-4.381,3.829-4.381,6.936-5.547,7.6-6.212,4.163-2.551,4.551-2.884,4.384,0.111,4.606.166,5.549,0,6.548,0a10.822,10.822,0,0,0,2.608-.388c0.333-.111,5.05-1.608,5.383-1.775s5.439-.166,5.439-0.166,4.051,1.941,4.162,2.107,4.273,4.16,4.439,4.493,6.438,6.045,6.438,6.045,4.384,5.657,5.438,6.877,7.381,5.158,8.158,6.434,2.941,3.771,3.107,4.1,5.55,2,5.938,2.107a10.973,10.973,0,0,0,2.553-.721,46.574,46.574,0,0,0,4.828-1.442c1.054-.5,5.605-1.941,5.993-2.218s3.829,0.222,3.829.222,7.381,0.5,7.548.5,2.386-.167,2.885-0.277a26.051,26.051,0,0,1,3.608.11,4.408,4.408,0,0,1,1.22.444s1.554,0.721,1.776.887a23.12,23.12,0,0,1,2.608,3.883c0.444,1.054,2,2.606,2.442,3.549s2.719,1.386,3.5,1.608a3.121,3.121,0,0,0,2.775-.942c0.888-.832,2.442-1.886,2.775-2.385s1.887-1.553,2.164-2.052,1.443-1.83,1.554-2.219,2.22-3.494,2.275-3.937a34.222,34.222,0,0,1,2.109-3.661l4.911-7.4a14.893,14.893,0,0,0,1.748-1.622c0.083-.25.666-1.955,0.708-2.08s1.623-2.079,1.623-2.079h1a20.008,20.008,0,0,1,1.207,1.83c0.125,0.333,1.04,1.747,1.207,2.329s1.373,2.5,1.54,3.036A37.723,37.723,0,0,0,907.218,489c0.125,0.208,1.124,3.078,1.124,3.078s0.229,3.91.229,3.993-0.354,1.768-.354,1.851a25.531,25.531,0,0,0,1,2.475,10.826,10.826,0,0,1,1.124,2.184c0.041,0.416.77,1.767,0.77,2s1.977,5.6,2.143,6.094,1.54,5.449,1.457,5.74,0.374,4.742.374,4.742,0.417,5.865.541,6.115a23.734,23.734,0,0,0,.916,2.287,3.676,3.676,0,0,1-.166,2.039,11.292,11.292,0,0,1-1.041.831s-4.12,1.082-4.245,1.123-4.745,1.207-4.911,1.29a27.833,27.833,0,0,0-2.29,1.747c-0.166.208-2.039,4.035-2.289,4.659a6.649,6.649,0,0,0,.375,2.745c0.083,0.208,1.415,1.539,1.457,1.705a20.39,20.39,0,0,0,1.831,1.623s6.243,6.7,6.451,6.946a58.7,58.7,0,0,1,3.912,5.574c0.209,0.707,1.54,2.953,1.54,3.078a12.244,12.244,0,0,1-.624,2.329c-0.208.291-.458,1.955-0.749,2.413s-2.705,2.911-3.08,3.369-0.042,2.038-.042,2.537,1.207,1,1.415,1.165a5.212,5.212,0,0,0,1.749-.333,7.843,7.843,0,0,0,.957-1.5c0.083-.375,1.623-3.2,1.623-3.2l1.207-4.908s0.541-4.077.541-4.285,0.541-1.081.541-1.206a27.4,27.4,0,0,1,3-.915l9.489-3.078,2.83-.749,1-1.456,4.662-10.149s2-4.409,2-4.825a23.667,23.667,0,0,1,1.332-3.577c0.249-.5-0.25-10.066-0.333-10.4s0.416-6.822.416-6.822l-1-10.066s-0.25-17.387-.25-17.636,0.333-4.077.25-4.825-1.665-5.491-1.665-5.491-1.193-8.291-1.415-8.79-0.777-4.1-.777-4.1l-0.277-15.751s-0.278-3.439-.333-3.66-1.11-3.273-1.11-3.273-6.826-8.818-6.937-8.984-2.5-3.55-2.5-3.55-3.274-4.381-3.385-4.547-2.942-4.216-3-4.382-3-3.771-3-4.215-3.329-6.544-3.329-6.544l-1.915-6.434-0.721-3.355-1.027-1.941-1.54-1.352-5.244-2.33a17,17,0,0,1-2.477-2.308c-0.208-.5-0.79-1.31-0.894-1.726s-0.125-2.142-.167-2.2-1.186-.873-1.311-0.957-1.6-.415-1.727-0.519a18.9,18.9,0,0,0-1.977-.042c-0.416-.042-3.392-0.187-3.392-0.187s-3.351-.25-3.413-0.25-3.371-.52-3.371-0.52-3.559.208-4.038,0.791-3.85,3.452-4.037,3.681a3.3,3.3,0,0,0-.333,1.227c0,0.166,1.623,3.224,1.707,3.452a20.1,20.1,0,0,0,2.892,2.08c0.5,0.271.063,1.56,0.021,1.685s-2.539,2-2.643,2.079-2.435,2.684-2.726,2.975a3.435,3.435,0,0,1-2.039.686c-0.312-.187-0.958.083-1.291-0.166a3.639,3.639,0,0,1-1.435-1.519,5.84,5.84,0,0,1,.249-2.059,16.861,16.861,0,0,0-.52-1.851,20.02,20.02,0,0,0-2.7-.083,16.519,16.519,0,0,0-1.228,1.331,5.525,5.525,0,0,0,.1,1.165,7.935,7.935,0,0,0,.957,1.31,18.788,18.788,0,0,1-1.852,1.706,2.317,2.317,0,0,1-.666-0.519,19.906,19.906,0,0,1-2.227-1.561c-0.02-.167-1.768-2.309-2.018-2.683a5.94,5.94,0,0,0-2.081-.853c-0.083,0-2.685.853-2.747,0.894l-3.434,2.267-2.768,1.768s-1.789.187-1.852,0.167-2.5-.416-2.622-0.5a7.587,7.587,0,0,1-.895-1.539c0-.145-0.083-3.265-0.083-3.265l1.353-3.515s2.247-11.729,2.247-11.979,0.583-2.579.791-3.868,0.791-3.744.791-4.326-0.458-3.619-.5-3.91-0.79-8.819-.832-9.359-0.5-3-.583-3.578a28.371,28.371,0,0,1,.916-4.118s1.581-4.991,1.706-5.573a21.484,21.484,0,0,0,.874-2.912c0-.665.208-2.787,0.125-3s-2.164-3.619-2.247-3.951-0.541-.957-1.124-2.122a5.92,5.92,0,0,1-.708-2.246,7.079,7.079,0,0,1,.75-1.83c0.124-.333.749-3.785,0.874-4.2a12.726,12.726,0,0,0,.666-3.37,3.247,3.247,0,0,0-.375-1.83s-0.916-3.452-.957-4.2-0.125-1.5-.125-1.955,1.914-2.579,1.914-2.579,4.7-6.281,4.787-6.655,4.786-6.2,4.786-6.2,4.62-3.244,4.787-3.327,1.581-.832,1.581-1.165,0.167-2.62.167-2.953a1.414,1.414,0,0,1,.79-0.666l5.494-2.579s3.33-1.539,3.205-1.747-0.374-2.662-.5-2.994a2.74,2.74,0,0,1,1.332-1.872c0.707-.375,2.663-1,3.329-1.373a0.923,0.923,0,0,0,.624-1.123c-0.124-.291-0.624-2.7-0.707-2.828a15.433,15.433,0,0,1-1.249-2.621c0-.374.375-1.83,0.375-2a11.705,11.705,0,0,1,1.124-1.5l9.9-5.407a38.263,38.263,0,0,0,3.372-2.039,7.662,7.662,0,0,1,2.455-.79l1.748,0.915s0.042,1.373,0,1.539-0.749,2.5-.749,2.745,0.291,2.5.291,2.5a23.374,23.374,0,0,0,2.664.25,1.061,1.061,0,0,0,1-1.082c0.125-.665.791-2.579,0.832-2.911s1.166-4.492,1.291-5.491,1.373-4.492,1.373-4.742,4.162-6.239,4.287-6.364,2.872-3.452,2.872-3.452a2.659,2.659,0,0,0-.291-1.165,2.353,2.353,0,0,0-1.582-.5s-1.457,1.414-1.5,1.539a21.274,21.274,0,0,1-2,1.206s-1.707.083-2.04-.749-1.415-2.079-1.664-2.745-4.079-6.322-4.079-6.322L895.9,221s-1.5-3.328-1.887-4.437a7.7,7.7,0,0,1-.277-2.829c0-.72,1.5-2.662,1.5-2.662l3.663-6.6,2.775-3.772,2.22-2.717,2.83-.389s2.219,3.051,2.386,3.383,4.384,3.5,4.384,3.5H916.6c0.166,0,2.053-.333,2.053-0.333s-2.386-9.817-2.553-10.094-1.332-4.492-1.5-4.881,0.555-2.884.555-3.217a10.3,10.3,0,0,1,.444-1.608l-1.249-2.44-4.856-4.686s-1.553-1.026-1.748-1.248a17.258,17.258,0,0,1-1.165-1.83,10.276,10.276,0,0,1,0-2.08s3.468-6.96,3.468-7.044,1.193-3.05,1.193-3.05l2.442-.249,3.08,0.3,1.11,0.554,0.555,0.721s0.388,2.024,0,2.635-1.5,2.5-1.5,2.5-0.333,1.941-.333,2.274,2.108,2.107,2.941,3.494,5.327,3.882,5.605,4.1,2.719,2.052,2.719,2.052,1.776,2.163,1.831,3,0.666,8.929.611,9.428-0.888,3.938-.888,3.938l2.719,8.042,6.937,21.463s2.275,5.491,3,7.432,1.61,3.882,1.61,5.158-0.888,6.766-.888,6.766a9.143,9.143,0,0,0-.056,2.662c0.222,0.943,2.054,2.329,2.5,2.828a20.465,20.465,0,0,1,2.5,3.106,17.5,17.5,0,0,1,.555,3.716c-0.111.832,0.277,5.047,0.166,6.323s2.664,3.272,3,4.159,4.273,2.939,4.273,2.939,5.327,4.826,5.494,5.713,2.774,3.66,2.83,3.882a38.182,38.182,0,0,0,4.218,1.775s12.652,6.6,12.93,6.711,9.434,4.159,9.434,4.159l16.7,7.543,7.05,3.826,2.22-.166A10.869,10.869,0,0,0,1016.6,301.754ZM8.3,259.105c1.165,1.581,2.83,6.489,3.33,7.238s1.582,1.331,2.164,2.163a8.9,8.9,0,0,0,2,2c0.416,0.25,2.58-.166,3.5,0a2.968,2.968,0,0,0,2-.831s1.914-2.33,2.081-2.579,0.583-2.247,0-3-4.329-3.244-4.412-4.076a10.419,10.419,0,0,0-1.332-2.745s-2.5,1.331-3.08,1-2.248-.832-2.664-1.664a28.194,28.194,0,0,0-2.913-3.66,13.046,13.046,0,0,0-2.83-1.747c-0.416-.083-2.58.083-2.83,0.748s-0.916,1.865,0,2.805S7.132,257.525,8.3,259.105Zm378.276-158.95a2.958,2.958,0,0,0-1.554,1.442c0,0.167.444,1.109,0.555,1.719s1.609,0.5,1.942.444,3.163-.444,3.163-0.444l6.326-1.053,1.055-.888-0.278-3.05-0.222-1.664a8.083,8.083,0,0,0-1.664,0,18.931,18.931,0,0,0-3.663,1.664C391.678,98.824,387.516,99.767,386.573,100.155Zm-1.554-5.767a27.125,27.125,0,0,1,3,.222c0.222,0.111.833,0.721,1,.749s1.832,0.471,1.832.471l3.385-.943s1.443-1.053,1.332-1.275a2.064,2.064,0,0,0-1.332-.416,25.073,25.073,0,0,1-3.774-1.525,27.088,27.088,0,0,0-3.441-1.109,9.354,9.354,0,0,0-2.33.943,6.245,6.245,0,0,0-1.055,2.385C383.742,94.388,384.8,94.388,385.019,94.388Zm29.287,4.6a22.325,22.325,0,0,0,2.663.471,11.462,11.462,0,0,0,2.081,0l1.665-1,0.208-.647s-0.166-1.017-.208-1.2a3.914,3.914,0,0,0-1.29-.478s-1.457-.041-1.582,0-4.411.874-4.578,1a3.033,3.033,0,0,0-.874.915A14.444,14.444,0,0,0,414.306,98.991Zm-4.62,8.25,1.581,0.415,2.623-.332,1.165-.749,1.373-1.456a6.694,6.694,0,0,0,.5-1.539,1.31,1.31,0,0,0-.5-0.79c-0.208-.125-2.33-1-2.83-1.206a23.122,23.122,0,0,0-3.038-.624,5.428,5.428,0,0,0-1.54.624c-0.125.166-.291,1.164-0.416,1.455a7.972,7.972,0,0,0,.374,1.664C408.978,104.994,409.686,107.241,409.686,107.241Zm8.449,3.036a6.644,6.644,0,0,1-.957,1.04c-0.25.124,0,1.455,0,1.83a5.893,5.893,0,0,0,1,1.5,0.665,0.665,0,0,0,.791.208c0.208-.083,1.915-0.915,2.206-1.039a14.259,14.259,0,0,0,1.415-1.041l0.541-.915v-1.039a1.543,1.543,0,0,0-.749-0.957,5.736,5.736,0,0,0-1.873-.458Zm-4.7.624a3.021,3.021,0,0,0-1.332-.125,17.049,17.049,0,0,0-2.04.832,9.136,9.136,0,0,0-.5,1.664,1.336,1.336,0,0,0,.666.748h1.248l1.957-.748,0.957-.541a0.908,0.908,0,0,0,0-.579A9.363,9.363,0,0,0,413.432,110.9Zm15.025,3.119a3.064,3.064,0,0,1,1.04.708,22.181,22.181,0,0,0,2.331-.333c0.291-.125,1.665-0.708,1.665-0.708a16.08,16.08,0,0,0,1.457-.915,4.168,4.168,0,0,0,.582-1.621c-0.083-.458.083-0.916,0-1.207a3.467,3.467,0,0,0-1.5-.541s-1.082-.041-1.29,0-2.081.458-2.331,0.5-1.831.582-1.831,0.582-2.04,1.456-2.206,1.667a1.381,1.381,0,0,0,.208.953A4.906,4.906,0,0,0,428.457,114.02ZM508.743,136.4c0.582,0.831,2.289.915,2.539,0.873s5.785-2.08,5.951-2.246,1.332-1.372,1.624-1.622,0.083-2.08,0-2.5-1-2.87-1-2.87-2.373-5.324-2.914-6.489a4.124,4.124,0,0,0-2.254-2.121,1.365,1.365,0,0,0-1.7.457,20.707,20.707,0,0,0-2.081,2.5,40.992,40.992,0,0,0-2.414,6.738,20.612,20.612,0,0,0,0,4.243C506.537,134.236,508.16,135.567,508.743,136.4Zm4.463,4.617a6.886,6.886,0,0,0-.967,2.163,32.661,32.661,0,0,0-.541,3.244,23.569,23.569,0,0,0,.791,4.784c0.416,2.079,1.04,2.745,1.165,2.828s3.08,1,3.33,1.123,8.074,1.082,8.074,1.082l2.039-.583s0.375-1.871.375-2.121V145.55a23.224,23.224,0,0,0,0-3.411c-0.166-.167-0.666-1.539-1-2.038s-3.288-1.539-3.413-1.539-6.576.873-7.2,1.165A22.154,22.154,0,0,0,513.206,141.016Zm19.427,27.161a5.843,5.843,0,0,0,2.414-1.289c0.333-.208,4.828-2.2,4.828-2.2s4.828-2.621,4.786-2.746a9.841,9.841,0,0,0,2.331-1.7,5.053,5.053,0,0,0-.208-1.872c0-.25-1.249-3.411-1.457-3.993a6.9,6.9,0,0,0-1.165-1.581s-2.83-.374-2.955-0.374a7.808,7.808,0,0,1-1.582-1.04c-0.291-.291-1-1.373-1.124-1.456s-2.663-.79-2.663-0.79a12.141,12.141,0,0,0-1.832,1.123,9.666,9.666,0,0,0-.707,1.705,13.755,13.755,0,0,0,.083,2.163,22.975,22.975,0,0,1-.458,3.286c-0.166.832-.79,3.286-1.082,4.534s-1.54,5.449-1.581,5.948S531.218,168.51,532.633,168.177Zm174.89-6.7c-0.292.041-3.829,0.333-4.121,0.374a13.638,13.638,0,0,0-2.539,1.5,16.5,16.5,0,0,0-.666,2.121,23.881,23.881,0,0,0,.666,3.494,3.208,3.208,0,0,0,.791.748s3.122-1.663,4.162-2.246,3.33-2.37,3.33-2.37l0.915-1.373a14.072,14.072,0,0,0,1.249-.874,3.1,3.1,0,0,0-.25-1.372A33.079,33.079,0,0,0,707.523,161.481Zm-34.379-7.9s2.206,2.454,2.331,2.662a24.161,24.161,0,0,0,3.829.832,37.564,37.564,0,0,0,3.7-1.04c0.125-.125,2.289-1.248,2.331-1.373s1.373-1.331,1.373-1.331l2.789-3.244s2.372-3.328,2.456-3.578a4.6,4.6,0,0,1,1.123-.873,9.758,9.758,0,0,0-.5-1.872c-0.25-.457-2.123-0.333-2.331-0.457s-2.456-.541-2.955-0.791a22.23,22.23,0,0,1-2.83-1.5,4.156,4.156,0,0,1-.042-1.747c0-.167-0.041-2.787-0.041-2.787l-0.874-.541-1.832.25s-0.083,1.165-.083,1.747,0.125,2.371.083,2.662a8.244,8.244,0,0,1-.458,1.747,12.912,12.912,0,0,1-3.2.749,26.77,26.77,0,0,1-2.872-.416,7.447,7.447,0,0,0-2.581.416,2.214,2.214,0,0,0-.707,1.164c-0.125.374-.416,2.537-0.541,2.912a27.671,27.671,0,0,0,1.373,4.2Zm17.439-12.77a9.147,9.147,0,0,0,3.33.749,1.156,1.156,0,0,0,.749-0.708,6.512,6.512,0,0,0,.25-1.7c0-.249.041-1.5,0-1.705s-1-2.413-1-2.413-0.791-2.288-.833-2.2-1.623-.042-2.194,0a10.7,10.7,0,0,0-3.05,1.039,4.895,4.895,0,0,0-.916,2.08c-0.333,1,.5,2,0.666,2.355A29.158,29.158,0,0,0,690.583,140.808Zm10.988-8.9,2.747-.208,4.245-.582,4.121-1.164a8.957,8.957,0,0,0,1.373-.583,4.192,4.192,0,0,0,.541-0.957,11.767,11.767,0,0,0,.458-1.913,18.7,18.7,0,0,0,.291-2.828,3.759,3.759,0,0,0-.624-1.956c-0.291-.374-1.623.417-1.623,0.417s-2,.873-2.331,1.081-3.038,1.456-3.288,1.622-3.163,1.706-4.245,2.33-2.622,1.414-3.08,2.37a1.237,1.237,0,0,0,.25,1.581A5.7,5.7,0,0,0,701.571,131.906ZM826.613,36.625A12.639,12.639,0,0,0,828,39.232a2.593,2.593,0,0,0,2.331.722,1.259,1.259,0,0,0,.749-1.054,34.156,34.156,0,0,0,1.11-3.3c0.222-.97.278-1.553,0.361-1.747s0-3.244,0-3.244a19.1,19.1,0,0,0,.388-2.579,2.923,2.923,0,0,0-.527-1.608c-0.388-.36-1.415.222-1.415,0.222s-2.941,1.525-3.968,2.163a7.877,7.877,0,0,0-2.22,1.8c-0.61.749-.055,1.72,0,2.413S826.141,35.627,826.613,36.625ZM979.888,444.454c-1.249-1-4.912-.748-5.245-1.248s-4.162-.832-5.827-1.913-3.579-.749-4.5-1.913a13.77,13.77,0,0,1-2.33-3.411c-0.583-1.414-2.165-4.992-2.248-5.241s-3.246-6.323-4.007-7.405-0.321-2.994.012-4.325a6.973,6.973,0,0,0,0-2.413,12.255,12.255,0,0,1,1.082-1.414l3.829-3a25.415,25.415,0,0,0-1.5-2.329c-0.333-.333-4.163-2.33-5.827-3.494s-3.413-2.33-5.827-3.993-7.575-3.162-10.822-4.326a37.875,37.875,0,0,1-7.574-3.245c-1.749-1.164-2-1.081-2.581-1.913a45.678,45.678,0,0,0-2.5-4.076c-1.332-1.747-3.413-2.579-5.577-4.742a54.378,54.378,0,0,1-5.161-5.907c-1.665-2.163-3.413-4.159-4.579-6.073A15.4,15.4,0,0,0,905.637,368c-0.916-.666-3.164,0-3.164,0a19.277,19.277,0,0,0,0,2.246c0.084,0.665,1.5,1.581,2.081,1.747a14,14,0,0,1,3.58,3,27.967,27.967,0,0,1,1.165,3.161,8.381,8.381,0,0,1-.333,3.161c-0.333.749-.916,1.83-1.248,2.5s0.5,2.329,1.248,3.827a83.025,83.025,0,0,0,7.991,10.4c1.748,1.663,4.662,2.745,5.661,3.494s6.076,2.08,7.075,2.662a56.448,56.448,0,0,1,5,4.492,12.426,12.426,0,0,1,1.831,3.494c0.25,1,3.5,4.326,4.412,5.823s3.163,3.744,3.746,4.992,5.077,3.827,6.492,5.407A12.836,12.836,0,0,1,954,433.473c0.582,1.914,2.5,3,3.163,4.243s3.662,3,4.661,4.742,2.581,4.825,2.914,5.49,3.163,3.411,3.413,3.91,2.913,5.657,4,6.156a26.82,26.82,0,0,0,5.161,1.248c0.5,0,1.582-.416,1.582-0.832a8.282,8.282,0,0,0-.916-1.58c-0.25-.583-1.831-1.581-2.414-3.161s0.167-1.831.916-2.58,1.5-.332,1.831-1.746,0.749-.749.749-0.749l4.162,0.5,2,2a4.219,4.219,0,0,0,1.582-.665c0.416-.416,1.165-0.666,1.248-1.414s-1.415-1.831-1.665-2.746S981.136,445.452,979.888,444.454Zm39.542-118.463a21.105,21.105,0,0,1,1.5,2.551c0.27,0.776,1.44,2,1.38,2.5s-0.94,2.218-.94,2.717a32.1,32.1,0,0,0,1.44,4.27,3.074,3.074,0,0,0,2.59.721,7.667,7.667,0,0,0,3.29-2.994c0.23-.611,1-2,1-2.163a8.368,8.368,0,0,0-.61-2,2.2,2.2,0,0,0-1.22-.721s-1.11-2.274-1.23-2.44a22.911,22.911,0,0,1,.23-2.385,9.4,9.4,0,0,0-.23-2.052c-0.12-.278-1.04-2.385-1.21-2.718s0.94-2.5,1-2.884a20.391,20.391,0,0,1,1.44-2.606,8.347,8.347,0,0,0-.5-0.943c-0.27-.444-1.94-0.61-2.55-1s-4.77.388-4.77,0.388a27.4,27.4,0,0,0-3.83,2.385,2.97,2.97,0,0,0-.45,2.329c0.06,0.721,2.39,1.442,2.55,1.8a11.417,11.417,0,0,1,.01,2.8C1018.26,324.6,1018.98,325.214,1019.43,325.991Zm7.07,20.464a18.59,18.59,0,0,0-.75,2.5c0,0.333,2.5,1.581,2.5,1.581h3.58l3.5-2a10.988,10.988,0,0,0,.41-1.747c0-.416-0.5-3.244-0.5-3.244h-5.55S1026.75,345.707,1026.5,346.455Zm6.02,28.174s1.34,2.884,1.34,3.106a5.128,5.128,0,0,1-.5,1.442,4.652,4.652,0,0,0-.23,2.33c0.12,0.665,1.89.443,2.22,0.277s3.22-.776,4.12-1.22,0.49-.943.38-1.165,0.11-1.331,0-1.719-0.89-2.108-.94-2.5a5.847,5.847,0,0,0-.89-1.608,15.511,15.511,0,0,0-2.28-1.553C1035.08,371.634,1032.69,374.463,1032.52,374.629Zm10.46,21.824c-0.25-.249.09-1.165,0-1.747s-1.58-1.414-2.08-2a21.989,21.989,0,0,0-2.33-1.914l-5.08,1.5s-1.16,4.493-1.33,5.408a43.549,43.549,0,0,1-1.75,3.993,5.878,5.878,0,0,0,.5,3.994c0.42,0.914,1.61,3.576,1.61,3.576s2.14-.083,2.89-0.748,0.33-1.747.87-2.5a11.633,11.633,0,0,0,1.46-2.579,7.141,7.141,0,0,0,.17-3.744,1.391,1.391,0,0,1,.34-1.746c0.34-.416,2.4,0,2.4,0S1043.23,396.7,1042.98,396.453Zm-7.4,20.992a11.108,11.108,0,0,0-1.89-3.494c-0.94-1.109-4.94,0-4.94,0s-2.89,3.66-3.27,4.381c0,0-.95,1.553-1.28,1.942a8.41,8.41,0,0,0-1.11,2.5,44.451,44.451,0,0,0-1.78,4.6c-0.27,1.442,2.39,2.219,2.89,2.829s5.77-1.22,7.88-1.83,0.5-.888.44-2.219a24.431,24.431,0,0,0-.33-3.272c-0.17-1.053-.17-1.109,2.89-3.217S1035.91,418.443,1035.58,417.445Zm-5.36,21.435c-0.61-.166-2.39.832-3.22,0.973a14,14,0,0,1-4.08.026c-1.41-.25-1.99,1.414-2.24,1.913a60.274,60.274,0,0,0-1.92,6.239c-0.08.749,5,4.16,5.66,4.992s3.5,2.246,4.56,1.58,1.52-2.163,1.24-2.412a20.242,20.242,0,0,0-.8-3.91c-0.59-1.664-1.17-2.246-1.17-3.245s0.92-1.247,1.97-2a3.443,3.443,0,0,0,1.53-2.746A2,2,0,0,0,1030.22,438.88ZM351,222.168l-7.159,4.493s-0.166,6.156,0,6.988,0.5,4.658,1,5.823a9.735,9.735,0,0,1,.5,4.16c-0.166.665-2.83,3.161-3.329,3.493s-10.156,1.332-10.156,1.332-4.661-1.831-4.828-3.661-2-3,0-5.49a10.294,10.294,0,0,0,2.664-5.824,10.14,10.14,0,0,0-.666-4.492c-0.333-.5-4-2.662-4.328-3.66s-2.331-.666-1.166-3.162,2.83-6.156,3.33-6.488a5.6,5.6,0,0,1,2.5-1.664c1.665-.5,7.727-2.829,7.727-2.829s2.262-4.326,3.594-4.492,1.665-1.83,6.16,0,7.824,5.491,8.99,6.655a4.116,4.116,0,0,1,1.165,3.328c0,1-2.83,3.494-2.83,3.494Zm29.634-26.454-5.328,2.163s-2.164,3.494-2.5,3.993-9.989,6.322-9.989,6.322h-3a44.874,44.874,0,0,1-4.5-2.349c-0.832-.645-4.661-2.309-4.828-2.975s1.5-5.491,4.662-7.154a94.916,94.916,0,0,0,9.156-5.158c1.5-1.165,8.824-5.158,9.656-5.99a35.933,35.933,0,0,1,3.663-2.662s11.321-1.331,12.653-1.331,13.651-1.5,14.983-1.5,7.325,0.333,8.324,0,7.159-2.33,7.825-2.33,3.329,2.163,3.662,3.328a12.715,12.715,0,0,1,0,3.66s-7.491,3-8.157,3.162-10.822.166-14.318,1.5-12.153,3-12.652,3.328S380.635,195.714,380.635,195.714Z"/>
</svg>
