<svg xmlns="http://www.w3.org/2000/svg" viewBox="0 0 575.04 280.04"><defs><style>.cls-1{fill:#02cfa6;}</style></defs><title>car</title><g id="Layer_2" data-name="Layer 2"><g id="Layer_1-2" data-name="Layer 1"><g id="surface1"><path class="cls-1" d="M335.44,105.43H297.11V86.25h38.33Z"/><path class="cls-1" d="M0,67.09v77.63a36.24,36.24,0,0,0,22.9,33.82l31,12.46a9.72,9.72,0,0,0,3.57.68H61a57.29,57.29,0,0,0,108.13,0H425.14a57.29,57.29,0,0,0,108.13,0h32.18a9.59,9.59,0,0,0,9.59-9.59v-56.9a43.76,43.76,0,0,0-22-37.89A226.37,226.37,0,0,0,443.46,57.59L410.61,39.67A325.83,325.83,0,0,0,255.05,0H243.74A322.72,322.72,0,0,0,110.22,28.75,329.14,329.14,0,0,0,73.33,48.3L8.22,57.6A9.59,9.59,0,0,0,0,67.09ZM440.87,172.51a38.3,38.3,0,1,1,.77,7.67A38.33,38.33,0,0,1,440.87,172.51ZM268.35,76.67H440.87a207.17,207.17,0,0,1,102.67,27.27,24.51,24.51,0,0,1,12.33,21.25v47.32H536.71a57.51,57.51,0,0,0-115,0H268.35Zm0-57.08A306.36,306.36,0,0,1,401.43,56.5l1.85,1H268.35ZM249.19,57.51H147.73L131,40.77a303.34,303.34,0,0,1,112.77-21.6h5.43Zm-172.52,115a38.35,38.35,0,1,1,.78,7.67A38,38,0,0,1,76.67,172.51ZM19.17,75.39,78,67a9.65,9.65,0,0,0,3.72-1.36A306.2,306.2,0,0,1,112.13,49L137,73.86a9.55,9.55,0,0,0,6.77,2.81H249.18V172.5h-76.7A57.55,57.55,0,0,0,115,115c-2,0-3.93.1-5.85.29-.71.07-1.39.22-2.1.32-1.19.17-2.4.31-3.58.55-.74.15-1.44.38-2.17.55-1.11.28-2.23.52-3.32.86-.82.25-1.44.52-2.4.87s-2.06.7-2.87,1-1.51.72-2.39,1.14-1.85.85-2.63,1.27-1.44.83-2.27,1.37-1.68,1-2.45,1.49-1.5,1.1-2.23,1.64-1.46,1-2.19,1.65-1.44,1.32-2.1,1.92-1.31,1.12-2,1.79-1.32,1.49-1.92,2.09-1.17,1.18-1.78,1.92-1.21,1.57-1.73,2.28-1,1.33-1.59,2.11-1.07,1.66-1.5,2.43-.94,1.47-1.39,2.29-.84,1.72-1.25,2.53-.85,1.6-1.18,2.46-.64,1.77-1,2.64-.67,1.72-1,2.61-.48,1.82-.73,2.73-.53,1.88-.72,2.75-.3,1.83-.46,2.79-.34,1.91-.44,2.87-.11,2-.17,2.88-.17,1.75-.17,2.63L30,160.73a17.14,17.14,0,0,1-10.85-16V105.43H47.92V86.25H19.17Z"/></g></g></g></svg>