<svg xmlns="http://www.w3.org/2000/svg" viewBox="0 0 244 200" width="244" height="200">
  <defs>
    <style>
      .cls-1 {
        fill: #f6bba4;
      }

      .cls-2 {
        fill: #fff;
      }
    </style>
  </defs>

      <path class="cls-1" d="M111.82,44.3v.88h15.52V29.12A15.15,15.15,0,0,0,111.83,44.3h0Zm14.94-19.7a15.08,15.08,0,0,0-3.42-5.28h0L109.51,5.45,95.69,19.32l-.11.1a15.09,15.09,0,0,0-3.32,5.17,19.61,19.61,0,0,1,17.32,10.55A19.62,19.62,0,0,1,126.76,24.6ZM87,30a15,15,0,0,0-5.51,3.53h0L69.93,45.18H87V30ZM69.93,49.69,81.5,61.31l.1.11a15.13,15.13,0,0,0,3.63,2.64,15,15,0,0,0,1.77.78V49.69ZM91.5,67.58a15.11,15.11,0,0,0,4.18,8h0l11.59,11.63.05-37.48H91.5V67.58Zm20.25,19.58,11.57-11.61.11-.1a15.1,15.1,0,0,0,3.9-7V49.69H111.81l-.05,37.47ZM131.84,64.9a14.91,14.91,0,0,0,1.94-.84,15.16,15.16,0,0,0,3.74-2.75h0l11.57-11.61H131.84V64.9Zm17.25-19.73L137.52,33.56l-.1-.11A15,15,0,0,0,131.84,30V45.18ZM130.07,21a19.66,19.66,0,0,1,1.59,4.2,19.55,19.55,0,0,1,8.91,5l.13.12,15.41,15.47a2.26,2.26,0,0,1,0,3.19L140.7,64.5h0a19.55,19.55,0,0,1-9,5.16,19.66,19.66,0,0,1-5,8.94l-.12.13L111.1,94.21a2.25,2.25,0,0,1-3.18,0L92.5,78.74h0a19.66,19.66,0,0,1-5.14-9.07,19.55,19.55,0,0,1-8.91-5l-.13-.12L62.9,49a2.26,2.26,0,0,1,0-3.19L78.32,30.37h0a19.56,19.56,0,0,1,9-5.16,19.66,19.66,0,0,1,5-8.94l.12-.13L107.92.66a2.25,2.25,0,0,1,3.18,0l15.41,15.47h0A19.68,19.68,0,0,1,130.07,21ZM91.5,45.18h15.83V44.3h0c0-.13,0-.26,0-.38h0a15.18,15.18,0,0,0-4.44-10.34A15.06,15.06,0,0,0,91.5,29.13v16Z"/>
      <path class="cls-2" d="M33.58,168.35l-.51,2.26h-.81a2.56,2.56,0,0,0-.45-1.48,1.53,1.53,0,0,0-1.23-.45,2.36,2.36,0,0,0-1.33.41,4.55,4.55,0,0,0-1.18,1.19,8.48,8.48,0,0,0-1,1.82,12.5,12.5,0,0,0-.63,2.13,10,10,0,0,0-.22,2,3.48,3.48,0,0,0,.45,2,1.61,1.61,0,0,0,1.41.64,3,3,0,0,0,1.1-.19,2.43,2.43,0,0,0,.88-.63,5.4,5.4,0,0,0,.82-1.24h.81l-.51,2.37a12.53,12.53,0,0,1-1.66.33,13.49,13.49,0,0,1-1.64.1,3.45,3.45,0,0,1-1.77-.43,2.69,2.69,0,0,1-1.1-1.24,4.67,4.67,0,0,1-.37-2,7.71,7.71,0,0,1,.09-1.16,13,13,0,0,1,.32-1.52,9.82,9.82,0,0,1,.7-1.86,8.25,8.25,0,0,1,1-1.57A5.94,5.94,0,0,1,28,168.75a5.08,5.08,0,0,1,1.27-.61,4.81,4.81,0,0,1,1.45-.22,10.37,10.37,0,0,1,1.42.09,10.19,10.19,0,0,1,1.45.33ZM41,173.09v.12a.87.87,0,0,1,0,.12,6.08,6.08,0,0,1,1.45-1.51,2.64,2.64,0,0,1,1.5-.49,1.58,1.58,0,0,1,1.22.45,1.86,1.86,0,0,1,.42,1.32,6,6,0,0,1-.17,1.28l-.71,3a4.2,4.2,0,0,0-.14.95.78.78,0,0,0,.08.39.53.53,0,0,0,.26.22,2.07,2.07,0,0,0,.58.12l-.07.41H42.77l1.06-4.23q.12-.46.21-.93a4.75,4.75,0,0,0,.09-.85,1.35,1.35,0,0,0-.21-.86.82.82,0,0,0-.66-.25,1.38,1.38,0,0,0-.74.27,3.93,3.93,0,0,0-.85.82,6.62,6.62,0,0,0-.73,1.09,5.13,5.13,0,0,0-.45,1.31l-.77,3.64H38.25l1-4.23c.12-.52.2-.9.24-1.15a3.81,3.81,0,0,0,.06-.64,1.33,1.33,0,0,0-.22-.86.83.83,0,0,0-.67-.25,1.4,1.4,0,0,0-.74.27,4,4,0,0,0-.86.84,6.3,6.3,0,0,0-.73,1.11,5.21,5.21,0,0,0-.43,1.29l-.76,3.61H33.66l1.28-5.69c0-.13.07-.32.11-.57a3.64,3.64,0,0,0,.07-.63.77.77,0,0,0-.07-.36.43.43,0,0,0-.24-.19,2.42,2.42,0,0,0-.59-.09l.1-.44,1.92-.07h.47l-.55,2.16.1,0a6.82,6.82,0,0,1,1.54-1.69,2.63,2.63,0,0,1,1.55-.55,1.6,1.6,0,0,1,1.23.45,1.85,1.85,0,0,1,.42,1.31Zm7,.18a6.07,6.07,0,0,0-.16-.88.71.71,0,0,0-.24-.38,1,1,0,0,0-.55-.15l.09-.41h2.16l.64,6.62q2.84-3.84,2.84-5.51a.67.67,0,0,0-.17-.53,1,1,0,0,0-.57-.16l.08-.41h2.17l.23.42a18.19,18.19,0,0,1-1.14,2.4q-.69,1.24-1.7,2.72t-2.23,3.06a17.94,17.94,0,0,1-1.58,1.85,5,5,0,0,1-.91.72,3,3,0,0,1-1.64.45,3.15,3.15,0,0,1-.51,0,2.79,2.79,0,0,1-.49-.12l.36-1.56h.66a.77.77,0,0,0,.13.45.43.43,0,0,0,.37.17,1.7,1.7,0,0,0,.46-.05,1.63,1.63,0,0,0,.41-.18,3.34,3.34,0,0,0,.52-.4,8,8,0,0,0,.7-.73c.26-.3.55-.66.86-1.09l-.8-6.23Zm11.29-1.72a4.58,4.58,0,0,1,.63,0,2.6,2.6,0,0,1,.51.12,2.79,2.79,0,0,1,.46.21c.15.09.3.19.47.3,0-.12,0-.27,0-.44s0-.32,0-.46a7.87,7.87,0,0,0-.09-1.2,3.39,3.39,0,0,0-.3-1,1.73,1.73,0,0,0-.57-.65,1.56,1.56,0,0,0-.89-.24,5.3,5.3,0,0,0-.74.05,4.19,4.19,0,0,0-.82.22l-.19-.6a7.65,7.65,0,0,1,1.11-.29,6.41,6.41,0,0,1,1.15-.1,2.68,2.68,0,0,1,1.23.26,2.22,2.22,0,0,1,.85.75,3.5,3.5,0,0,1,.49,1.2,7.48,7.48,0,0,1,.15,1.6c0,.18,0,.39,0,.61s0,.46-.06.7,0,.48-.08.72-.07.46-.12.67a17,17,0,0,1-.57,2.12A7.13,7.13,0,0,1,61,178a4.23,4.23,0,0,1-1.33,1.23,3.68,3.68,0,0,1-1.88.46,3.62,3.62,0,0,1-1-.13,2.23,2.23,0,0,1-.88-.47,2.44,2.44,0,0,1-.64-.9,3.59,3.59,0,0,1-.25-1.44,6,6,0,0,1,.31-1.89,5.53,5.53,0,0,1,.86-1.65A4.42,4.42,0,0,1,57.55,172a3.35,3.35,0,0,1,1.7-.44ZM57.81,179a2,2,0,0,0,1.62-.8,6.81,6.81,0,0,0,1.11-2.37,11.23,11.23,0,0,0,.28-1.13,5,5,0,0,0,.09-.87,2,2,0,0,0-.32-1.19,1.28,1.28,0,0,0-1.1-.42,2,2,0,0,0-.76.15,2.36,2.36,0,0,0-.69.45,3.61,3.61,0,0,0-.59.72,5.16,5.16,0,0,0-.46,1,8.69,8.69,0,0,0-.35,1.28,6.67,6.67,0,0,0-.12,1.28,4,4,0,0,0,.09,1,1.52,1.52,0,0,0,.27.58.87.87,0,0,0,.41.28,1.58,1.58,0,0,0,.5.08Zm6.76-7.53h2.65l-1.07,4.24q-.12.47-.21.93a4.62,4.62,0,0,0-.09.84,1.37,1.37,0,0,0,.2.85.77.77,0,0,0,.64.26,1.46,1.46,0,0,0,.78-.28,4,4,0,0,0,.89-.87,6.84,6.84,0,0,0,.75-1.11,5,5,0,0,0,.42-1.25l.76-3.61h1.46l-1.28,5.68c0,.15-.07.35-.12.59a3.38,3.38,0,0,0-.07.6.57.57,0,0,0,.2.49,1.43,1.43,0,0,0,.74.18l-.09.41H68.75l.54-2.09-.11,0A7.49,7.49,0,0,1,67.6,179a2.6,2.6,0,0,1-1.54.55,1.62,1.62,0,0,1-1.24-.45,1.84,1.84,0,0,1-.42-1.32,4.26,4.26,0,0,1,0-.59c0-.22.07-.46.13-.7l.71-3c.06-.24.09-.44.12-.58a2.67,2.67,0,0,0,0-.37.61.61,0,0,0-.2-.53,1.46,1.46,0,0,0-.72-.19l.07-.42ZM78,171.33l.71,0,.72.05.7.07.63.09-1.31,5.79c0,.21-.08.39-.1.55a2.48,2.48,0,0,0,0,.4.8.8,0,0,0,.06.34.48.48,0,0,0,.18.21.77.77,0,0,0,.3.12l.42.06-.08.41H77.53l.78-3.59H78a4.85,4.85,0,0,0-.56,0,1.2,1.2,0,0,0-.51.18,2.29,2.29,0,0,0-.53.5,6,6,0,0,0-.61,1,10.71,10.71,0,0,1-.58.94,2.83,2.83,0,0,1-.59.64,2.11,2.11,0,0,1-.68.36,2.92,2.92,0,0,1-.87.12,3.82,3.82,0,0,1-.53,0,2.22,2.22,0,0,1-.53-.13l.36-1.56H73a.89.89,0,0,0,.17.52.49.49,0,0,0,.39.15.63.63,0,0,0,.25-.05,1,1,0,0,0,.26-.2,2.75,2.75,0,0,0,.32-.38,7,7,0,0,0,.39-.63c.12-.21.24-.39.33-.54a3.11,3.11,0,0,1,.3-.38,2.23,2.23,0,0,1,.31-.29,3.38,3.38,0,0,1,.36-.25v-.07a3.18,3.18,0,0,1-.94-.27,2.15,2.15,0,0,1-.63-.45,1.6,1.6,0,0,1-.35-.57,1.77,1.77,0,0,1-.11-.62,2,2,0,0,1,.3-1.09,2.41,2.41,0,0,1,.82-.78,4.07,4.07,0,0,1,1.25-.46,7.76,7.76,0,0,1,1.57-.15Zm1.19.78a4.78,4.78,0,0,0-.61-.09,6.48,6.48,0,0,0-.65,0,3.73,3.73,0,0,0-.92.11,2.11,2.11,0,0,0-.75.34,1.73,1.73,0,0,0-.51.61,2,2,0,0,0-.19.91,1,1,0,0,0,.44.9,2.36,2.36,0,0,0,1.38.32h1.13l.69-3.06Zm9.27,2.79h3.22l.76-3.44h1.46l-1.32,5.88c0,.21-.08.39-.1.55a2.51,2.51,0,0,0,0,.4.8.8,0,0,0,.06.34.49.49,0,0,0,.17.21.78.78,0,0,0,.3.12l.42.06-.07.41H90.64l.82-3.78H88.25l-.82,3.78H86l1.3-5.61c.07-.29.12-.54.15-.74a3.33,3.33,0,0,0,0-.51.89.89,0,0,0,0-.32.35.35,0,0,0-.16-.2.77.77,0,0,0-.28-.11,2.8,2.8,0,0,0-.43,0l.09-.44,2.05-.07h.5l-.78,3.51Zm13.18-3,.78-.55.54.13-1.29,5.65c-.08.34-.13.59-.16.77a3.28,3.28,0,0,0,0,.44.6.6,0,0,0,.19.5,1.43,1.43,0,0,0,.74.19l-.07.41H99.86l.53-2.09-.11,0A7.38,7.38,0,0,1,98.75,179a2.54,2.54,0,0,1-1.53.54,1.68,1.68,0,0,1-1.44-.69,3.23,3.23,0,0,1-.51-1.94,7.12,7.12,0,0,1,.19-1.6,6.41,6.41,0,0,1,.56-1.52,5.58,5.58,0,0,1,.9-1.27,4,4,0,0,1,1.21-.87,3.44,3.44,0,0,1,1.49-.33,4.06,4.06,0,0,1,1,.12,3.52,3.52,0,0,1,1,.43Zm-.74,2.48a5.93,5.93,0,0,0,.1-.59,5.4,5.4,0,0,0,0-.54,1.35,1.35,0,0,0-.28-.94,1.22,1.22,0,0,0-.93-.3,2.05,2.05,0,0,0-.67.11,2.33,2.33,0,0,0-.65.38,3.32,3.32,0,0,0-.63.69,5.25,5.25,0,0,0-.54,1,7.27,7.27,0,0,0-.38,1.3,6.93,6.93,0,0,0-.13,1.35,2.71,2.71,0,0,0,.24,1.29.85.85,0,0,0,.8.43,1.41,1.41,0,0,0,.54-.12A2.23,2.23,0,0,0,99,178a6.47,6.47,0,0,0,1.41-2,6.59,6.59,0,0,0,.38-1.28l.08-.36Zm10.86-1.26v.12a.88.88,0,0,1,0,.12,6.08,6.08,0,0,1,1.45-1.51,2.64,2.64,0,0,1,1.5-.49,1.58,1.58,0,0,1,1.22.45,1.86,1.86,0,0,1,.42,1.32,6,6,0,0,1-.17,1.28l-.71,3a4.19,4.19,0,0,0-.14.95.78.78,0,0,0,.08.39.53.53,0,0,0,.26.22,2.06,2.06,0,0,0,.58.12l-.07.41h-2.64l1.06-4.23q.12-.46.21-.93a4.75,4.75,0,0,0,.09-.85,1.35,1.35,0,0,0-.21-.86.82.82,0,0,0-.66-.25,1.38,1.38,0,0,0-.74.27,3.93,3.93,0,0,0-.85.82,6.6,6.6,0,0,0-.73,1.09,5.13,5.13,0,0,0-.45,1.31l-.77,3.64H109l1-4.23c.12-.52.2-.9.24-1.15a3.8,3.8,0,0,0,.06-.64,1.33,1.33,0,0,0-.22-.86.83.83,0,0,0-.67-.25,1.4,1.4,0,0,0-.74.27,4,4,0,0,0-.86.84,6.3,6.3,0,0,0-.73,1.11,5.22,5.22,0,0,0-.43,1.29l-.76,3.61h-1.46l1.28-5.69c0-.13.07-.32.11-.57a3.63,3.63,0,0,0,.07-.63.77.77,0,0,0-.07-.36.43.43,0,0,0-.24-.19,2.42,2.42,0,0,0-.59-.09l.1-.44,1.92-.07h.47l-.55,2.16.1,0a6.82,6.82,0,0,1,1.54-1.69,2.63,2.63,0,0,1,1.55-.55,1.6,1.6,0,0,1,1.23.45,1.85,1.85,0,0,1,.42,1.31Zm7,.18a6.05,6.05,0,0,0-.16-.88.71.71,0,0,0-.24-.38,1,1,0,0,0-.55-.15l.09-.41H120l.64,6.62q2.84-3.84,2.84-5.51a.67.67,0,0,0-.17-.53,1,1,0,0,0-.57-.16l.08-.41H125l.23.42a18.22,18.22,0,0,1-1.14,2.4q-.69,1.24-1.7,2.72t-2.23,3.06a18,18,0,0,1-1.58,1.85,5,5,0,0,1-.91.72,3.11,3.11,0,0,1-2.15.41,2.78,2.78,0,0,1-.49-.12l.36-1.56H116a.77.77,0,0,0,.13.45.43.43,0,0,0,.37.17,1.7,1.7,0,0,0,.46-.05,1.62,1.62,0,0,0,.41-.18,3.32,3.32,0,0,0,.52-.4,8,8,0,0,0,.7-.73c.26-.3.55-.66.86-1.09l-.8-6.23Zm8.17,7.62a5.91,5.91,0,0,0-.11.61c0,.14,0,.26,0,.36a.78.78,0,0,0,.08.39.53.53,0,0,0,.26.22,2.21,2.21,0,0,0,.58.12l-.07.41H125l2.13-9.26a5.5,5.5,0,0,0,.16-1.2.77.77,0,0,0-.07-.36.44.44,0,0,0-.24-.19,2.42,2.42,0,0,0-.59-.09l.1-.44,1.91-.07h.48l-.56,2.17.1,0q1.56-2.25,3.1-2.26a1.67,1.67,0,0,1,1.43.69,3.25,3.25,0,0,1,.51,1.95,6.89,6.89,0,0,1-.25,1.81,6.43,6.43,0,0,1-.69,1.64,4.89,4.89,0,0,1-1,1.2,3.87,3.87,0,0,1-1.15.7,3.46,3.46,0,0,1-1.27.23,3.34,3.34,0,0,1-1.86-.48l-.39,1.82Zm1-4.37c-.06.3-.09.52-.11.68s0,.31,0,.46a1.32,1.32,0,0,0,.28.94,1.3,1.3,0,0,0,1,.3,1.86,1.86,0,0,0,.79-.17,2.45,2.45,0,0,0,.69-.48,3.58,3.58,0,0,0,.59-.77,5.9,5.9,0,0,0,.47-1,7.7,7.7,0,0,0,.31-1.22,7.28,7.28,0,0,0,.11-1.18,2.65,2.65,0,0,0-.25-1.3.84.84,0,0,0-.79-.43,1.48,1.48,0,0,0-.84.29,4.46,4.46,0,0,0-.91.92,6.23,6.23,0,0,0-.78,1.25,6.7,6.7,0,0,0-.44,1.41l-.07.35Zm13.3-4.65.78-.55.54.13-1.29,5.65c-.08.34-.13.59-.16.77a3.31,3.31,0,0,0,0,.44.6.6,0,0,0,.19.5,1.43,1.43,0,0,0,.74.19l-.07.41h-2.41l.53-2.09-.11,0a7.37,7.37,0,0,1-1.53,1.71,2.54,2.54,0,0,1-1.53.54,1.68,1.68,0,0,1-1.44-.69,3.23,3.23,0,0,1-.51-1.94,7.11,7.11,0,0,1,.19-1.6,6.43,6.43,0,0,1,.56-1.52,5.59,5.59,0,0,1,.9-1.27,4,4,0,0,1,1.21-.87,3.45,3.45,0,0,1,1.49-.33,4.06,4.06,0,0,1,1,.12,3.52,3.52,0,0,1,1,.43Zm-.74,2.48a5.79,5.79,0,0,0,.1-.59,5.34,5.34,0,0,0,0-.54,1.35,1.35,0,0,0-.28-.94,1.22,1.22,0,0,0-.93-.3,2,2,0,0,0-.67.11,2.32,2.32,0,0,0-.65.38,3.31,3.31,0,0,0-.63.69,5.24,5.24,0,0,0-.54,1,7.25,7.25,0,0,0-.38,1.3,6.92,6.92,0,0,0-.13,1.35,2.71,2.71,0,0,0,.24,1.29.85.85,0,0,0,.8.43,1.41,1.41,0,0,0,.54-.12,2.23,2.23,0,0,0,.63-.43,6.47,6.47,0,0,0,1.41-2,6.62,6.62,0,0,0,.38-1.28l.08-.36Zm11.49-2.89-1.32,5.88a4.77,4.77,0,0,0-.14.95.63.63,0,0,0,.19.51,1.49,1.49,0,0,0,.77.22l-.08.41H148.7l1.55-7.09h-.41a1.69,1.69,0,0,0-1.09.38,3.21,3.21,0,0,0-.83,1.12q-.36.74-1.17,2.88a6,6,0,0,1-1.25,2.15,2.28,2.28,0,0,1-1.66.69,3.71,3.71,0,0,1-1.16-.17l.4-1.8h.6c0,.58.18.86.52.86a1.2,1.2,0,0,0,1-.64,18.24,18.24,0,0,0,1.33-2.91,7,7,0,0,1,1.68-2.87,3.07,3.07,0,0,1,1.86-.56Zm2.63,2.35a5.9,5.9,0,0,0,.21-1.25,1,1,0,0,0,0-.32.37.37,0,0,0-.15-.2.76.76,0,0,0-.28-.11,2.63,2.63,0,0,0-.42,0l.09-.44,2.11-.07h.47l-.9,3.5a5,5,0,0,1,.5-.12l.58-.1.61-.07.59,0a2.73,2.73,0,0,1,1.89.57,2,2,0,0,1,.63,1.57,2.5,2.5,0,0,1-1,2,3.63,3.63,0,0,1-1.19.58,5.71,5.71,0,0,1-1.59.21,4.43,4.43,0,0,1-1.25-.16,2.46,2.46,0,0,1-.88-.45,1.79,1.79,0,0,1-.52-.69,2.26,2.26,0,0,1-.17-.9,5.4,5.4,0,0,1,.06-.77q.06-.36.16-.8l.51-2Zm2.66,1.5a6.74,6.74,0,0,0-.88.05c-.28,0-.56.09-.85.15-.08.29-.15.6-.21.93a4.72,4.72,0,0,0-.1.91,1.68,1.68,0,0,0,.35,1.15,1.58,1.58,0,0,0,1.22.4,3.19,3.19,0,0,0,.85-.11,2,2,0,0,0,.7-.33,1.58,1.58,0,0,0,.47-.59,2,2,0,0,0,.18-.87,2.07,2.07,0,0,0-.16-.87,1.29,1.29,0,0,0-.4-.51,1.41,1.41,0,0,0-.56-.24,3,3,0,0,0-.62-.06Zm7.16-.41h3.22l.76-3.44h1.46l-1.32,5.88c0,.21-.08.39-.1.55a2.54,2.54,0,0,0,0,.4.8.8,0,0,0,.06.34.49.49,0,0,0,.18.21.78.78,0,0,0,.3.12l.42.06-.07.41h-2.61l.82-3.78h-3.21l-.82,3.78h-1.46l1.3-5.61c.07-.29.12-.54.15-.74a3.34,3.34,0,0,0,0-.51.89.89,0,0,0,0-.32.35.35,0,0,0-.15-.2.78.78,0,0,0-.28-.11,2.8,2.8,0,0,0-.43,0l.09-.44,2.05-.07h.5l-.78,3.51Zm9.6,4.66a2.73,2.73,0,0,1-2-.72,2.83,2.83,0,0,1-.72-2.08,6.59,6.59,0,0,1,.13-1.17,7.13,7.13,0,0,1,.45-1.55,5,5,0,0,1,1-1.45,4.06,4.06,0,0,1,1.36-.93,4.28,4.28,0,0,1,1.65-.32,3.07,3.07,0,0,1,1.59.37,2.14,2.14,0,0,1,.9,1,3.55,3.55,0,0,1,.28,1.45,7.23,7.23,0,0,1-1.09,3.67,3.85,3.85,0,0,1-1.46,1.3,4.41,4.41,0,0,1-2,.45Zm-1.27-2.45a2,2,0,0,0,.38,1.36,1.46,1.46,0,0,0,1.16.43,1.91,1.91,0,0,0,1.47-.73,5.23,5.23,0,0,0,1-2.05,8.69,8.69,0,0,0,.37-2.32,2.18,2.18,0,0,0-.35-1.35,1.31,1.31,0,0,0-1.1-.45,2,2,0,0,0-1.53.72,5.07,5.07,0,0,0-1,2.07,8.85,8.85,0,0,0-.37,2.32Zm12.89.69a6.19,6.19,0,0,1-3.89,1.75,2.56,2.56,0,0,1-1.61-.47,1.49,1.49,0,0,1-.6-1.23,1.81,1.81,0,0,1,.75-1.49,8.59,8.59,0,0,1,2.28-1.14,6.93,6.93,0,0,0,1.8-.88,1.34,1.34,0,0,0,.63-1.11c0-.66-.39-1-1.18-1a4.37,4.37,0,0,0-2.6,1.18l-.54-.63a7.71,7.71,0,0,1,1.84-1.15,4.66,4.66,0,0,1,1.78-.33,2.56,2.56,0,0,1,1.57.44,1.38,1.38,0,0,1,.58,1.16,1.94,1.94,0,0,1-.7,1.51,7.93,7.93,0,0,1-2.45,1.25,6.27,6.27,0,0,0-1.8.89,1.34,1.34,0,0,0-.54,1.07c0,.66.36,1,1.09,1a3.48,3.48,0,0,0,1.45-.41,6.77,6.77,0,0,0,1.61-1.08l.52.64Z"/>
      <path class="cls-2" d="M190.06,179.56a2.73,2.73,0,0,1-2-.72,2.83,2.83,0,0,1-.72-2.08,6.59,6.59,0,0,1,.13-1.17,7.13,7.13,0,0,1,.45-1.55,5,5,0,0,1,1-1.45,4.05,4.05,0,0,1,1.36-.93,4.28,4.28,0,0,1,1.65-.32,3.07,3.07,0,0,1,1.59.37,2.14,2.14,0,0,1,.9,1,3.55,3.55,0,0,1,.28,1.45,7.23,7.23,0,0,1-1.09,3.67,3.85,3.85,0,0,1-1.46,1.3,4.41,4.41,0,0,1-2,.45Zm-1.27-2.45a2,2,0,0,0,.38,1.36,1.46,1.46,0,0,0,1.16.43,1.91,1.91,0,0,0,1.47-.73,5.23,5.23,0,0,0,1-2.05,8.7,8.7,0,0,0,.37-2.32,2.18,2.18,0,0,0-.35-1.35,1.31,1.31,0,0,0-1.1-.45,2,2,0,0,0-1.53.72,5.07,5.07,0,0,0-1,2.07,8.85,8.85,0,0,0-.37,2.32Zm-98.93,18a2.24,2.24,0,0,1,1.36.37,2,2,0,0,1,.7,1.19l.34,1.34a1.17,1.17,0,0,0,1.12,1l-.1.42H91.22a5.3,5.3,0,0,1-.4-1.47l-.19-1.09a1.57,1.57,0,0,0-.41-1,1.55,1.55,0,0,0-.95-.22l-.91.8-.67,3H86.27l1.32-5.84a4.92,4.92,0,0,0,.15-1,.62.62,0,0,0-.2-.54,1.23,1.23,0,0,0-.69-.15l.09-.44,2-.09h.51l-.91,4q.63-.55,2.07-2.14a11,11,0,0,1,1.72-1.65,2.2,2.2,0,0,1,1.17-.3,1.87,1.87,0,0,1,.8.13L94,193h-.65c0-.25-.22-.37-.54-.37a1.1,1.1,0,0,0-.62.2,6.29,6.29,0,0,0-.86.77l-1.45,1.47Zm11.23-3.21.78-.55.54.13-1.29,5.65c-.08.34-.13.59-.16.77a3.25,3.25,0,0,0,0,.44.6.6,0,0,0,.19.5,1.43,1.43,0,0,0,.74.19l-.07.41H99.36l.53-2.09-.11,0A7.38,7.38,0,0,1,98.25,199a2.54,2.54,0,0,1-1.53.54,1.68,1.68,0,0,1-1.44-.69,3.23,3.23,0,0,1-.51-1.94,7.13,7.13,0,0,1,.19-1.6,6.41,6.41,0,0,1,.56-1.52,5.58,5.58,0,0,1,.9-1.27,4,4,0,0,1,1.21-.87,3.45,3.45,0,0,1,1.49-.33,4.06,4.06,0,0,1,1,.12,3.52,3.52,0,0,1,1,.43Zm-.74,2.48a5.82,5.82,0,0,0,.1-.59,5.34,5.34,0,0,0,0-.54,1.35,1.35,0,0,0-.28-.94,1.22,1.22,0,0,0-.93-.3,2.05,2.05,0,0,0-.68.11,2.33,2.33,0,0,0-.65.38,3.31,3.31,0,0,0-.63.69,5.26,5.26,0,0,0-.54,1,7.27,7.27,0,0,0-.38,1.3,6.93,6.93,0,0,0-.13,1.35,2.71,2.71,0,0,0,.24,1.29.85.85,0,0,0,.8.43,1.4,1.4,0,0,0,.54-.12,2.23,2.23,0,0,0,.63-.43,6.48,6.48,0,0,0,1.41-2,6.61,6.61,0,0,0,.38-1.28l.08-.36Zm5.84-2.45.09-.44h2.4q.59,3,.78,5l3.55-5h1.45l-1.32,5.88a4.7,4.7,0,0,0-.14.95.63.63,0,0,0,.18.51,1.49,1.49,0,0,0,.77.22l-.08.41h-2.57l.93-4.07q.33-1.41.54-2.05h-.16c-.31.48-.6.91-.88,1.27l-2.56,3.55h-.7a44.06,44.06,0,0,0-.67-5h-.12a28.26,28.26,0,0,1-1,3.34,6.89,6.89,0,0,1-1.26,2.32,2.32,2.32,0,0,1-1.78.76,3.26,3.26,0,0,1-1-.17l.38-1.8h.6c.05.57.22.86.48.86q.93,0,1.87-2.44a11.49,11.49,0,0,0,.94-3.42.61.61,0,0,0-.16-.5,1.21,1.21,0,0,0-.56-.18Zm12.18,3h3.22l.76-3.44h1.46l-1.32,5.88c0,.21-.08.39-.1.55a2.52,2.52,0,0,0,0,.4.79.79,0,0,0,.06.34.49.49,0,0,0,.17.21.79.79,0,0,0,.3.12l.42.06-.07.41H120.6l.82-3.78h-3.21l-.82,3.78h-1.46l1.3-5.61c.07-.29.12-.54.15-.74a3.29,3.29,0,0,0,0-.51.89.89,0,0,0,0-.32.35.35,0,0,0-.15-.2.78.78,0,0,0-.28-.11,2.81,2.81,0,0,0-.43,0l.09-.44,2.05-.07h.5l-.78,3.51Zm11.6-3.57.71,0,.72.05.7.07.63.09-1.31,5.79c0,.21-.08.39-.1.55a2.47,2.47,0,0,0,0,.4.8.8,0,0,0,.06.34.49.49,0,0,0,.18.21.77.77,0,0,0,.3.12l.42.06-.08.41h-2.61l.78-3.59H130a4.83,4.83,0,0,0-.56,0,1.2,1.2,0,0,0-.51.18,2.3,2.3,0,0,0-.53.5,6,6,0,0,0-.61,1,10.71,10.71,0,0,1-.58.94,2.82,2.82,0,0,1-.59.64,2.11,2.11,0,0,1-.68.36,2.91,2.91,0,0,1-.87.12,3.87,3.87,0,0,1-.53,0,2.23,2.23,0,0,1-.53-.13l.36-1.56h.6a.89.89,0,0,0,.17.52.49.49,0,0,0,.39.15.63.63,0,0,0,.25-.05,1,1,0,0,0,.26-.2,2.77,2.77,0,0,0,.32-.38,7,7,0,0,0,.39-.63c.12-.21.24-.39.33-.54a3.13,3.13,0,0,1,.3-.38,2.25,2.25,0,0,1,.31-.29,3.46,3.46,0,0,1,.36-.25v-.07a3.17,3.17,0,0,1-.94-.27,2.14,2.14,0,0,1-.63-.45,1.6,1.6,0,0,1-.35-.57,1.77,1.77,0,0,1-.11-.62,2,2,0,0,1,.3-1.09,2.41,2.41,0,0,1,.82-.78,4.06,4.06,0,0,1,1.25-.46,7.76,7.76,0,0,1,1.57-.15Zm1.19.78a4.83,4.83,0,0,0-.61-.09,6.45,6.45,0,0,0-.65,0,3.72,3.72,0,0,0-.92.11,2.12,2.12,0,0,0-.75.34,1.73,1.73,0,0,0-.51.61,2,2,0,0,0-.19.91,1,1,0,0,0,.44.9,2.36,2.36,0,0,0,1.38.32h1.13l.69-3.06Z"/>
      <path class="cls-2" d="M233.2,130.85v-5.72h-2.14v-.76h5.13v.76h-2.14v5.72Zm3.86,0v-6.48h1.28l1.53,4.59q.21.64.31,1,.11-.35.35-1l1.56-4.51h1.15v6.48h-.82v-5.42l-1.89,5.42h-.77l-1.87-5.52v5.52ZM33.69,127.06v-2.69H22.61L17.1,138a.39.39,0,0,1-.36.28c-.24,0-.32-.16-.4-.28l-5.58-13.59H0v2.69l2.06.4a.66.66,0,0,1,.55.71v18.78a.66.66,0,0,1-.55.71l-2.06.4v2.69H8.95v-2.69l-2-.4a.66.66,0,0,1-.55-.71V128.49c0-.63.08-1.07.83-1.07.51,0,.71.36.91.75l6,13.71h5.19l5.82-13.55c.24-.48.4-.91,1-.91s.83.44.83,1.07v18.46a.66.66,0,0,1-.55.71l-2.06.4v2.69h9.34v-2.69l-2.06-.4a.66.66,0,0,1-.55-.71V128.17a.66.66,0,0,1,.55-.71l2.06-.4Zm78.26.87h9.86v-3.56H98v3.56h9.86v19a.66.66,0,0,1-.55.71l-2.06.4v2.69h9.34v-2.69l-2.06-.4a.66.66,0,0,1-.55-.71v-19ZM149,148.06v2.69h9.07v-2.69l-1.66-.36c-.71-.16-1-.24-1.27-1l-8.91-22.38H135.64v2.73l2.1.36c.51.08.63.44.44.91l-7.88,18.38a1.18,1.18,0,0,1-1,.91l-1.82.4v2.69h8.83v-2.69l-1.39-.29c-.4-.08-.67-.16-.67-.52a1.33,1.33,0,0,1,.16-.55l1.43-3.55h13.74l1.35,3.49a1.62,1.62,0,0,1,.16.63c0,.36-.28.4-.63.47l-1.43.32Zm-5.31-19.81,4.59,11.65H137.15l4.67-11.65c.24-.59.36-.91,1-.91s.71.32,1,.91Zm33,22.78c6.26,0,10.29-1.07,10.29-8.24,0-7.41-4.83-7.21-10.61-7.49-3.64-.16-6.34,0-6.34-3.88s3.8-3.8,6.89-3.8a51.44,51.44,0,0,1,8.08.91l.55-3.45a47.7,47.7,0,0,0-9.3-1c-7,0-10.29,1.66-10.29,7.84,0,7.17,4.75,7.05,10.69,7.45,4.32.28,6.18-.08,6.18,4s-3.56,4-6.61,4a58.22,58.22,0,0,1-9.22-1L166.5,150A51.06,51.06,0,0,0,176.67,151Zm39.76-.28h9.3v-2.69l-2-.4a.66.66,0,0,1-.55-.71V128.17a.66.66,0,0,1,.55-.71l2-.4v-2.69h-9.3v2.69l2.06.4a.66.66,0,0,1,.55.71v7.49H204v-7.49a.66.66,0,0,1,.55-.71l2-.4v-2.69h-9.3v2.69l2.06.4a.66.66,0,0,1,.55.71v18.78a.66.66,0,0,1-.55.71l-2.06.4v2.69h9.3v-2.69l-2-.4a.66.66,0,0,1-.55-.71v-8h15v8a.66.66,0,0,1-.55.71l-2.06.4v2.69Zm-172.2,0h9.3v-2.69l-2-.4a.66.66,0,0,1-.55-.71V128.17a.66.66,0,0,1,.55-.71l2-.4v-2.69h-9.3v2.69l2.06.4a.66.66,0,0,1,.55.71v18.78a.66.66,0,0,1-.55.71l-2.06.4v2.69Zm26.58-3.8v-7.72h7.88v4.08l4.95,7.45h5.82v-2.69l-1.54-.36a2.39,2.39,0,0,1-1.82-1l-4.28-6.3a1.31,1.31,0,0,1-.36-.79c0-.63.48-.71,1-.79A6.26,6.26,0,0,0,86.57,137a7.43,7.43,0,0,0,1.66-5.19c0-5.47-2.06-7.41-8.16-7.41h-16v2.69l2.06.4a.66.66,0,0,1,.55.71v18.78a.66.66,0,0,1-.55.71l-2.06.4v2.69h9.3v-2.69l-2-.4a.66.66,0,0,1-.55-.71ZM84,131.81c0,1.27,0,2.3-.75,3-.63.56-1.86,1-4.51,1H70.81v-7.92h7.88c2.65,0,3.88.36,4.51,1s.75,1.78.75,3Z"/>
</svg>
