<svg id="Layer_1" data-name="Layer 1" xmlns="http://www.w3.org/2000/svg" width="207.64" height="119.53" viewBox="0 0 207.64 119.53">
  <defs>
    <style>
      .cls-1 {
        fill: none;
      }

      .cls-2 {
        fill: #02cfa6;
      }
    </style>
  </defs>
  <title>work-exc-5</title>
  <g>
    <path class="cls-1" d="M-333.08,214.61h-7.41v6.08h21.32c4,0,7.82-7.29,7.82-12.73a6.29,6.29,0,0,0-.94-3.7,3.05,3.05,0,0,0-2.75-1.18h-7.34C-324.18,210.54-327.95,214.61-333.08,214.61Z" transform="translate(474.46 -167.47)"/>
    <path class="cls-1" d="M-356.42,210.36h23.34c2.22,0,3.78-1.64,4.87-3.67h-28.21Z" transform="translate(474.46 -167.47)"/>
    <rect class="cls-1" x="133.97" y="26.39" width="2.9" height="8.58"/>
    <path class="cls-1" d="M-364.18,214.61h-16.54q-.16,3-.06,6.08h20.11V188.43h-3.51Z" transform="translate(474.46 -167.47)"/>
    <path class="cls-1" d="M-414.56,224l-11.52-13.88.64-1.55h0l12.5-30.26,6.23-.78,19.34,16.83a47.84,47.84,0,0,1,4.09-7.56l-20.06-14.88-11.38,1.46L-429,212.21l3,8.37Z" transform="translate(474.46 -167.47)"/>
    <polygon class="cls-1" points="65.42 73.68 62.87 77.38 67.74 81.32 71.2 79.81 65.42 73.68"/>
    <path class="cls-1" d="M-377.44,188.43h-1.81c-5.35,7.7-8.18,17.25-8.42,28.38a3.82,3.82,0,0,0,1,2.62,3.87,3.87,0,0,0,1.59.95C-385.35,208-382.8,197.24-377.44,188.43Z" transform="translate(474.46 -167.47)"/>
    <polygon class="cls-1" points="53.29 41.89 64.94 55.93 68.44 41.5 66.21 43.93 53.33 41.79 53.29 41.89"/>
    <path class="cls-1" d="M-368.43,188.43h-3.94a47.9,47.9,0,0,0-8,21.93h11.92Z" transform="translate(474.46 -167.47)"/>
    <rect class="cls-1" x="118.04" y="47.14" width="11.68" height="6.08"/>
    <path class="cls-1" d="M-382.89,250.7l0-.08h67.47A8.83,8.83,0,0,0-308,244a8.73,8.73,0,0,0,0-4,8.8,8.8,0,0,0-8.51-6.78H-383.2a8.8,8.8,0,0,0-8.51,6.78,8.75,8.75,0,0,0,0,4,8.82,8.82,0,0,0,8.49,6.69Zm-6.86-8.72a6.56,6.56,0,0,1,6.55-6.54h66.67v4.25h0a2.3,2.3,0,0,0-2.29,2.29,2.3,2.3,0,0,0,2.29,2.29,2.3,2.3,0,0,0,2.29-2.29H-310a6.55,6.55,0,0,1-6.54,6.54,6.55,6.55,0,0,1-6.54-6.54,6.5,6.5,0,0,1,.42-2.29H-333.2a2.3,2.3,0,0,0-2.29,2.29,2.3,2.3,0,0,0,2.29,2.29A2.3,2.3,0,0,0-330.9,242h4.25a6.55,6.55,0,0,1-6.55,6.54,6.55,6.55,0,0,1-6.54-6.54,6.5,6.5,0,0,1,.42-2.29h-10.55a2.3,2.3,0,0,0-2.29,2.29,2.3,2.3,0,0,0,2.29,2.29,2.3,2.3,0,0,0,2.29-2.29h4.25a6.55,6.55,0,0,1-6.54,6.54,6.55,6.55,0,0,1-6.54-6.54,6.5,6.5,0,0,1,.42-2.29h-10.55a2.3,2.3,0,0,0-2.29,2.29,2.3,2.3,0,0,0,2.29,2.29,2.3,2.3,0,0,0,2.29-2.29H-360a6.55,6.55,0,0,1-6.54,6.54,6.55,6.55,0,0,1-6.54-6.54,6.5,6.5,0,0,1,.42-2.29h-10.54a2.3,2.3,0,0,0-2.3,2.29,2.3,2.3,0,0,0,2.29,2.29,2.3,2.3,0,0,0,2.29-2.29h4.25a6.55,6.55,0,0,1-6.55,6.54A6.55,6.55,0,0,1-389.75,242Z" transform="translate(474.46 -167.47)"/>
    <polygon class="cls-1" points="43.13 67.22 41.67 67.98 40.63 71.91 43.42 74.84 46.1 71.69 43.13 67.22"/>
    <polygon class="cls-1" points="62.94 102.39 65.43 98.16 54.43 88.89 53.76 94.7 58.71 101.47 62.94 102.39"/>
    <path class="cls-2" d="M-406.92,230.69l6.63-27.3-6.22-.18-3.32,3.62-9.64-1.6,9.51-23,1.89-.23,19.1,16.61a61.92,61.92,0,0,0-3,18.14,8.09,8.09,0,0,0,2.26,5.68,9.16,9.16,0,0,0,6.83,2.54h63.67c6.69,0,12.07-9.29,12.07-17a10.41,10.41,0,0,0-1.77-6.22,7.27,7.27,0,0,0-6.17-2.91h-10.82l-.33,1.73c-.1.52-.24,1.18-.43,1.89h-6.72V189.61h-11.41v12.83h-11.68V184.17h-23.23l-22.53-16.71-15.64,2-15.66,42.72,4.2,11.86Zm-1.33-19.28L-406,209l-3.5,14.42-11.65-14,0-.09Zm20.57,5.41c.24-11.14,3.07-20.68,8.42-28.38h1.81c-5.35,8.82-7.91,19.53-7.6,32a3.87,3.87,0,0,1-1.59-.95A3.82,3.82,0,0,1-387.67,216.81Zm15.3-28.38h3.94v21.93h-11.92A47.9,47.9,0,0,1-372.37,188.43Zm16,26.19h11.68v6.08h-11.68ZM-315,203.08a3.05,3.05,0,0,1,2.75,1.18,6.29,6.29,0,0,1,.94,3.7c0,5.44-3.86,12.73-7.82,12.73h-21.32v-6.08h7.41c5.13,0,8.89-4.08,10.7-11.53Zm-25.45-9.22h2.9v8.58h-2.9Zm7.15,12.83h5.12c-1.08,2-2.64,3.67-4.87,3.67h-23.34V206.7h23.08ZM-360.67,203v17.72h-20.11q-.09-3.12.06-6.08h16.54V188.43h3.51Zm-54-29.61,11.38-1.46,20.06,14.88a47.84,47.84,0,0,0-4.09,7.56l-19.34-16.83-6.23.78-12.5,30.26h0l-.64,1.55L-414.56,224l-11.43-3.4-3-8.37Z" transform="translate(474.46 -167.47)"/>
    <path class="cls-2" d="M-376.66,242h-4.25a2.3,2.3,0,0,1-2.29,2.29,2.3,2.3,0,0,1-2.29-2.29,2.3,2.3,0,0,1,2.3-2.29h10.54a6.5,6.5,0,0,0-.42,2.29,6.55,6.55,0,0,0,6.54,6.54A6.55,6.55,0,0,0-360,242h-4.25a2.3,2.3,0,0,1-2.29,2.29,2.3,2.3,0,0,1-2.29-2.29,2.3,2.3,0,0,1,2.29-2.29H-356a6.5,6.5,0,0,0-.42,2.29,6.55,6.55,0,0,0,6.54,6.54,6.55,6.55,0,0,0,6.54-6.54h-4.25a2.3,2.3,0,0,1-2.29,2.29,2.3,2.3,0,0,1-2.29-2.29,2.3,2.3,0,0,1,2.29-2.29h10.55a6.5,6.5,0,0,0-.42,2.29,6.55,6.55,0,0,0,6.54,6.54,6.55,6.55,0,0,0,6.55-6.54h-4.25a2.3,2.3,0,0,1-2.29,2.29,2.3,2.3,0,0,1-2.29-2.29,2.3,2.3,0,0,1,2.29-2.29h10.55a6.5,6.5,0,0,0-.42,2.29,6.55,6.55,0,0,0,6.54,6.54A6.55,6.55,0,0,0-310,242h-4.25a2.3,2.3,0,0,1-2.29,2.29,2.3,2.3,0,0,1-2.29-2.29,2.3,2.3,0,0,1,2.29-2.29h0v-4.25h-66.67a6.56,6.56,0,0,0-6.55,6.54,6.55,6.55,0,0,0,6.54,6.54A6.55,6.55,0,0,0-376.66,242Z" transform="translate(474.46 -167.47)"/>
    <path class="cls-2" d="M-388.78,263.31c2.9-1.72,6.15-3.65,8.61-8.36h63.65a13.13,13.13,0,0,0,1.41-.08h48.29v-4.25h-40A13,13,0,0,0-303.9,245a13,13,0,0,0,0-5.93A13.09,13.09,0,0,0-316.52,229H-383.2a13.09,13.09,0,0,0-12.65,10.08,13,13,0,0,0,0,5.93,12.94,12.94,0,0,0,10.76,9.8,17.51,17.51,0,0,1-5.88,4.84c-3,1.81-6.51,3.86-8.21,9.33-1.44,4.63-6.81,7.83-13.47,8.07l-18.75-11.6c-6-13.27-23.06-14.36-43.08-14.36v4.25c17.25,0,32.09.79,38,9.79-5,.15-8.77,1.29-13,2.58a74.73,74.73,0,0,1-24.82,3.8v4.25a79.38,79.38,0,0,0,26.06-4c5-1.52,9-2.72,15.19-2.32l19.18,11.87h.61a21.41,21.41,0,0,0,13.95-4.86v0c8.13-5.74,15.59-6.07,28.5-1.23a20.49,20.49,0,0,0,7.16,1.47c5.17,0,8.17-2.79,10.71-5.16s4.71-4.38,8.79-3.88a20.52,20.52,0,0,1,6.78,2.89c4.63,2.66,9.87,5.68,20.21,2.29l.25-.1c9.26-4.42,28.93-1.43,40.68.36a81.83,81.83,0,0,0,9.33,1.15V270a86.7,86.7,0,0,1-8.69-1.1c-13-2-32.55-5-43-.06-8.45,2.74-12.25.55-16.64-2a24.17,24.17,0,0,0-8.28-3.41c-6.15-.77-9.42,2.28-12.31,5-3.37,3.14-6,5.61-13.49,2.82-9.44-3.53-17.38-5.07-25.51-2C-393.47,266.1-391.38,264.85-388.78,263.31Zm-2.91-19.3a8.75,8.75,0,0,1,0-4,8.8,8.8,0,0,1,8.51-6.78h66.68A8.8,8.8,0,0,1-308,240a8.73,8.73,0,0,1,0,4,8.83,8.83,0,0,1-7.35,6.61h-67.47l0,.08h-.31A8.82,8.82,0,0,1-391.69,244Z" transform="translate(474.46 -167.47)"/>
    <rect class="cls-2" y="115.28" width="207.64" height="4.25"/>
    <path class="cls-2" d="M-423,239.48l-6.85-10.33-6.52,3.4-2.12,8,7.69,8.06Zm-10.78-.1,1-3.93,1.46-.76,3,4.48-2.68,3.14Z" transform="translate(474.46 -167.47)"/>
    <path class="cls-2" d="M-409.55,234.41l-7.77,11.27,9.94,8,11.35-5Zm-2,10.44,2.55-3.7,5.78,6.12-3.46,1.51Z" transform="translate(474.46 -167.47)"/>
    <path class="cls-2" d="M-425.11,263.34l6.89,9.41,8.8,1.92,5.89-10L-423.34,248Zm5.09-7,11,9.27-2.5,4.24-4.22-.92-5-6.77Z" transform="translate(474.46 -167.47)"/>
  </g>
</svg>
