<svg id="Layer_1" data-name="Layer 1" xmlns="http://www.w3.org/2000/svg" width="207.64" height="114.85" viewBox="0 0 207.64 114.85">
  <defs>
    <style>
      .cls-1 {
        fill: none;
      }

      .cls-2 {
        fill: #02cfa6;
      }
    </style>
  </defs>
  <title>work-exc-4</title>
  <g>
    <path class="cls-1" d="M-388.42,260.36h23.34c2.22,0,3.78-1.64,4.87-3.67h-28.21Z" transform="translate(506.46 -222.15)"/>
    <path class="cls-1" d="M-396.18,264.61h-16.54q-.16,3-.06,6.08h20.11V238.43h-3.51Z" transform="translate(506.46 -222.15)"/>
    <rect class="cls-1" x="133.97" y="21.72" width="2.9" height="8.58"/>
    <path class="cls-1" d="M-404.37,238.43a47.9,47.9,0,0,0-8,21.93h11.92V238.43Z" transform="translate(506.46 -222.15)"/>
    <path class="cls-1" d="M-365.08,264.61h-7.41v6.08h21.32c4,0,7.82-7.29,7.82-12.73a6.29,6.29,0,0,0-.94-3.7,3.05,3.05,0,0,0-2.75-1.18h-7.34C-356.18,260.54-359.95,264.61-365.08,264.61Z" transform="translate(506.46 -222.15)"/>
    <path class="cls-1" d="M-418.63,269.43a3.87,3.87,0,0,0,1.59.95c-.31-12.42,2.25-23.13,7.6-32h-1.81c-5.35,7.7-8.18,17.25-8.42,28.38A3.82,3.82,0,0,0-418.63,269.43Z" transform="translate(506.46 -222.15)"/>
    <polygon class="cls-1" points="53.92 54.54 68.57 67.11 70.26 56.42 54.12 52.65 53.92 54.54"/>
    <rect class="cls-1" x="118.04" y="42.47" width="11.68" height="6.08"/>
    <path class="cls-1" d="M-444.86,288.88-457,278.46l.49-4.64h0l3.94-37.3,5.36-3.44,26.53,14.6a48.7,48.7,0,0,1,5-10.26L-447,226.83l-9.7,6.26-3.68,47.6,6.44,6.43Z" transform="translate(506.46 -222.15)"/>
    <path class="cls-1" d="M-414.89,300.7l0-.08h67.47A8.83,8.83,0,0,0-340,294a8.73,8.73,0,0,0,0-4,8.8,8.8,0,0,0-8.51-6.78H-415.2a8.8,8.8,0,0,0-8.51,6.78,8.74,8.74,0,0,0,0,4,8.82,8.82,0,0,0,8.49,6.69Zm-6.86-8.72a6.56,6.56,0,0,1,6.55-6.54h66.67v4.25h0a2.3,2.3,0,0,0-2.29,2.29,2.3,2.3,0,0,0,2.29,2.29,2.3,2.3,0,0,0,2.29-2.29H-342a6.55,6.55,0,0,1-6.54,6.54,6.55,6.55,0,0,1-6.54-6.54,6.5,6.5,0,0,1,.42-2.29H-365.2a2.3,2.3,0,0,0-2.29,2.29,2.3,2.3,0,0,0,2.29,2.29A2.3,2.3,0,0,0-362.9,292h4.25a6.55,6.55,0,0,1-6.54,6.54,6.55,6.55,0,0,1-6.54-6.54,6.5,6.5,0,0,1,.42-2.29h-10.55a2.3,2.3,0,0,0-2.29,2.29,2.3,2.3,0,0,0,2.29,2.29,2.3,2.3,0,0,0,2.29-2.29h4.25a6.55,6.55,0,0,1-6.54,6.54,6.55,6.55,0,0,1-6.54-6.54,6.5,6.5,0,0,1,.42-2.29h-10.55a2.3,2.3,0,0,0-2.29,2.29,2.3,2.3,0,0,0,2.29,2.29,2.3,2.3,0,0,0,2.29-2.29H-392a6.55,6.55,0,0,1-6.54,6.54,6.55,6.55,0,0,1-6.54-6.54,6.5,6.5,0,0,1,.42-2.29h-10.54a2.3,2.3,0,0,0-2.3,2.29,2.3,2.3,0,0,0,2.29,2.29,2.3,2.3,0,0,0,2.29-2.29h4.25a6.55,6.55,0,0,1-6.54,6.54A6.55,6.55,0,0,1-421.75,292Z" transform="translate(506.46 -222.15)"/>
    <polygon class="cls-1" points="62.94 97.72 65.43 93.48 54.43 84.21 53.76 90.03 58.71 96.8 62.94 97.72"/>
    <path class="cls-2" d="M-434.52,295.22l4.49-28.4-6.86,3-1.19,3.9-13.81-3.22,3.33-31.53,1.52-1,25.1,13.81a64.09,64.09,0,0,0-2,14.88,8.09,8.09,0,0,0,2.26,5.68,9.16,9.16,0,0,0,6.83,2.54h63.67c6.69,0,12.07-9.29,12.07-17a10.41,10.41,0,0,0-1.77-6.22,7.27,7.27,0,0,0-6.17-2.91h-10.82l-.33,1.73c-.1.52-.24,1.18-.43,1.89h-6.72V239.61h-11.41v12.83h-11.68V234.17H-412l-35.57-12-13.19,8.52-4,51.65L-456,291Zm-1.67-16.66-1.69,10.7-14.65-12.57.2-1.89Zm47.78-13.95h11.68v6.08h-11.68ZM-347,253.08a3.05,3.05,0,0,1,2.75,1.18,6.29,6.29,0,0,1,.94,3.7c0,5.44-3.86,12.73-7.82,12.73h-21.32v-6.08h7.41c5.13,0,8.89-4.08,10.7-11.53Zm-25.45-9.22h2.9v8.58h-2.9Zm7.15,12.83h5.12c-1.08,2-2.64,3.67-4.87,3.67h-23.34V256.7h23.08ZM-392.67,253v17.72h-20.11q-.09-3.12.06-6.08h16.54V238.43h3.51Zm-19.68,7.39a47.9,47.9,0,0,1,8-21.93h3.94v21.93Zm2.91-21.93c-5.35,8.82-7.91,19.53-7.6,32a3.87,3.87,0,0,1-1.59-.95,3.82,3.82,0,0,1-1-2.62c.24-11.14,3.07-20.68,8.42-28.38Zm-47.24-5.33,9.7-6.26,31.3,10.59a48.7,48.7,0,0,0-5,10.26l-26.53-14.6-5.36,3.44-3.94,37.3h0l-.49,4.64,12.14,10.42-9.06-1.76-6.44-6.43Z" transform="translate(506.46 -222.15)"/>
    <path class="cls-2" d="M-408.66,292h-4.25a2.3,2.3,0,0,1-2.29,2.29,2.3,2.3,0,0,1-2.29-2.29,2.3,2.3,0,0,1,2.3-2.29h10.54a6.5,6.5,0,0,0-.42,2.29,6.55,6.55,0,0,0,6.54,6.54A6.55,6.55,0,0,0-392,292h-4.25a2.3,2.3,0,0,1-2.29,2.29,2.3,2.3,0,0,1-2.29-2.29,2.3,2.3,0,0,1,2.29-2.29H-388a6.5,6.5,0,0,0-.42,2.29,6.55,6.55,0,0,0,6.54,6.54,6.55,6.55,0,0,0,6.54-6.54h-4.25a2.3,2.3,0,0,1-2.29,2.29,2.3,2.3,0,0,1-2.29-2.29,2.3,2.3,0,0,1,2.29-2.29h10.55a6.5,6.5,0,0,0-.42,2.29,6.55,6.55,0,0,0,6.54,6.54,6.55,6.55,0,0,0,6.54-6.54h-4.25a2.3,2.3,0,0,1-2.29,2.29,2.3,2.3,0,0,1-2.29-2.29,2.3,2.3,0,0,1,2.29-2.29h10.55a6.5,6.5,0,0,0-.42,2.29,6.55,6.55,0,0,0,6.54,6.54A6.55,6.55,0,0,0-342,292h-4.25a2.3,2.3,0,0,1-2.29,2.29,2.3,2.3,0,0,1-2.29-2.29,2.3,2.3,0,0,1,2.29-2.29h0v-4.25h-66.67a6.56,6.56,0,0,0-6.55,6.54,6.55,6.55,0,0,0,6.54,6.54A6.55,6.55,0,0,0-408.66,292Z" transform="translate(506.46 -222.15)"/>
    <path class="cls-2" d="M-420.78,313.31c2.9-1.72,6.15-3.65,8.61-8.36h63.65a13.13,13.13,0,0,0,1.41-.08h48.29v-4.25h-40A13,13,0,0,0-335.9,295a13,13,0,0,0,0-5.93A13.09,13.09,0,0,0-348.52,279H-415.2a13.09,13.09,0,0,0-12.65,10.08,13,13,0,0,0,0,5.93,12.94,12.94,0,0,0,10.76,9.8,17.51,17.51,0,0,1-5.88,4.84c-3,1.81-6.51,3.86-8.21,9.33-1.44,4.63-6.81,7.83-13.47,8.07l-18.75-11.6c-6-13.27-23.06-14.36-43.08-14.36v4.25c17.25,0,32.09.79,38,9.79-5,.15-8.77,1.29-13,2.58a74.73,74.73,0,0,1-24.82,3.8v4.25a79.38,79.38,0,0,0,26.06-4c5-1.52,9-2.72,15.19-2.32l19.18,11.87h.61a21.41,21.41,0,0,0,14-4.86v0c8.13-5.74,15.59-6.07,28.5-1.23a20.49,20.49,0,0,0,7.16,1.47c5.17,0,8.17-2.79,10.71-5.16s4.71-4.38,8.79-3.88a20.52,20.52,0,0,1,6.78,2.89c4.63,2.66,9.87,5.68,20.21,2.29l.25-.1c9.26-4.42,28.93-1.43,40.68.36a81.75,81.75,0,0,0,9.33,1.15V320a86.58,86.58,0,0,1-8.69-1.1c-13-2-32.55-5-43-.06-8.45,2.74-12.25.55-16.64-2a24.17,24.17,0,0,0-8.28-3.41c-6.15-.77-9.42,2.28-12.31,5-3.37,3.14-6,5.61-13.49,2.82-9.44-3.53-17.38-5.07-25.51-2C-425.47,316.1-423.38,314.85-420.78,313.31Zm-2.91-19.3a8.74,8.74,0,0,1,0-4,8.8,8.8,0,0,1,8.51-6.78h66.68A8.8,8.8,0,0,1-340,290a8.73,8.73,0,0,1,0,4,8.83,8.83,0,0,1-7.35,6.61h-67.47l0,.08h-.31A8.82,8.82,0,0,1-423.69,294Z" transform="translate(506.46 -222.15)"/>
    <rect class="cls-2" y="110.6" width="207.64" height="4.25"/>
    <path class="cls-2" d="M-450.22,322.75l8.8,1.92,5.89-10L-455.34,298l-1.77,15.33Zm-1.8-16.39,11,9.27-2.5,4.24-4.22-.92-5-6.77Z" transform="translate(506.46 -222.15)"/>
  </g>
</svg>
