<svg id="Layer_1" data-name="Layer 1" xmlns="http://www.w3.org/2000/svg" width="207.64" height="132.71" viewBox="0 0 207.64 132.71">
  <defs>
    <style>
      .cls-1 {
        fill: none;
      }

      .cls-2 {
        fill: #02cfa6;
      }
    </style>
  </defs>
  <title>work-saw-3</title>
  <g>
    <path class="cls-1" d="M692.08,374.5c-.26,1.28.14,2.47.55,2.61l17,2.9c1.65.32,5.62-.9,9.09-2.12v0l13.72-5,1.47,4-5.2,1.91,7.78,13.49,16.4-4a9,9,0,0,0-.72-1.68l-12.5-22.16a8.26,8.26,0,0,0-6.06-4.47c-3.37-.43-5.2.81-8.33,3.54-1.58,1.39-4.41,3.35-7.14,5.26-2.55,1.78-5.19,3.62-6.36,4.67a3.82,3.82,0,0,1-2.66.94l-15.9-1.16C692.48,373,692.19,373.95,692.08,374.5Z" transform="translate(-579.54 -317.33)"/>
    <path class="cls-1" d="M712.37,349.7l18.43-7.21c-1.88-4-6.88-5.31-10.9-4.51-1.89.38-8,2.23-7.5,10.12A8.5,8.5,0,0,1,712.37,349.7Z" transform="translate(-579.54 -317.33)"/>
    <path class="cls-1" d="M730.88,350.83a9.87,9.87,0,0,0-.51-3.6L715.56,353a8.83,8.83,0,0,0,6.48,4.84A8,8,0,0,0,730.88,350.83Z" transform="translate(-579.54 -317.33)"/>
    <path class="cls-1" d="M719.58,391.61l6.48-8.9-1.44-2.5-.26.1c-2.07.79-4.09,1.54-6,2.18l-4.91,6L696.31,392a5.83,5.83,0,0,0,.21,2.91,4,4,0,0,0,1.06,1.95Z" transform="translate(-579.54 -317.33)"/>
    <path class="cls-1" d="M620,382.67a22.67,22.67,0,0,1,25.19-19.83l-.5,4.22a18.36,18.36,0,0,0-20.51,20l7.14-1.39A11.24,11.24,0,0,1,653,381.43l8.54-1.66,1.18-6.12,4.26-.83,0-.07a27.57,27.57,0,0,0-51.78,16l4.82-.94A22.62,22.62,0,0,1,620,382.67Z" transform="translate(-579.54 -317.33)"/>
    <polygon class="cls-1" points="90.94 59.14 86.79 59.95 84.07 74.04 87.27 74.69 87.26 74.71 93.03 75.91 90.94 59.14"/>
    <path class="cls-1" d="M727,441.63l-9.11-2.57-6.43,1.49c-.53.88-.66,3.73-.39,5.24h15.1A35.33,35.33,0,0,0,727,441.63Z" transform="translate(-579.54 -317.33)"/>
    <path class="cls-1" d="M739,436.51l1.59-.4-4.73-12a24,24,0,0,1-1.05-7l-.88,1.09c-.06.61-.15,1.52-.25,2.65-.39,4.07-1,10.89-1.78,16.73-.48,3.74-.9,6.36-1.33,8.21h5.22C735.74,445.33,734.93,437.69,739,436.51Z" transform="translate(-579.54 -317.33)"/>
    <path class="cls-1" d="M755.13,439.34l-11.36.36-3.32.84c-.52.89-.64,3.73-.38,5.26h16A26,26,0,0,0,755.13,439.34Z" transform="translate(-579.54 -317.33)"/>
    <path class="cls-1" d="M737.27,396.37l-13.69,14a3.69,3.69,0,0,0-.36,1.67c0,.27,0,.53-.08.79l-2.82,22.5,7.32,2.07q.81-6.35,1.82-16.94c.16-1.66.27-2.86.33-3.36l.07-.61,11.23-13.81L739.5,411c-.89,4.66-.25,10.09.33,11.57l5.07,12.88,9.12-.29a112.87,112.87,0,0,0-4.63-13.47,7.78,7.78,0,0,1-.69-4.94l4.23-20.91a21.23,21.23,0,0,0,.42-3.32Z" transform="translate(-579.54 -317.33)"/>
    <path class="cls-1" d="M671.3,372l.2,0h0l16.88-3.49-.44-2.26-17.86,3.47c.21.37.42.73.62,1.11S671.1,371.58,671.3,372Z" transform="translate(-579.54 -317.33)"/>
    <polygon class="cls-1" points="99.28 118.28 102.66 128.46 108.36 128.46 108.36 118.28 99.28 118.28"/>
    <path class="cls-1" d="M706.82,445.72c-.34-3,0-8.28,3.3-9.21l.1,0,5.84-1.35,2.86-22.84c0-.21,0-.43.07-.65a6.31,6.31,0,0,1,1.72-4.41L733,394.69l-4.58-7.95-6.29,8.64L698.57,401a3.67,3.67,0,0,1-1,.14,4.38,4.38,0,0,1-3-1.34,10.36,10.36,0,0,1-2.3-8.86,3.88,3.88,0,0,1,2.77-3l.1,0,16-3.3.35-.43a8.93,8.93,0,0,1-2.64,0l-17.11-2.93c-3.21-.73-4.46-4.44-3.8-7.62a7.57,7.57,0,0,1,.23-.8l-13.48,2.78,2.87,23-9.64-2A27.8,27.8,0,0,1,645.33,413l2.3,10.53h11.44l-2.5-6.36L673,401.69l16.33,8.7L693,422.85l-.63.67h10.7v12.09h-11v10.17h14.68Z" transform="translate(-579.54 -317.33)"/>
    <polygon class="cls-1" points="94.22 118.28 48.89 118.28 45.52 128.46 98.18 128.46 94.8 118.28 94.22 118.28"/>
    <path class="cls-1" d="M642.33,386.77a1.43,1.43,0,0,0,1-.29,1.41,1.41,0,0,0,.53-1,1.43,1.43,0,0,0-1.25-1.58h-.17a1.42,1.42,0,0,0-.17,2.84Z" transform="translate(-579.54 -317.33)"/>
    <polygon class="cls-1" points="35.34 118.28 35.34 128.46 41.04 128.46 44.41 118.28 35.34 118.28"/>
    <path class="cls-1" d="M641,413.08a27.76,27.76,0,0,1-6-1v11.45h8.31Z" transform="translate(-579.54 -317.33)"/>
    <path class="cls-1" d="M623,398.45l5.52-6.22,3.18,2.82-6,6.75a23.28,23.28,0,0,0,6.45,4.66l1.67-8.15,4.17.85L636.17,408a23.4,23.4,0,0,0,7.93.82l-2.64-7.92,4-1.34,2.86,8.58a23.78,23.78,0,0,0,4.39-1.61,23.37,23.37,0,0,0,2.87-1.66l-6.23-5.53,2.82-3.18,6.75,6a23.65,23.65,0,0,0,4.67-6.44l-2.81-.59L655.45,394l.85-4.17,3.14.64,1.2-6.24-10.84,2.1-.4-2.09a7,7,0,0,0-10.13-4.85,7,7,0,0,0-3.6,7.52l.4,2.09L620,392.17a22.12,22.12,0,0,0,3,6.29Zm13.88-13.77a5.69,5.69,0,0,1,6.31-5h0a5.68,5.68,0,0,1-.66,11.31,5.76,5.76,0,0,1-.68,0A5.68,5.68,0,0,1,636.86,384.68Z" transform="translate(-579.54 -317.33)"/>
    <polygon class="cls-1" points="108.71 104.4 106.18 95.98 94.11 89.55 82.05 100.96 84.06 106.08 107.04 106.18 108.71 104.4"/>
    <path class="cls-1" d="M614.88,431.36h84v-3.58H630.72V410.52a27.54,27.54,0,0,1-7.83-5.46l-12.24,14.39v11.91h4.23Z" transform="translate(-579.54 -317.33)"/>
    <path class="cls-2" d="M760.27,445.79c.22-7.9-6.92-25.7-7-25.9a3.58,3.58,0,0,1-.39-2.37l4.22-20.87c1-4.93.58-8.91-1.26-12.18l-12.5-22.17a12.57,12.57,0,0,0-9.22-6.59l-.36,0a12.18,12.18,0,0,0,1.35-4.36,12.37,12.37,0,0,0-.32-4,2.65,2.65,0,0,0,1.14-3.14l-.8-2.3c-2.36-6.85-10-9.27-16.07-8.05-7.1,1.43-11.38,7.14-10.9,14.56a4.06,4.06,0,0,1,0,.86c-2.16,1.23-1.82,3.21-1.29,4.75a2.66,2.66,0,0,0,1.33,1.6,3,3,0,0,0,2.32.06l1.38-.47a13.27,13.27,0,0,0,8.51,6.69c-1.38,1-3.07,2.2-4.73,3.36-2.69,1.88-5.24,3.65-6.59,4.84L693.83,369a5.1,5.1,0,0,0-1.09-.06,3.61,3.61,0,0,0,0-.48l-.74-3.84a3.35,3.35,0,0,0-3.84-2.76l-20.65,4a31.82,31.82,0,0,0-56.17,25.85l.4,2.09,4.08-.79a27.57,27.57,0,0,0,4.31,8.81l-13.69,16.1v17.73h4.23v10.17H579.54V450H787.18v-4.25Zm-48.78-5.24,6.43-1.49,9.11,2.57a35.33,35.33,0,0,1-.83,4.15H711.1C710.83,444.27,711,441.42,711.49,440.55Zm24.3,5.24h-5.22c.43-1.85.85-4.47,1.33-8.21.75-5.83,1.4-12.65,1.78-16.73.11-1.13.19-2,.25-2.65l.88-1.09a24,24,0,0,0,1.05,7l4.73,12-1.59.4C734.93,437.69,735.74,445.33,735.79,445.79Zm4.65-5.26,3.32-.84,11.36-.36a26,26,0,0,1,1,6.45h-16C739.8,444.27,739.93,441.42,740.44,440.53Zm8.25-23.82a7.78,7.78,0,0,0,.69,4.94A112.87,112.87,0,0,1,754,435.12l-9.12.29-5.07-12.88c-.58-1.48-1.23-6.91-.33-11.57l1.59-8.29-11.23,13.81-.07.61c-.06.5-.17,1.7-.33,3.36q-1,10.58-1.82,16.94l-7.32-2.07,2.82-22.5c0-.26.06-.52.08-.79a3.69,3.69,0,0,1,.36-1.67l13.69-14,16.07-3.89a21.23,21.23,0,0,1-.42,3.32ZM719.9,338c4-.8,9,.53,10.9,4.51l-18.43,7.21a8.5,8.5,0,0,0,0-1.59C711.9,340.21,718,338.36,719.9,338Zm-4.34,15,14.8-5.79a9.87,9.87,0,0,1,.51,3.6,8,8,0,0,1-8.83,7A8.83,8.83,0,0,1,715.56,353Zm-22.38,20.15,15.9,1.16a3.82,3.82,0,0,0,2.66-.94c1.17-1.05,3.8-2.89,6.36-4.67,2.73-1.9,5.55-3.87,7.14-5.26,3.12-2.73,5-4,8.33-3.54a8.26,8.26,0,0,1,6.06,4.47l12.5,22.16a9,9,0,0,1,.72,1.68l-16.4,4-7.78-13.49,5.2-1.91-1.47-4-13.72,5v0c-3.47,1.23-7.44,2.44-9.09,2.12l-17-2.9c-.41-.14-.81-1.32-.55-2.61C692.19,373.95,692.48,373,693.19,373.17Zm3.34,21.78a5.83,5.83,0,0,1-.21-2.91l17.14-3.53,4.91-6c1.91-.64,3.93-1.39,6-2.18l.26-.1,1.44,2.5-6.48,8.9-22,5.29A4,4,0,0,1,696.52,394.95Zm-8.59-28.75.44,2.26-16.88,3.49h0l-.2,0c-.19-.4-.39-.81-.6-1.21s-.41-.74-.62-1.11ZM666.81,392v0l-3.19-.65,2.72-14.09,4.15-.8,2.09,16.77Zm-37.13-30.81a27.61,27.61,0,0,1,37.25,11.52l0,.07-4.26.83-1.18,6.12L653,381.43a11.24,11.24,0,0,0-21.68,4.21L624.17,387a18.4,18.4,0,0,1,20.51-20l.5-4.22a22.63,22.63,0,0,0-25.2,25l-4.82.94A27.8,27.8,0,0,1,629.68,361.23Zm6.4,27.81-.4-2.09a7,7,0,0,1,13.05-4.6,7,7,0,0,1,.68,1.93l.4,2.09,10.84-2.1-1.2,6.24-3.14-.64-.85,4.17,5.34,1.09,2.81.59a23.65,23.65,0,0,1-4.67,6.44l-6.75-6-2.82,3.18,6.23,5.53a23.37,23.37,0,0,1-2.87,1.66,23.78,23.78,0,0,1-4.39,1.61l-2.86-8.58-4,1.34,2.64,7.92a23.4,23.4,0,0,1-7.93-.82l1.81-8.84-4.17-.85-1.67,8.15a23.28,23.28,0,0,1-6.45-4.66l6-6.75-3.18-2.82L623,398.45a22.12,22.12,0,0,1-3-6.29Zm-1.11,23a27.76,27.76,0,0,0,6,1l2.28,10.44H635Zm-24.32,7.37,12.24-14.39a27.54,27.54,0,0,0,7.83,5.46v17.26h68.13v3.58h-88.2Zm50.94-1.16,12.07-11.41,12.07,6.43,2.53,8.42-1.67,1.78-23-.1Zm-46.71,27.5V435.61H624l-3.37,10.17Zm10.18,0,3.37-10.17h45.92l3.37,10.17Zm57.14,0-3.37-10.17h9.07v10.17Zm10-10.17h11V423.52H692.4l.63-.67-3.75-12.46L673,401.69l-16.38,15.48,2.5,6.36H647.64L645.33,413a27.8,27.8,0,0,0,22.55-16.39l9.64,2-2.87-23,13.48-2.78a7.57,7.57,0,0,0-.23.8c-.65,3.18.59,6.9,3.8,7.62l17.11,2.93a8.93,8.93,0,0,0,2.64,0l-.35.43-16,3.3-.1,0a3.88,3.88,0,0,0-2.77,3,10.36,10.36,0,0,0,2.3,8.86,4.38,4.38,0,0,0,3,1.34,3.67,3.67,0,0,0,1-.14l23.53-5.65,6.29-8.64,4.58,7.95L720.7,407.23a6.31,6.31,0,0,0-1.72,4.41c0,.22,0,.44-.07.65l-2.86,22.84-5.84,1.35-.1,0c-3.32.93-3.63,6.23-3.3,9.21v.07H692.15Z" transform="translate(-579.54 -317.33)"/>
    <path class="cls-2" d="M641.82,391a5.76,5.76,0,0,0,.68,0,5.68,5.68,0,0,0,.66-11.31h0A5.68,5.68,0,0,0,641.82,391Zm-.74-5.81a1.43,1.43,0,0,1,1.41-1.26h.17a1.43,1.43,0,0,1,1.25,1.58,1.41,1.41,0,0,1-.53,1,1.42,1.42,0,0,1-2.3-1.29Z" transform="translate(-579.54 -317.33)"/>
    <rect class="cls-2" x="674.02" y="319.48" width="8.5" height="4.25" transform="translate(-635.14 162.13) rotate(-37.51)"/>
    <rect class="cls-2" x="657.16" y="332.42" width="8.5" height="4.25" transform="translate(-646.51 154.53) rotate(-37.51)"/>
    <rect class="cls-2" x="640.3" y="345.37" width="8.5" height="4.25" transform="translate(-657.88 146.94) rotate(-37.51)"/>
    <rect class="cls-2" x="655.26" y="347.14" width="8.5" height="4.25" transform="translate(-653.84 -103.96) rotate(-17.41)"/>
    <rect class="cls-2" x="675.54" y="340.77" width="8.5" height="4.25" transform="translate(-651 -98.19) rotate(-17.41)"/>
    <rect class="cls-2" x="695.83" y="334.41" width="8.5" height="4.25" transform="translate(-648.2 -92.2) rotate(-17.43)"/>
  </g>
</svg>
