<svg id="Layer_1" data-name="Layer 1" xmlns="http://www.w3.org/2000/svg" width="179.83" height="142.86" viewBox="0 0 179.83 142.86">
  <defs>
    <style>
      .cls-1 {
        fill: #02cfa6;
      }
    </style>
  </defs>
  <title>work-otb-3</title>
  <path class="cls-1" d="M1775.85,610l-3.7-2.09,10.29-18.21c.15-1.13.56-4.5.76-7.8.26-4.15,3.84-16.08,4.46-18.12.2-1.48,1.62-12.14,1.89-14.25.05-.42.11-.8.17-1.13l4.19.75c0,.27-.1.58-.14.92-.29,2.27-1.92,14.45-1.92,14.45l-.07.34c-1.14,3.73-4.13,14.1-4.33,17.3-.26,4.19-.82,8.34-.85,8.51l-.05.4Z" transform="translate(-1670.45 -467.33)"/>
  <path class="cls-1" d="M1802.85,610.19l-4.06-1.27c3.52-11.24,11.73-19.1,19.67-26.7a121.24,121.24,0,0,0,11.41-11.95c-.06-10.88-1.47-18.74-4.67-26.09a25,25,0,0,1-3-5.08c-2.7-3.71-6.4-5.91-10.32-8.25a51.75,51.75,0,0,1-8.5-5.88l2.85-3.16a47.81,47.81,0,0,0,7.83,5.39c4.17,2.48,8.47,5,11.7,9.56l.17.28a22,22,0,0,0,2.6,4.45l.28.28.16.36c4.57,10.28,5.18,20.36,5.18,28.86v.72l-.44.57a118.78,118.78,0,0,1-12.28,13C1813.5,592.85,1806,600,1802.85,610.19Z" transform="translate(-1670.45 -467.33)"/>
  <path class="cls-1" d="M1818.21,556.69l-2.14-8.73c-.09-.25-.87-2-5.16-6.23l-7-5.42,2.61-3.36,7.24,5.65c5,4.91,6.2,7.34,6.42,8.42l2.12,8.65Zm-2.17-8.83,0,.07Z" transform="translate(-1670.45 -467.33)"/>
  <path class="cls-1" d="M1810.35,556l-1.95-7.13c-.17-.3-1.08-1.68-4.24-4.11l2.59-3.37c4.44,3.41,5.44,5.39,5.67,6.08l0,.1,2,7.31Z" transform="translate(-1670.45 -467.33)"/>
  <path class="cls-1" d="M1812.46,565.07l-6.21-1.18a4.44,4.44,0,0,1-3.89-4.26l0-8.35.29-16.53s.09-.91-.44-1.08l-2.81-.49c-.37-.08-.69.18-.92.79l-3.8,11.2h0a11.89,11.89,0,0,0-.55,2.58c-.31,2.38-2.12,16.17-2.12,16.17l-4.22-.55s1.81-13.79,2.12-16.17a15.13,15.13,0,0,1,.85-3.67l3.72-11c1-2.68,3.33-4.06,5.82-3.51l2.84.5a5.07,5.07,0,0,1,3.75,5.58l-.28,16.2,0,8.22h0l0,0a1,1,0,0,0,.21.11l.15,0,6.27,1.19Z" transform="translate(-1670.45 -467.33)"/>
  <polygon class="cls-1" points="115.34 90.89 100.43 80.17 89.34 63.92 124.03 41.63 142.24 70.59 135.46 75.71 132.9 72.31 136.56 69.55 122.72 47.53 95.32 65.13 103.52 77.16 115.28 85.61 119.62 82.33 122.18 85.73 115.34 90.89"/>
  <path class="cls-1" d="M1740.53,593.48h-55.71a14.39,14.39,0,0,1-14.37-14.37V481.7a14.39,14.39,0,0,1,14.37-14.37h55.71a14.39,14.39,0,0,1,14.38,14.38v97.41A14.39,14.39,0,0,1,1740.53,593.48Zm-55.71-121.9a10.13,10.13,0,0,0-10.12,10.12v97.41a10.13,10.13,0,0,0,10.12,10.12h55.71a10.13,10.13,0,0,0,10.12-10.12V481.7a10.13,10.13,0,0,0-10.12-10.12Z" transform="translate(-1670.45 -467.33)"/>
  <path class="cls-1" d="M1711.07,517.8a2.12,2.12,0,0,1-.57-.08l-30.71-8.53,1.14-4.1,27.13,7.53-9.3-34.84,4.11-1.1,10.26,38.44a2.13,2.13,0,0,1-2.05,2.67Z" transform="translate(-1670.45 -467.33)"/>
  <rect class="cls-1" x="1703.13" y="485.64" width="36.91" height="4.25" transform="translate(-1641.07 602) rotate(-34.79)"/>
  <path class="cls-1" d="M1740.53,585.7h-55.71a6.6,6.6,0,0,1-6.59-6.59V481.7a6.6,6.6,0,0,1,6.59-6.59h55.71a6.6,6.6,0,0,1,6.59,6.59v97.41A6.6,6.6,0,0,1,1740.53,585.7Zm-55.71-106.33a2.37,2.37,0,0,0-2.34,2.34v97.41a2.37,2.37,0,0,0,2.34,2.34h55.71a2.37,2.37,0,0,0,2.34-2.34V514.82l-31.6,3-.4-4.23,32-3V481.7a2.37,2.37,0,0,0-2.34-2.34Z" transform="translate(-1670.45 -467.33)"/>
  <path class="cls-1" d="M1681.49,572.47l-2.27-3.59,29.36-18.57.32-30.53-15.71,11-10.8,33.63-4-1.3,11-34.31a2.12,2.12,0,0,1,.81-1.09l19.69-13.75a2.13,2.13,0,0,1,3.34,1.77l-.38,35.81a2.13,2.13,0,0,1-1,1.77Z" transform="translate(-1670.45 -467.33)"/>
  <rect class="cls-1" x="1715.31" y="550.13" width="4.25" height="34.8" transform="translate(-1756.17 242.64) rotate(-22.8)"/>
  <rect class="cls-1" x="1710.61" y="547.71" width="34.46" height="4.25" transform="translate(-1715.16 -299.32) rotate(-5.5)"/>
  <path class="cls-1" d="M1835.91,593.48h-22.29v-4.25h22.29A10.13,10.13,0,0,0,1846,579.11V481.7a10.13,10.13,0,0,0-10.12-10.12H1780.2a10.13,10.13,0,0,0-10.12,10.12V514h-4.25V481.7a14.39,14.39,0,0,1,14.38-14.37h55.71a14.39,14.39,0,0,1,14.38,14.38v97.41A14.39,14.39,0,0,1,1835.91,593.48Zm-50.85,0h-4.86a14.39,14.39,0,0,1-14.37-14.37V539.43h4.25v39.68a10.13,10.13,0,0,0,10.12,10.12h4.86Zm50.85-7.79h-15.34v-4.25h15.34a2.37,2.37,0,0,0,2.34-2.34V481.7a2.37,2.37,0,0,0-2.34-2.34H1780.2a2.37,2.37,0,0,0-2.34,2.34V514h-4.25V481.7a6.6,6.6,0,0,1,6.59-6.59h55.71a6.6,6.6,0,0,1,6.59,6.59v97.41A6.6,6.6,0,0,1,1835.91,585.7Zm-49.85,0h-5.86a6.6,6.6,0,0,1-6.59-6.59v-31.7h4.25v31.7a2.37,2.37,0,0,0,2.34,2.34h5.86Z" transform="translate(-1670.45 -467.33)"/>
  <polygon class="cls-1" points="134.06 58.98 130 57.7 136.35 37.48 104.58 26.16 106 22.16 141.64 34.85 134.06 58.98"/>
  <rect class="cls-1" x="1804.03" y="488.24" width="37.28" height="4.25" transform="translate(-1487.15 958.47) rotate(-44.77)"/>
  <rect class="cls-1" x="1822.78" y="496.45" width="4.25" height="41" transform="translate(-1433.5 1086.87) rotate(-48.97)"/>
</svg>
