<svg id="Layer_1" data-name="Layer 1" xmlns="http://www.w3.org/2000/svg" width="207.64" height="119.53" viewBox="0 0 207.64 119.53">
  <defs>
    <style>
      .cls-1 {
        fill: none;
      }

      .cls-2 {
        fill: #02cfa6;
      }
    </style>
  </defs>
  <title>work-exc-1</title>
  <g>
    <rect class="cls-1" x="118.04" y="47.14" width="11.68" height="6.08"/>
    <path class="cls-1" d="M-152.08,160.61h-7.41v6.08h21.32c4,0,7.82-7.29,7.82-12.73a6.29,6.29,0,0,0-.94-3.7,3.05,3.05,0,0,0-2.75-1.18h-7.34C-143.19,156.54-146.95,160.61-152.08,160.61Z" transform="translate(293.46 -113.47)"/>
    <rect class="cls-1" x="133.97" y="26.39" width="2.9" height="8.58"/>
    <path class="cls-1" d="M-175.42,156.36h23.34c2.22,0,3.78-1.64,4.87-3.67h-28.2Z" transform="translate(293.46 -113.47)"/>
    <path class="cls-1" d="M-196.44,134.43h-1.81c-5.35,7.7-8.18,17.25-8.42,28.38a3.82,3.82,0,0,0,1,2.62,3.87,3.87,0,0,0,1.59.95C-204.35,154-201.8,143.24-196.44,134.43Z" transform="translate(293.46 -113.47)"/>
    <path class="cls-1" d="M-187.43,134.43h-3.94a47.9,47.9,0,0,0-8,21.93h11.92Z" transform="translate(293.46 -113.47)"/>
    <polygon class="cls-1" points="53.29 41.89 64.94 55.93 68.44 41.5 66.21 43.93 53.33 41.79 53.29 41.89"/>
    <path class="cls-1" d="M-201.89,196.7l0-.08h67.47A8.83,8.83,0,0,0-127,190a8.74,8.74,0,0,0,0-4,8.8,8.8,0,0,0-8.51-6.78H-202.2a8.8,8.8,0,0,0-8.51,6.78,8.74,8.74,0,0,0,0,4,8.82,8.82,0,0,0,8.49,6.69Zm-6.86-8.72a6.56,6.56,0,0,1,6.55-6.54h66.67v4.25h0a2.3,2.3,0,0,0-2.29,2.29,2.3,2.3,0,0,0,2.29,2.29,2.3,2.3,0,0,0,2.29-2.29H-129a6.55,6.55,0,0,1-6.54,6.54,6.55,6.55,0,0,1-6.54-6.54,6.5,6.5,0,0,1,.42-2.29H-152.2a2.3,2.3,0,0,0-2.29,2.29,2.3,2.3,0,0,0,2.29,2.29A2.3,2.3,0,0,0-149.9,188h4.25a6.55,6.55,0,0,1-6.54,6.54,6.55,6.55,0,0,1-6.54-6.54,6.5,6.5,0,0,1,.42-2.29h-10.55a2.3,2.3,0,0,0-2.29,2.29,2.3,2.3,0,0,0,2.29,2.29,2.3,2.3,0,0,0,2.29-2.29h4.25a6.55,6.55,0,0,1-6.54,6.54,6.55,6.55,0,0,1-6.54-6.54,6.5,6.5,0,0,1,.42-2.29h-10.55a2.3,2.3,0,0,0-2.29,2.29,2.3,2.3,0,0,0,2.29,2.29,2.3,2.3,0,0,0,2.29-2.29H-179a6.55,6.55,0,0,1-6.54,6.54,6.55,6.55,0,0,1-6.54-6.54,6.5,6.5,0,0,1,.42-2.29h-10.54a2.3,2.3,0,0,0-2.3,2.29,2.3,2.3,0,0,0,2.29,2.29,2.3,2.3,0,0,0,2.29-2.29h4.25a6.55,6.55,0,0,1-6.54,6.54A6.55,6.55,0,0,1-208.75,188Z" transform="translate(293.46 -113.47)"/>
    <path class="cls-1" d="M-183.18,160.61h-16.54q-.16,3-.06,6.08h20.11V134.43h-3.51Z" transform="translate(293.46 -113.47)"/>
    <path class="cls-1" d="M-233.56,170l-11.52-13.88.64-1.55h0l12.5-30.26,6.23-.78,19.34,16.83a47.85,47.85,0,0,1,4.09-7.56l-20.06-14.88-11.38,1.46L-248,158.21l3,8.37Z" transform="translate(293.46 -113.47)"/>
    <path class="cls-2" d="M-225.92,176.69l6.63-27.3-6.22-.18-3.32,3.62-9.64-1.6,9.51-23,1.88-.23,19.1,16.61a61.92,61.92,0,0,0-3,18.14,8.09,8.09,0,0,0,2.26,5.68,9.16,9.16,0,0,0,6.83,2.54h63.67c6.69,0,12.07-9.29,12.07-17a10.42,10.42,0,0,0-1.77-6.22,7.27,7.27,0,0,0-6.17-2.91h-10.82l-.33,1.73c-.1.52-.24,1.18-.43,1.89h-6.72V135.61h-11.41v12.83h-11.68V130.17h-23.23l-22.53-16.71-15.64,2-15.66,42.72,4.2,11.86Zm-1.33-19.28L-225,155l-3.5,14.42-11.65-14,0-.09Zm20.57,5.41c.24-11.14,3.07-20.68,8.42-28.38h1.81c-5.35,8.82-7.91,19.53-7.6,32a3.87,3.87,0,0,1-1.59-.95A3.82,3.82,0,0,1-206.68,162.81Zm15.3-28.38h3.94v21.93h-11.92A47.9,47.9,0,0,1-191.37,134.43Zm16,26.19h11.68v6.08h-11.68ZM-134,149.08a3.05,3.05,0,0,1,2.75,1.18,6.29,6.29,0,0,1,.94,3.7c0,5.44-3.86,12.73-7.82,12.73h-21.32v-6.08h7.41c5.13,0,8.89-4.08,10.7-11.53Zm-25.45-9.22h2.9v8.58h-2.9Zm7.15,12.83h5.12c-1.08,2-2.65,3.67-4.87,3.67h-23.34V152.7h23.08ZM-179.67,149v17.72h-20.11q-.09-3.12.06-6.08h16.54V134.43h3.51Zm-54-29.61,11.38-1.46,20.06,14.88a47.85,47.85,0,0,0-4.09,7.56l-19.34-16.83-6.23.78-12.5,30.26h0l-.64,1.55L-233.56,170l-11.43-3.4-3-8.37Z" transform="translate(293.46 -113.47)"/>
    <path class="cls-2" d="M-195.66,188h-4.25a2.3,2.3,0,0,1-2.29,2.29,2.3,2.3,0,0,1-2.29-2.29,2.3,2.3,0,0,1,2.3-2.29h10.54a6.5,6.5,0,0,0-.42,2.29,6.55,6.55,0,0,0,6.54,6.54A6.55,6.55,0,0,0-179,188h-4.25a2.3,2.3,0,0,1-2.29,2.29,2.3,2.3,0,0,1-2.29-2.29,2.3,2.3,0,0,1,2.29-2.29H-175a6.5,6.5,0,0,0-.42,2.29,6.55,6.55,0,0,0,6.54,6.54,6.55,6.55,0,0,0,6.54-6.54h-4.25a2.3,2.3,0,0,1-2.29,2.29,2.3,2.3,0,0,1-2.29-2.29,2.3,2.3,0,0,1,2.29-2.29h10.55a6.5,6.5,0,0,0-.42,2.29,6.55,6.55,0,0,0,6.54,6.54,6.55,6.55,0,0,0,6.54-6.54h-4.25a2.3,2.3,0,0,1-2.29,2.29,2.3,2.3,0,0,1-2.29-2.29,2.3,2.3,0,0,1,2.29-2.29h10.55a6.5,6.5,0,0,0-.42,2.29,6.55,6.55,0,0,0,6.54,6.54A6.55,6.55,0,0,0-129,188h-4.25a2.3,2.3,0,0,1-2.29,2.29,2.3,2.3,0,0,1-2.29-2.29,2.3,2.3,0,0,1,2.29-2.29h0v-4.25h-66.67a6.56,6.56,0,0,0-6.55,6.54,6.55,6.55,0,0,0,6.54,6.54A6.55,6.55,0,0,0-195.66,188Z" transform="translate(293.46 -113.47)"/>
    <path class="cls-2" d="M-207.78,209.31c2.9-1.72,6.15-3.65,8.61-8.36h63.65a13.13,13.13,0,0,0,1.41-.08h48.29v-4.25h-40A13,13,0,0,0-122.9,191a13,13,0,0,0,0-5.93A13.09,13.09,0,0,0-135.52,175H-202.2a13.09,13.09,0,0,0-12.65,10.08,13,13,0,0,0,0,5.93,12.94,12.94,0,0,0,10.76,9.8,17.51,17.51,0,0,1-5.88,4.84c-3,1.81-6.51,3.86-8.21,9.33-1.44,4.63-6.81,7.83-13.47,8.07l-18.75-11.6c-6-13.27-23.06-14.36-43.08-14.36v4.25c17.25,0,32.09.79,38,9.79-5,.15-8.77,1.29-13,2.58a74.73,74.73,0,0,1-24.82,3.8v4.25a79.38,79.38,0,0,0,26.06-4c5-1.52,9-2.72,15.19-2.32l19.18,11.87h.61a21.41,21.41,0,0,0,14-4.86v0c8.13-5.74,15.59-6.07,28.5-1.23a20.49,20.49,0,0,0,7.16,1.47c5.17,0,8.17-2.79,10.71-5.16s4.71-4.38,8.79-3.88a20.51,20.51,0,0,1,6.78,2.89c4.63,2.66,9.87,5.68,20.21,2.29l.25-.1c9.26-4.42,28.93-1.43,40.68.36a81.83,81.83,0,0,0,9.33,1.15V216a86.7,86.7,0,0,1-8.69-1.1c-13-2-32.55-5-43-.06-8.45,2.74-12.25.55-16.64-2a24.17,24.17,0,0,0-8.28-3.41c-6.15-.77-9.42,2.28-12.31,5-3.37,3.14-6,5.61-13.49,2.82-9.44-3.53-17.38-5.07-25.51-2C-212.47,212.1-210.38,210.85-207.78,209.31Zm-2.91-19.3a8.74,8.74,0,0,1,0-4,8.8,8.8,0,0,1,8.51-6.78h66.68A8.8,8.8,0,0,1-127,186a8.74,8.74,0,0,1,0,4,8.83,8.83,0,0,1-7.35,6.61h-67.47l0,.08h-.31A8.82,8.82,0,0,1-210.69,190Z" transform="translate(293.46 -113.47)"/>
    <rect class="cls-2" y="115.28" width="207.64" height="4.25"/>
  </g>
</svg>
