<svg id="Layer_1" data-name="Layer 1" xmlns="http://www.w3.org/2000/svg" width="207.64" height="122.89" viewBox="0 0 207.64 122.89">
  <defs>
    <style>
      .cls-1 { fill: none; } .cls-2 { fill: #02cfa6; }
    </style>
  </defs>
  <title>
    work-geo-5
  </title>
  <path class="cls-1" d="M103.38 99.42h-7.96l-2.29 19.22h10.25V99.42zM92.85 39.73h26.61a1.37 1.37 0 0 0 1.35-1.35v-4.77a1.37 1.37 0 0 0-1.35-1.35h-11.78v3.71h-4.25v-3.71H92.89a1.37 1.37 0 0 0-1.35 1.35v4.77a1.37 1.37 0 0 0 1.31 1.35zM58.39 118.64c-.26-1.44-.47-3.3-.72-5.71-.06-.59-.11-1.06-.14-1.32v-.1l-1.43-16a3.83 3.83 0 0 0-.61-1.16l-.29-.45-.28-.45a6 6 0 0 1-.81 3.61l-6.1 13 2.49.84a3.91 3.91 0 0 1 2.87 3.84v3.82zM62.25 115.58c.14 1.12.3 2.27.47 3.06h13.52l-.09-3.55-.18-.06-4.4-1.35zM107.63 118.64h7.05c1.14 0 2.2 0 3.18-.11l-2.28-19.11h-8zM141.69 102.98c3.49 0 5.84 0 6.61-1.37a8.55 8.55 0 0 0 .54-3.53V61.16H140v2.12h4.35v4.25H140v2.4h4.35v4.25H140v2.4h6.59v4.25H140v2.4h4.35v4.25H140v2.4h4.35v4.25H140v2.4h6.59v4.25H140v2.17zM49.11 114.99l-3.75-1.26-10.05.65v.2a19.72 19.72 0 0 0 .53 4.05h13.28z"/>
  <path class="cls-1" d="M43.56 109.59l6.69-14.29c.51-1.09.51-1.09.31-1.85l-3.23-12.27 2.83-3.48 8.64 14 .22.35a6.73 6.73 0 0 1 1.29 3.11l1.43 15.91v.25l6.87-1.41-1-20a7.6 7.6 0 0 0-1.52-3.79l-12-15.27-19 .69v.11c-.49 2.65-.6 3.21.42 6l5.47 14.89a3.65 3.65 0 0 1 0 3.16l-.14.4-4.71 13.94zM53.33 66.68l3.18-14.64-7.38 3.84-2-3.77 11-5.71.39-.21 2.08-1.1c3.28-1.72 10.12-5.3 11.51-6.89l10.77-12.26c.77-.92.66-1.2.6-1.34l-2.21-5.47L68.68 34.5a3.68 3.68 0 0 1-2.4 1.21c-6 .38-13.42 1-19.06 1.56a7.63 7.63 0 0 0-6.89 5.75l-4.51 24.3z"/>
  <path class="cls-1" d="M61.46 49.49l-.35 1.62 6 3.89 22.42-4.6a3.87 3.87 0 0 0 .31-2.07 6.14 6.14 0 0 0-.77-2.8l-17.85 4.41-5.53-2.63zM54.1 29.73a9.66 9.66 0 0 0 1.88-9.34l-16.52 5.34.09.24a11.09 11.09 0 0 0 2.26 3.91 8.71 8.71 0 0 0 12.29-.15zM56.22 15.82a9.57 9.57 0 0 1-.75-.91c-5-7-11.42-4.32-13.26-3.34-3.78 2-6.95 6.32-6.14 10.79z"/>
  <path class="cls-2" d="M158.505 12.92l7.36-4.25 2.126 3.68-7.36 4.25zM140.096 23.55l7.36-4.25 2.126 3.682-7.36 4.25zM176.913 2.297l3.95-2.28 2.124 3.68-3.95 2.28zM140.056 48.198l2.125-3.68 7.363 4.25-2.125 3.68zM158.487 58.83l2.125-3.68 7.36 4.25-2.124 3.68z"/>
  <path class="cls-2" d="M207.64 118.64h-78.52a13.79 13.79 0 0 0 3.69-7.38c.73-3.72 3.25-4.09 8.84-4a32.58 32.58 0 0 0 4.67-.18h24.14v-4.25h-18a13.19 13.19 0 0 0 .67-4.3v-.38c.13-4.12.26-8 9-10.41 10.07-2.75 15.54-8 19.93-12.24s7.49-7.21 13.47-7.21v-4.25c-6 0-10 2.52-13.53 5.7l1-1.65-3.95-2.28-2.13 3.68 3.32 1.91-1.08 1c-4.25 4.09-9.07 8.73-18.1 11.2a20.67 20.67 0 0 0-7.92 3.79V56.9h-17.38v46.43a8.25 8.25 0 0 0-7.12 7.1c-.8 4-2.7 6.33-6.57 7.41l-8.22-68.89-4.22.5 5.45 45.71h-7.45v-46h-4.25v46h-7.45l5.45-45.71-4.22-.5-8.32 69.68h-8.38l-.1-3.87a4 4 0 0 0-3.18-3.81L73 109.67l-.16-.25-1-19.66a11.84 11.84 0 0 0-2.43-6.21L57.34 68.22l2.75-12.66 6.08 4 24.07-4.94a4.26 4.26 0 0 0 3.29-2.89 10.57 10.57 0 0 0-.55-7.68h26.48a5.61 5.61 0 0 0 5.5-4.56l4.11 2.37 2.13-3.68-3.93-2.27 3.93-2.27-2.13-3.68-4.17 2.41a5.61 5.61 0 0 0-5.44-4.34h-11.78v-3.86h-4.25v3.86H92.89a5.61 5.61 0 0 0-5.6 5.6v4.77a5.56 5.56 0 0 0 .86 3l-16.49 4.07-1.48-.7a23.46 23.46 0 0 0 5.2-3.74l10.8-12.3c.61-.72 2.45-2.92 1.32-5.7l-2.68-6.64a3.34 3.34 0 0 0-2.68-2 3.58 3.58 0 0 0-3.3 1.09l-13.11 16c-2.49.16-5.25.36-8 .58a14 14 0 0 0 2.75-11.66l1.58-.59a3 3 0 0 0 1.8-1.54 2.63 2.63 0 0 0 0-2.07c-.61-1.63-1.63-3.45-4.17-3a4.11 4.11 0 0 1-.67-.78C53.44 4.64 45.45 5.07 40.31 7.8c-5.75 3.06-10.43 10.18-7.77 17.38l.9 2.44a2.67 2.67 0 0 0 1.4 1.51 2.67 2.67 0 0 0 1.62.2 13.22 13.22 0 0 0 2.47 3.58 12.89 12.89 0 0 0 2.55 1.91 12 12 0 0 0-5.14 7.11l-5.39 29a12.3 12.3 0 0 0 .61 8.23l5.37 14.63.1.28.06.16v.11l-5.34 15.39a14.74 14.74 0 0 0-.7 5 24.82 24.82 0 0 0 .41 3.89H-.01v4.25h207.64zm-67.63-17.84h6.59v-4.25h-6.59v-2.4h4.35V89.9h-4.35v-2.4h4.35v-4.25h-4.35v-2.4h6.59V76.6h-6.59v-2.4h4.35v-4.27h-4.35v-2.4h4.35v-4.25h-4.35v-2.12h8.84v36.92a8.55 8.55 0 0 1-.54 3.53c-.78 1.34-3.12 1.41-6.61 1.37h-1.68zm-22.14 17.73c-1 .07-2 .11-3.18.11h-7.05V99.42h8zM95.46 99.42h8v19.22H93.21zm-19.45 15.6l.18.06.09 3.55H62.76c-.17-.79-.33-1.94-.47-3.06l9.32-1.91zm-25.49-4l-2.49-.84 6.1-13a6 6 0 0 0 .81-3.61l.28.45.29.45a3.83 3.83 0 0 1 .61 1.16l1.43 16v.1c0 .25.08.72.14 1.32.25 2.41.46 4.27.72 5.71h-5v-3.82a3.91 3.91 0 0 0-2.95-3.97zm41-77.34a1.37 1.37 0 0 1 1.35-1.35h10.54v3.71h4.25v-3.71h11.8a1.37 1.37 0 0 1 1.35 1.35v4.77a1.37 1.37 0 0 1-1.35 1.28H92.89a1.37 1.37 0 0 1-1.35-1.35zm-2.49 11.89a6.14 6.14 0 0 1 .77 2.8 3.87 3.87 0 0 1-.31 2.07l-22.42 4.6-6-3.89.35-1.62 4.21-2.19 5.53 2.63zm-46.79-34c1.85-1 8.26-3.64 13.26 3.34a9.57 9.57 0 0 0 .75.91L36.1 22.35c-.84-4.46 2.36-8.78 6.11-10.78zm-2.78 14.16l16.52-5.35a9.66 9.66 0 0 1-1.88 9.34 8.71 8.71 0 0 1-12.29.17 11.09 11.09 0 0 1-2.26-3.91zm.9 17.29a7.63 7.63 0 0 1 6.89-5.75c5.64-.57 13.1-1.19 19.06-1.56a3.68 3.68 0 0 0 2.4-1.21L81.3 19.13l2.21 5.47c.06.15.17.42-.6 1.34L72.14 38.2c-1.4 1.59-8.23 5.17-11.51 6.89l-2.08 1.1-.39.21-11 5.71 2 3.77 7.38-3.84-3.18 14.64-17.48.63zm.47 53.13l.14-.4a3.65 3.65 0 0 0 0-3.16l-5.51-14.86c-1-2.78-.92-3.33-.42-6v-.11l19-.69 12 15.27a7.6 7.6 0 0 1 1.52 3.79l1 20-6.87 1.41v-.25l-1.43-15.91a6.73 6.73 0 0 0-1.29-3.11l-.22-.35-8.64-14-2.83 3.48 3.23 12.27c.2.76.2.76-.31 1.85l-6.69 14.29-7.43.48zm-5.54 18.45v-.2l10.05-.65 3.75 1.26v3.64H35.81a19.72 19.72 0 0 1-.51-4.06z"/>
</svg>