<svg id="Layer_1" data-name="Layer 1" xmlns="http://www.w3.org/2000/svg" width="207.52" height="118.78" viewBox="0 0 207.52 118.78">
  <defs>
    <style>
      .cls-1 {
        fill: none;
      }

      .cls-2 {
        fill: #02cfa6;
      }
    </style>
  </defs>
  <title>work-home-1</title>
  <g>
    <polygon class="cls-1" points="134.26 37.03 134.26 34.87 134.03 34.18 104.97 34.18 104.97 29.93 132.61 29.93 127.71 15.2 87.4 15.2 103.12 37.03 134.26 37.03"/>
    <rect class="cls-1" x="79.62" y="61.79" width="9.79" height="5.56"/>
    <rect class="cls-1" x="59.04" y="4.25" width="7.91" height="6.69"/>
    <polygon class="cls-1" points="89.41 57.54 89.41 41.09 84.52 34.17 79.62 41.09 79.62 57.54 89.41 57.54"/>
    <rect class="cls-1" x="55.39" y="49.47" width="9.79" height="8.07"/>
    <polygon class="cls-1" points="66.95 15.2 59.04 15.2 58.33 15.2 41.32 15.2 36.42 29.93 64.06 29.93 64.06 34.18 35 34.18 34.77 34.87 34.77 37.03 65.91 37.03 81.63 15.2 66.95 15.2"/>
    <rect class="cls-1" x="55.39" y="61.79" width="9.79" height="5.56"/>
    <polygon class="cls-1" points="53 107.53 44.2 99.98 44.2 114.52 55.02 114.52 53 107.53"/>
    <rect class="cls-1" x="104.16" y="49.47" width="9.79" height="8.07"/>
    <rect class="cls-1" x="104.16" y="61.79" width="9.79" height="5.56"/>
    <path class="cls-2" d="M626.47,411.48a5.08,5.08,0,0,0,1.17,5.67l26.61,26.28a6.43,6.43,0,0,0,4.44,2.09,4.67,4.67,0,0,0,.92-.09,5.53,5.53,0,0,0,3.94-3.68l3.65-8.88,3.05,1.25a6.84,6.84,0,0,0,4,4.39l14.56,6a6.55,6.55,0,0,0,6.65-.78,7.35,7.35,0,0,0,2.75-6.69A6.55,6.55,0,0,0,694,431.8l-14.56-6a6.85,6.85,0,0,0-7,1.1l2.74,3.25a2.6,2.6,0,0,1,2.68-.42l14.56,6A2.32,2.32,0,0,1,694,437.6a3.11,3.11,0,0,1-1.13,2.75,2.31,2.31,0,0,1-2.44.21l-14.56-6a2.61,2.61,0,0,1-1.61-2.18l-.12-1.29-9.23-3.79-5.26,12.81c-.32.77-.66,1.09-.86,1.13s-.75-.09-1.52-.86l-26.65-26.32a.87.87,0,0,1-.18-1,.9.9,0,0,1,.88-.58h37.4c1.09,0,1.57.29,1.69.46s.13.64-.18,1.39l-4.54,10.81,3.92,1.64L674.13,416a5.53,5.53,0,0,0-.22-5.39,6,6,0,0,0-5.22-2.35H631.35A5.06,5.06,0,0,0,626.47,411.48Z" transform="translate(-579.54 -332.23)"/>
    <path class="cls-2" d="M664.05,350.7l16.43,22.81H718v-7.1l-7.73-23.23H650.73V332.23H634.32v10.95H617.79l-7.73,23.23v7.1h37.57Zm43.2-3.27,4.9,14.73H684.51v4.25h29.06l.23.69v2.16H682.66l-15.72-21.83Zm-60.76-10.95v6.69h-7.91v-6.69Zm-32.17,32.77V367.1l.23-.69H643.6v-4.25H616l4.9-14.73h40.31l-15.72,21.83Z" transform="translate(-579.54 -332.23)"/>
    <path class="cls-2" d="M697.74,377.45H679.44v26.38h18.29Zm-4.25,4.25v8.07h-9.79V381.7Zm-9.79,17.88V394h9.79v5.56Z" transform="translate(-579.54 -332.23)"/>
    <path class="cls-2" d="M673.2,372,664.05,359,654.9,372v31.87h18.3Zm-9.15-5.57,4.9,6.92v16.45h-9.79V373.31Zm-4.9,33.18V394h9.79v5.56Z" transform="translate(-579.54 -332.23)"/>
    <path class="cls-2" d="M649,377.45h-18.3v26.38H649Zm-4.25,4.25v8.07h-9.79V381.7Zm-9.79,17.88V394h9.79v5.56Z" transform="translate(-579.54 -332.23)"/>
    <path class="cls-2" d="M639,446.75l-2.71-9.4L623.74,426.6V377.72h-4.25v49.08c-3.74,4.15-5.37,5-5.89,5.13-.49-.88-.73-3.77-.87-5.55-.43-5.3-1-12.56-7.32-12.56-6.78,0-7.67,7.72-8.38,13.93-.47,4-1,8.61-2.84,10a3,3,0,0,1-2.53.38c-1.82-.32-3.84-2.4-5.62-4.23-2.1-2.17-4.09-4.22-6.48-4.22v4.25c.66.06,2.4,1.85,3.44,2.92,2.23,2.3,4.76,4.91,7.94,5.46a9.76,9.76,0,0,0,1.66.15,6.73,6.73,0,0,0,4.14-1.32c3.32-2.48,3.93-7.78,4.52-12.91.71-6.14,1.38-10.16,4.16-10.16,2.2,0,2.68,3.75,3.08,8.65.36,4.45.68,8.29,3.71,9.3,2,.66,4.18-.24,7.29-3.13v13.85H579.54V451H787.06v-4.25ZM623.74,432.2l8.8,7.55,2,7H623.74Z" transform="translate(-579.54 -332.23)"/>
    <rect class="cls-2" x="124.83" y="45.5" width="4.25" height="34.43"/>
  </g>
</svg>
