<svg id="Layer_1" data-name="Layer 1" xmlns="http://www.w3.org/2000/svg" width="207.64" height="102.83" viewBox="0 0 207.64 102.83">
  <defs>
    <style>
      .cls-1 {
        fill: none;
      }

      .cls-2 {
        fill: #02cfa6;
      }
    </style>
  </defs>
  <title>work-exc-3</title>
  <g>
    <rect class="cls-1" x="133.97" y="9.69" width="2.9" height="8.58"/>
    <path class="cls-1" d="M-227.37,226.43a47.9,47.9,0,0,0-8,21.93h11.92V226.43Z" transform="translate(329.46 -222.17)"/>
    <path class="cls-1" d="M-211.42,248.36h23.34c2.22,0,3.78-1.64,4.87-3.67h-28.2Z" transform="translate(329.46 -222.17)"/>
    <path class="cls-1" d="M-188.08,252.61h-7.41v6.08h21.32c4,0,7.82-7.29,7.82-12.72a6.3,6.3,0,0,0-.94-3.7,3.05,3.05,0,0,0-2.75-1.18h-7.34C-179.19,248.54-182.95,252.61-188.08,252.61Z" transform="translate(329.46 -222.17)"/>
    <rect class="cls-1" x="118.04" y="30.44" width="11.68" height="6.08"/>
    <polygon class="cls-1" points="54.22 64.61 68.67 76.86 70.26 66.78 54.28 63.05 54.22 64.61"/>
    <path class="cls-1" d="M-219.18,252.61h-16.54q-.16,3-.06,6.08h20.11V226.43h-3.51Z" transform="translate(329.46 -222.17)"/>
    <path class="cls-1" d="M-241.63,257.43a3.86,3.86,0,0,0,1.59.95c-.31-12.42,2.25-23.13,7.6-32h-1.81c-5.35,7.7-8.18,17.25-8.42,28.38A3.82,3.82,0,0,0-241.63,257.43Z" transform="translate(329.46 -222.17)"/>
    <path class="cls-1" d="M-237.89,288.7l0-.08h67.47A8.83,8.83,0,0,0-163,282a8.72,8.72,0,0,0,0-4,8.8,8.8,0,0,0-8.51-6.78H-238.2a8.8,8.8,0,0,0-8.51,6.78,8.74,8.74,0,0,0,0,4,8.82,8.82,0,0,0,8.49,6.69Zm-6.86-8.72a6.56,6.56,0,0,1,6.55-6.54h66.67v4.25h0a2.3,2.3,0,0,0-2.29,2.29,2.3,2.3,0,0,0,2.29,2.29,2.3,2.3,0,0,0,2.29-2.29H-165a6.55,6.55,0,0,1-6.54,6.54,6.55,6.55,0,0,1-6.54-6.54,6.5,6.5,0,0,1,.42-2.29H-188.2a2.3,2.3,0,0,0-2.29,2.29,2.3,2.3,0,0,0,2.29,2.29A2.3,2.3,0,0,0-185.9,280h4.25a6.55,6.55,0,0,1-6.54,6.54,6.55,6.55,0,0,1-6.54-6.54,6.5,6.5,0,0,1,.42-2.29h-10.55a2.3,2.3,0,0,0-2.29,2.29,2.3,2.3,0,0,0,2.29,2.29,2.3,2.3,0,0,0,2.29-2.29h4.25a6.55,6.55,0,0,1-6.54,6.54,6.55,6.55,0,0,1-6.54-6.54,6.5,6.5,0,0,1,.42-2.29h-10.55a2.3,2.3,0,0,0-2.29,2.29,2.3,2.3,0,0,0,2.29,2.29,2.3,2.3,0,0,0,2.29-2.29H-215a6.55,6.55,0,0,1-6.54,6.54,6.55,6.55,0,0,1-6.54-6.54,6.5,6.5,0,0,1,.42-2.29h-10.54a2.3,2.3,0,0,0-2.3,2.29,2.3,2.3,0,0,0,2.29,2.29,2.3,2.3,0,0,0,2.29-2.29h4.25a6.55,6.55,0,0,1-6.54,6.54A6.55,6.55,0,0,1-244.75,280Z" transform="translate(329.46 -222.17)"/>
    <path class="cls-1" d="M-266.86,299.46l-12.71-10.78.18-4.44h0l1.49-36.15,4.64-3,29.14-8.08a49.85,49.85,0,0,1,3.84-9L-271.63,238l-10.27,6.63L-283.4,291l6.49,6.47Z" transform="translate(329.46 -222.17)"/>
    <path class="cls-2" d="M-257.52,305.61l4.49-28.4-6.86,3-1.19,3.9L-275,280.9l1.25-30.42,2.24-1.44,26.1-7.24a65.46,65.46,0,0,0-1.51,12.91,8.09,8.09,0,0,0,2.26,5.68,9.16,9.16,0,0,0,6.83,2.54h63.67c6.69,0,12.07-9.29,12.07-17a10.42,10.42,0,0,0-1.77-6.23,7.27,7.27,0,0,0-6.17-2.91h-10.82l-.33,1.73c-.1.52-.24,1.18-.43,1.89h-6.72V227.61h-11.41v12.83h-11.68V222.17h-25l-.23.31-36.8,11.59-12.62,8.15-1.63,50.53,8.71,8.69ZM-259.19,289-260.79,299l-14.45-12.25.06-1.56Zm47.78-36.34h11.68v6.08h-11.68ZM-170,241.08a3.05,3.05,0,0,1,2.75,1.18,6.3,6.3,0,0,1,.94,3.7c0,5.44-3.86,12.72-7.82,12.72h-21.32v-6.08h7.41c5.13,0,8.89-4.08,10.7-11.53Zm-25.45-9.22h2.9v8.58h-2.9Zm7.15,12.83h5.12c-1.08,2-2.65,3.67-4.87,3.67h-23.34V244.7h23.08ZM-215.67,241v17.72h-20.11q-.09-3.12.06-6.08h16.54V226.43h3.51Zm-19.68,7.39a47.9,47.9,0,0,1,8-21.93h3.94v21.93Zm2.91-21.93c-5.35,8.82-7.91,19.53-7.6,32a3.86,3.86,0,0,1-1.59-.95,3.82,3.82,0,0,1-1-2.62c.24-11.14,3.07-20.68,8.42-28.38Zm-49.46,18.16,10.27-6.63,31.35-9.87a49.85,49.85,0,0,0-3.84,9l-29.14,8.08-4.64,3-1.49,36.15h0l-.18,4.44,12.71,10.78-10.06-2L-283.4,291Z" transform="translate(329.46 -222.17)"/>
    <path class="cls-2" d="M-231.66,280h-4.25a2.3,2.3,0,0,1-2.29,2.29,2.3,2.3,0,0,1-2.29-2.29,2.3,2.3,0,0,1,2.3-2.29h10.54a6.5,6.5,0,0,0-.42,2.29,6.55,6.55,0,0,0,6.54,6.54A6.55,6.55,0,0,0-215,280h-4.25a2.3,2.3,0,0,1-2.29,2.29,2.3,2.3,0,0,1-2.29-2.29,2.3,2.3,0,0,1,2.29-2.29H-211a6.5,6.5,0,0,0-.42,2.29,6.55,6.55,0,0,0,6.54,6.54,6.55,6.55,0,0,0,6.54-6.54h-4.25a2.3,2.3,0,0,1-2.29,2.29,2.3,2.3,0,0,1-2.29-2.29,2.3,2.3,0,0,1,2.29-2.29h10.55a6.5,6.5,0,0,0-.42,2.29,6.55,6.55,0,0,0,6.54,6.54,6.55,6.55,0,0,0,6.54-6.54h-4.25a2.3,2.3,0,0,1-2.29,2.29,2.3,2.3,0,0,1-2.29-2.29,2.3,2.3,0,0,1,2.29-2.29h10.55a6.5,6.5,0,0,0-.42,2.29,6.55,6.55,0,0,0,6.54,6.54A6.55,6.55,0,0,0-165,280h-4.25a2.3,2.3,0,0,1-2.29,2.29,2.3,2.3,0,0,1-2.29-2.29,2.3,2.3,0,0,1,2.29-2.29h0v-4.25h-66.67a6.56,6.56,0,0,0-6.55,6.54,6.55,6.55,0,0,0,6.54,6.54A6.55,6.55,0,0,0-231.66,280Z" transform="translate(329.46 -222.17)"/>
    <rect class="cls-2" y="98.57" width="207.64" height="4.25"/>
    <path class="cls-2" d="M-243.78,301.31c2.9-1.72,6.15-3.65,8.61-8.36h63.65a13.13,13.13,0,0,0,1.41-.08h48.29v-4.25h-40A13,13,0,0,0-158.9,283a13,13,0,0,0,0-5.93A13.09,13.09,0,0,0-171.52,267H-238.2a13.09,13.09,0,0,0-12.65,10.08,13,13,0,0,0,0,5.93,12.94,12.94,0,0,0,10.76,9.8,17.51,17.51,0,0,1-5.88,4.84c-3,1.81-6.51,3.86-8.21,9.33-1.44,4.63-6.81,7.83-13.47,8.07l-18.75-11.6c-6-13.27-23.06-14.36-43.08-14.36v4.25c17.25,0,32.09.79,38,9.79-5,.15-8.77,1.29-13,2.58a74.73,74.73,0,0,1-24.82,3.8v4.25a79.37,79.37,0,0,0,26.06-4c5-1.52,9-2.72,15.19-2.32l19.18,11.87h.61a21.41,21.41,0,0,0,14-4.86v0c8.13-5.74,15.59-6.07,28.5-1.23a20.49,20.49,0,0,0,7.16,1.47c5.17,0,8.17-2.79,10.71-5.16s4.71-4.38,8.79-3.88a20.51,20.51,0,0,1,6.78,2.89c4.63,2.66,9.87,5.68,20.21,2.29l.25-.1c9.26-4.42,28.93-1.43,40.68.36a81.83,81.83,0,0,0,9.33,1.15V308a86.6,86.6,0,0,1-8.69-1.1c-13-2-32.55-4.95-43-.06-8.45,2.74-12.25.55-16.64-2a24.17,24.17,0,0,0-8.28-3.41c-6.15-.77-9.42,2.28-12.31,5-3.37,3.14-6,5.61-13.49,2.82-9.44-3.53-17.38-5.07-25.51-2C-248.47,304.1-246.38,302.85-243.78,301.31Zm-2.91-19.3a8.74,8.74,0,0,1,0-4,8.8,8.8,0,0,1,8.51-6.78h66.68A8.8,8.8,0,0,1-163,278a8.72,8.72,0,0,1,0,4,8.83,8.83,0,0,1-7.35,6.61h-67.47l0,.08h-.31A8.82,8.82,0,0,1-246.69,282Z" transform="translate(329.46 -222.17)"/>
  </g>
</svg>
