<svg id="Layer_1" data-name="Layer 1" xmlns="http://www.w3.org/2000/svg" width="207.52" height="118.78" viewBox="0 0 207.52 118.78">
  <defs>
    <style>
      .cls-1 {
        fill: none;
      }

      .cls-2 {
        fill: #02cfa6;
      }
    </style>
  </defs>
  <title>work-home-4</title>
  <g>
    <rect class="cls-1" x="55.39" y="49.47" width="9.79" height="8.07"/>
    <rect class="cls-1" x="104.16" y="49.47" width="9.79" height="8.07"/>
    <rect class="cls-1" x="55.39" y="61.79" width="9.79" height="5.56"/>
    <rect class="cls-1" x="79.62" y="61.79" width="9.79" height="5.56"/>
    <polygon class="cls-1" points="89.41 57.54 89.41 41.09 84.52 34.17 79.62 41.09 79.62 57.54 89.41 57.54"/>
    <polygon class="cls-1" points="84.08 101.17 94.74 96.44 92.42 90.72 74.14 95.4 69.56 100.15 84.08 101.17"/>
    <polygon class="cls-1" points="71.67 81.61 73.78 84.86 86.94 81.61 71.67 81.61"/>
    <rect class="cls-1" x="104.16" y="61.79" width="9.79" height="5.56"/>
    <polygon class="cls-1" points="66.95 15.2 59.04 15.2 58.33 15.2 41.32 15.2 36.42 29.93 64.06 29.93 64.06 34.18 35 34.18 34.77 34.87 34.77 37.03 65.91 37.03 81.63 15.2 66.95 15.2"/>
    <polygon class="cls-1" points="79.55 111.69 65.66 110.2 66.98 114.52 82.2 114.52 79.55 111.69"/>
    <polygon class="cls-1" points="57.27 96.52 64.19 89.24 58.91 81.61 44.2 81.61 44.2 85.63 57.27 96.52"/>
    <polygon class="cls-1" points="53 107.53 44.2 99.98 44.2 114.52 55.02 114.52 53 107.53"/>
    <rect class="cls-1" x="59.04" y="4.25" width="7.91" height="6.69"/>
    <polygon class="cls-1" points="134.26 37.03 134.26 34.87 134.03 34.18 104.97 34.18 104.97 29.93 132.61 29.93 127.71 15.2 87.4 15.2 103.12 37.03 134.26 37.03"/>
    <path class="cls-2" d="M708.62,406.74v-29h-4.25v32.84l-16,14.36a5.18,5.18,0,0,0,3.18,9.09l37.36,1.75h.45a5.82,5.82,0,0,0,4.87-2.11,5.53,5.53,0,0,0,.47-5.37l-3.22-9,3.11-1.11a6.83,6.83,0,0,0,5.89.61l14.83-5.29a6.55,6.55,0,0,0,4.42-5,7.34,7.34,0,0,0-2.43-6.81,6.55,6.55,0,0,0-6.61-1.1l-14.83,5.29a6.85,6.85,0,0,0-4.5,5.53l4.21.58a2.61,2.61,0,0,1,1.71-2.11l14.83-5.29a2.32,2.32,0,0,1,2.42.33,3.11,3.11,0,0,1,1,2.8,2.32,2.32,0,0,1-1.67,1.79l-14.83,5.29a2.61,2.61,0,0,1-2.66-.55l-.95-.88-9.4,3.35,4.65,13c.28.78.24,1.25.12,1.42s-.62.43-1.71.38l-37.42-1.76a.86.86,0,0,1-.8-.62.89.89,0,0,1,.27-1l27.82-25c.81-.73,1.37-.83,1.56-.78s.53.39.8,1.15l3.85,11.07,4-1.4-3.86-11.09a5.53,5.53,0,0,0-3.77-3.86,6,6,0,0,0-5.45,1.74Z" transform="translate(-579.54 -332.23)"/>
    <path class="cls-2" d="M664.05,350.7l16.43,22.81H718v-7.1l-7.73-23.23H650.73V332.23H634.32v10.95H617.79l-7.73,23.23v7.1h37.57Zm43.2-3.27,4.9,14.73H684.51v4.25h29.06l.23.69v2.16H682.66l-15.72-21.83Zm-60.76-10.95v6.69h-7.91v-6.69Zm-32.17,32.77V367.1l.23-.69H643.6v-4.25H616l4.9-14.73h40.31l-15.72,21.83Z" transform="translate(-579.54 -332.23)"/>
    <path class="cls-2" d="M679.44,377.45v26.38h18.29V377.45Zm14,4.25v8.07h-9.79V381.7Zm-9.79,17.88V394h9.79v5.56Z" transform="translate(-579.54 -332.23)"/>
    <path class="cls-2" d="M664.05,359,654.9,372v31.87h18.3V372Zm0,7.36,4.9,6.92v16.45h-9.79V373.31Zm-4.9,33.18V394h9.79v5.56Z" transform="translate(-579.54 -332.23)"/>
    <path class="cls-2" d="M630.67,377.45v26.38H649V377.45Zm14,4.25v8.07h-9.79V381.7Zm-9.79,17.88V394h9.79v5.56Z" transform="translate(-579.54 -332.23)"/>
    <path class="cls-2" d="M667.55,446.75l-6.45-6.89-21.85-2.35,2.82,9.24H639l-2.71-9.4L623.74,426.6v-3.21l13.41,11.17,12-12.67-8.52-12.3H623.74V377.72h-4.25v49.08c-3.74,4.15-5.37,5-5.89,5.13-.49-.88-.73-3.77-.87-5.55-.43-5.3-1-12.56-7.32-12.56-6.78,0-7.67,7.72-8.38,13.93-.47,4-1,8.61-2.84,10a3,3,0,0,1-2.53.38c-1.82-.32-3.84-2.4-5.62-4.23-2.1-2.17-4.09-4.22-6.48-4.22v4.25c.66.06,2.4,1.85,3.44,2.92,2.23,2.3,4.76,4.91,7.95,5.46a9.75,9.75,0,0,0,1.66.15,6.74,6.74,0,0,0,4.14-1.32c3.32-2.48,3.93-7.78,4.52-12.91.71-6.14,1.38-10.16,4.16-10.16,2.2,0,2.68,3.75,3.08,8.65.36,4.45.68,8.29,3.71,9.3,2,.66,4.18-.24,7.29-3.13v13.85H579.54V451H787.06v-4.25Zm-29.11-32.92,5.28,7.63-6.92,7.28-13.07-10.89v-4Zm6.76,28.59,13.88,1.49,2.65,2.83H646.52ZM623.74,432.2l8.8,7.55,2,7H623.74Z" transform="translate(-579.54 -332.23)"/>
    <path class="cls-2" d="M639.72,436l24.66,1.73,15.38-6.83-5.26-13-23,5.9Zm32.24-13,2.32,5.72-10.65,4.73-14.52-1,4.58-4.75Z" transform="translate(-579.54 -332.23)"/>
    <path class="cls-2" d="M643.37,409.58l8,12.36,50-12.36Zm7.83,4.25h15.28l-13.16,3.25Z" transform="translate(-579.54 -332.23)"/>
  </g>
</svg>
