<svg id="Layer_1" data-name="Layer 1" xmlns="http://www.w3.org/2000/svg" width="207.64" height="116.96" viewBox="0 0 207.64 116.96">
  <defs>
    <style>
      .cls-1 { fill: none; } .cls-2 { fill: #02cfa6; }
    </style>
  </defs>
  <title>
    work-geo-1
  </title>
  <path class="cls-1" d="M62.25 109.65c.14 1.12.3 2.27.47 3.06h13.52l-.09-3.55-.18-.06-4.4-1.35zM74.71 35.55c-1 .52-3 1.7-5.1 3l2 1 16.49-4.07a5.56 5.56 0 0 1-.86-3V29.1zM58.39 112.71c-.26-1.44-.47-3.3-.72-5.71-.06-.59-.11-1.06-.14-1.32v-.1l-1.43-16a3.83 3.83 0 0 0-.61-1.17l-.29-.45-.28-.45a6 6 0 0 1-.81 3.61l-6.1 13 2.49.84a3.91 3.91 0 0 1 2.87 3.84v3.82zM71.15 44l-5.53-2.63-4.21 2.19-.35 1.62 6 3.89 22.42-4.6a3.87 3.87 0 0 0 .31-2.07 6.15 6.15 0 0 0-.77-2.8zM141.69 97.05c3.49 0 5.84 0 6.61-1.37a8.52 8.52 0 0 0 .54-3.52V55.22H140v2.12h4.35v4.25H140v2.4h4.35v4.25H140v2.4h6.59v4.25H140v2.4h4.35v4.25H140v2.4h4.35v4.25H140v2.4h6.59v4.25H140v2.17zM107.63 112.71h7.05c1.14 0 2.2 0 3.18-.11l-2.28-19.11h-8zM103.38 93.49h-7.96l-2.29 19.22h10.25V93.49zM92.84 26.35a1.32 1.32 0 0 0-.7.21h-.06a1.36 1.36 0 0 0-.58 1.1v4.77a1.37 1.37 0 0 0 1.35 1.35h26.61a1.35 1.35 0 0 0 1.35-1.35v-4.77a1.35 1.35 0 0 0-1.35-1.35h-11.78v3.71h-4.25v-3.71z"/>
  <path class="cls-1" d="M43.56 103.66l6.69-14.29c.51-1.09.51-1.09.31-1.85l-3.23-12.27 2.84-3.47 8.64 14 .22.34a6.73 6.73 0 0 1 1.29 3.12l1.43 15.91v.25l6.87-1.41-1.05-20a7.59 7.59 0 0 0-1.52-3.79l-12-15.27-19 .69v.11c-.49 2.65-.6 3.21.42 6l5.47 14.88a3.65 3.65 0 0 1 0 3.16l-.14.4-4.71 13.93zM49.11 109.07l-3.75-1.27-10.05.65v.2a19.68 19.68 0 0 0 .53 4.05h13.28zM51.86 25.07a9.66 9.66 0 0 0 4.1-8.6l-17.32 1.17v.26a11.09 11.09 0 0 0 1.24 4.34 8.71 8.71 0 0 0 11.98 2.83zM57.3 12.12a9.59 9.59 0 0 1-.5-1.07c-3.15-8-10-7-12-6.47-4.16 1-8.28 4.44-8.58 9zM53.33 60.75l3.18-14.64-7.38 3.84-2-3.77 11-5.73.36-.19c1.45-.79 4.19-2.47 6.84-4.09 3-1.87 5.91-3.63 7.38-4.39l16.64-8.57c.45-.6.45-.86.41-1l-2.28-4.44-19.14 10a3.65 3.65 0 0 1-2.08.9c-3.16.2-6.88.83-10.48 1.43-2.91.49-5.92 1-8.57 1.27a7.63 7.63 0 0 0-6.89 5.75l-4.51 24.3z"/>
  <path class="cls-2" d="M207.64 112.71h-78.52a13.79 13.79 0 0 0 3.69-7.38c.73-3.72 3.25-4.09 8.84-4a32.94 32.94 0 0 0 4.66-.18h24.15V96.9h-18a13.2 13.2 0 0 0 .67-4.3v-.38c.13-4.12.26-8 9-10.41 10.07-2.75 15.54-8 19.93-12.24s7.49-7.21 13.47-7.21v-4.25c-7.69 0-11.93 4.08-16.42 8.4-4.25 4.09-9.07 8.73-18.1 11.2a20.67 20.67 0 0 0-7.92 3.79V50.97h-17.33v46.42a8.25 8.25 0 0 0-7.12 7.11c-.8 4-2.7 6.33-6.57 7.41l-8.22-68.89-4.22.5 5.45 45.71h-7.45v-46h-4.25v46h-7.45l5.45-45.71-4.22-.5-8.32 69.68h-8.38l-.1-3.87a4 4 0 0 0-3.18-3.81L73 103.74l-.16-.25-1-19.66a11.83 11.83 0 0 0-2.43-6.21L57.34 62.29l2.75-12.66 6.08 4 24.07-4.94a4.26 4.26 0 0 0 3.29-2.89 10.57 10.57 0 0 0-.55-7.68h26.48a5.61 5.61 0 0 0 5.6-5.6v-4.77a5.61 5.61 0 0 0-5.6-5.6h-11.78v-3.86h-4.25v3.86h-9.3a4.77 4.77 0 0 0-.35-1.56l-2.73-5.34a3 3 0 0 0-1.73-1.58 4.67 4.67 0 0 0-3.54.28L65.87 24.33l-.12.13c-2.54.18-5.37.6-8.2 1.06a14.48 14.48 0 0 0 2.74-7.89l1.68-.19a3 3 0 0 0 2.12-1.06 2.63 2.63 0 0 0 .53-2c-.19-1.73-.74-3.74-3.31-3.93a4.14 4.14 0 0 1-.46-.92c-3.51-8.91-11.37-10.44-17-9-6.33 1.56-12.6 7.33-11.78 15l.28 2.59a2.67 2.67 0 0 0 1 1.8 2.67 2.67 0 0 0 1.52.59 13.24 13.24 0 0 0 1.52 4.08 12.86 12.86 0 0 0 4.88 4.58 12 12 0 0 0-4.91 7L30.89 64.8v.17a12.3 12.3 0 0 0 .61 8.23l5.47 14.9.06.16v.11l-5.28 15.43a14.73 14.73 0 0 0-.7 5 24.82 24.82 0 0 0 .41 3.89H-.01v4.25h207.64zm-67.63-17.84h6.59v-4.25h-6.59v-2.4h4.35v-4.25h-4.35v-2.4h4.35v-4.25h-4.35v-2.4h6.59v-4.25h-6.59v-2.4h4.35V64h-4.35v-2.4h4.35v-4.25h-4.35v-2.12h8.84v36.94a8.52 8.52 0 0 1-.54 3.52c-.78 1.34-3.12 1.41-6.61 1.37h-1.68zm-22.14 17.73c-1 .07-2 .11-3.18.11h-7.05V93.49h8zM95.46 93.49h8v19.22H93.21zm-19.45 15.6l.18.06.09 3.55H62.76c-.17-.79-.33-1.94-.47-3.06l9.32-1.91zm-25.49-4l-2.49-.84 6.1-13a6 6 0 0 0 .81-3.61l.28.45.29.45a3.83 3.83 0 0 1 .61 1.17l1.43 16v.1c0 .25.08.72.14 1.32.25 2.41.46 4.27.72 5.71h-5v-3.82a3.91 3.91 0 0 0-2.95-3.98zm37.61-69.6l-16.49 4.07-2-1c2.13-1.3 4.09-2.48 5.1-3l12.53-6.46v3.38a5.56 5.56 0 0 0 .83 2.97zm1.36 9l-22.42 4.6-6-3.89.35-1.62 4.21-2.19 5.53 2.63 17.85-4.41a6.15 6.15 0 0 1 .77 2.8 3.87 3.87 0 0 1-.32 2.06zm18.17-14.4v-3.71h11.8a1.35 1.35 0 0 1 1.35 1.35v4.77a1.35 1.35 0 0 1-1.35 1.3H92.89a1.37 1.37 0 0 1-1.35-1.35v-4.77a1.36 1.36 0 0 1 .58-1.1h.06a1.32 1.32 0 0 1 .7-.21h10.54v3.71zM44.78 4.6c2-.5 8.9-1.51 12 6.47a9.59 9.59 0 0 0 .5 1.07l-21.13 1.42c.31-4.54 4.45-7.95 8.6-8.98zm-4.86 17.66a11.09 11.09 0 0 1-1.24-4.34v-.26L56 16.49a9.66 9.66 0 0 1-4.1 8.6 8.71 8.71 0 0 1-12.01-2.85zm.47 14.84a7.63 7.63 0 0 1 6.89-5.75c2.65-.27 5.66-.78 8.57-1.27 3.6-.6 7.32-1.23 10.48-1.43a3.65 3.65 0 0 0 2.08-.9l19.14-10 2.28 4.44c0 .14 0 .4-.41 1L72.76 31.8c-1.47.76-4.34 2.52-7.38 4.39-2.65 1.63-5.38 3.31-6.84 4.09l-.36.19-11 5.73 2 3.77 7.38-3.84-3.18 14.64-17.48.63zm.47 53.13l.14-.4a3.65 3.65 0 0 0 0-3.16L35.46 71.8c-1-2.78-.92-3.33-.42-6v-.11l19-.69 12 15.27a7.59 7.59 0 0 1 1.52 3.79l1.05 20-6.87 1.41v-.25l-1.43-15.91a6.73 6.73 0 0 0-1.29-3.12l-.22-.34-8.64-14-2.84 3.47 3.23 12.27c.2.76.2.76-.31 1.85l-6.69 14.29-7.43.48zm-5.54 18.45v-.2l10.05-.65 3.75 1.26v3.64H35.84a19.68 19.68 0 0 1-.54-4.07z"/>
</svg>