<svg id="Layer_1" data-name="Layer 1" xmlns="http://www.w3.org/2000/svg" width="207.64" height="107.69" viewBox="0 0 207.64 107.69">
  <defs>
    <style>
      .cls-1 {
        fill: none;
      }

      .cls-2 {
        fill: #02cfa6;
      }
    </style>
  </defs>
  <title>work-exc-2</title>
  <g>
    <rect class="cls-1" x="133.97" y="14.56" width="2.9" height="8.58"/>
    <path class="cls-1" d="M-173.42,330.36h23.34c2.22,0,3.78-1.64,4.87-3.67h-28.2Z" transform="translate(291.46 -299.3)"/>
    <path class="cls-1" d="M-181.18,334.61h-16.54q-.16,3-.06,6.08h20.11V308.43h-3.51Z" transform="translate(291.46 -299.3)"/>
    <path class="cls-1" d="M-150.08,334.61h-7.41v6.08h21.32c4,0,7.82-7.29,7.82-12.72a6.3,6.3,0,0,0-.94-3.7,3.05,3.05,0,0,0-2.75-1.18h-7.34C-141.19,330.54-144.95,334.61-150.08,334.61Z" transform="translate(291.46 -299.3)"/>
    <polygon class="cls-1" points="55.66 47.76 67.01 62.94 70.81 53.47 56.07 46.26 55.66 47.76"/>
    <path class="cls-1" d="M-189.37,308.43a47.9,47.9,0,0,0-8,21.93h11.92V308.43Z" transform="translate(291.46 -299.3)"/>
    <rect class="cls-1" x="118.04" y="35.31" width="11.68" height="6.08"/>
    <path class="cls-1" d="M-199.89,370.7l0-.08h67.47A8.83,8.83,0,0,0-125,364a8.74,8.74,0,0,0,0-4,8.8,8.8,0,0,0-8.51-6.78H-200.2a8.8,8.8,0,0,0-8.51,6.78,8.74,8.74,0,0,0,0,4,8.82,8.82,0,0,0,8.49,6.69Zm-6.86-8.72a6.56,6.56,0,0,1,6.55-6.54h66.67v4.25h0a2.3,2.3,0,0,0-2.29,2.29,2.3,2.3,0,0,0,2.29,2.29,2.3,2.3,0,0,0,2.29-2.29H-127a6.55,6.55,0,0,1-6.54,6.54,6.55,6.55,0,0,1-6.54-6.54,6.5,6.5,0,0,1,.42-2.29H-150.2a2.3,2.3,0,0,0-2.29,2.29,2.3,2.3,0,0,0,2.29,2.29A2.3,2.3,0,0,0-147.9,362h4.25a6.55,6.55,0,0,1-6.54,6.54,6.55,6.55,0,0,1-6.54-6.54,6.5,6.5,0,0,1,.42-2.29h-10.55a2.3,2.3,0,0,0-2.29,2.29,2.3,2.3,0,0,0,2.29,2.29,2.3,2.3,0,0,0,2.29-2.29h4.25a6.55,6.55,0,0,1-6.54,6.54,6.55,6.55,0,0,1-6.54-6.54,6.5,6.5,0,0,1,.42-2.29h-10.55a2.3,2.3,0,0,0-2.29,2.29,2.3,2.3,0,0,0,2.29,2.29,2.3,2.3,0,0,0,2.29-2.29H-177a6.55,6.55,0,0,1-6.54,6.54,6.55,6.55,0,0,1-6.54-6.54,6.5,6.5,0,0,1,.42-2.29h-10.54a2.3,2.3,0,0,0-2.3,2.29,2.3,2.3,0,0,0,2.29,2.29,2.3,2.3,0,0,0,2.29-2.29h4.25a6.55,6.55,0,0,1-6.54,6.54A6.55,6.55,0,0,1-206.75,362Z" transform="translate(291.46 -299.3)"/>
    <path class="cls-1" d="M-203.63,339.43a3.87,3.87,0,0,0,1.59.95c-.31-12.42,2.25-23.13,7.6-32h-1.81c-5.35,7.7-8.18,17.25-8.42,28.38A3.82,3.82,0,0,0-203.63,339.43Z" transform="translate(291.46 -299.3)"/>
    <path class="cls-1" d="M-230.46,361.3l-10-13.35,1.17-4.29h0l.46-1.67v0h0l8.32-29.89,5.52-2,20.07,5.54a48.31,48.31,0,0,1,4-7.85l-21.48-4.09-11.21,4.06L-244.7,349.4l4.87,7.75Z" transform="translate(291.46 -299.3)"/>
    <path class="cls-2" d="M-222.74,369.38-212,342.7l-7.36,1.43-2,3.54-12.84-6.28,7.25-26.05,2.18-.78,18.49,5.1a62.65,62.65,0,0,0-2.61,17.06,8.09,8.09,0,0,0,2.26,5.68,9.16,9.16,0,0,0,6.83,2.54h63.67c6.69,0,12.07-9.29,12.07-17a10.42,10.42,0,0,0-1.77-6.23,7.27,7.27,0,0,0-6.17-2.91h-10.82l-.33,1.73c-.1.52-.24,1.18-.43,1.89h-6.72V309.61h-11.41v12.83h-11.68V304.17h-23.74l-25.6-4.87-14.4,5.22-12.13,45.57,6.55,10.42Zm2.1-16.61-3.81,9.47-11.34-15.17.41-1.5Zm47.23-18.16h11.68v6.08h-11.68ZM-132,323.08a3.05,3.05,0,0,1,2.75,1.18,6.3,6.3,0,0,1,.94,3.7c0,5.44-3.86,12.72-7.82,12.72h-21.32v-6.08h7.41c5.13,0,8.89-4.08,10.7-11.53Zm-25.45-9.22h2.9v8.58h-2.9Zm7.15,12.83h5.12c-1.08,2-2.65,3.67-4.87,3.67h-23.34V326.7h23.08ZM-177.67,323v17.72h-20.11q-.09-3.12.06-6.08h16.54V308.43h3.51Zm-19.68,7.39a47.9,47.9,0,0,1,8-21.93h3.94v21.93Zm2.91-21.93c-5.35,8.82-7.91,19.53-7.6,32a3.87,3.87,0,0,1-1.59-.95,3.82,3.82,0,0,1-1-2.62c.24-11.14,3.07-20.68,8.42-28.38Zm-39.17-.66,11.21-4.06,21.48,4.09a48.31,48.31,0,0,0-4,7.85L-225,310.1l-5.52,2L-238.81,342h0v0l-.46,1.67h0l-1.17,4.29,10,13.35-9.37-4.15-4.87-7.75Z" transform="translate(291.46 -299.3)"/>
    <path class="cls-2" d="M-193.66,362h-4.25a2.3,2.3,0,0,1-2.29,2.29,2.3,2.3,0,0,1-2.29-2.29,2.3,2.3,0,0,1,2.3-2.29h10.54a6.5,6.5,0,0,0-.42,2.29,6.55,6.55,0,0,0,6.54,6.54A6.55,6.55,0,0,0-177,362h-4.25a2.3,2.3,0,0,1-2.29,2.29,2.3,2.3,0,0,1-2.29-2.29,2.3,2.3,0,0,1,2.29-2.29H-173a6.5,6.5,0,0,0-.42,2.29,6.55,6.55,0,0,0,6.54,6.54,6.55,6.55,0,0,0,6.54-6.54h-4.25a2.3,2.3,0,0,1-2.29,2.29,2.3,2.3,0,0,1-2.29-2.29,2.3,2.3,0,0,1,2.29-2.29h10.55a6.5,6.5,0,0,0-.42,2.29,6.55,6.55,0,0,0,6.54,6.54,6.55,6.55,0,0,0,6.54-6.54h-4.25a2.3,2.3,0,0,1-2.29,2.29,2.3,2.3,0,0,1-2.29-2.29,2.3,2.3,0,0,1,2.29-2.29h10.55a6.5,6.5,0,0,0-.42,2.29,6.55,6.55,0,0,0,6.54,6.54A6.55,6.55,0,0,0-127,362h-4.25a2.3,2.3,0,0,1-2.29,2.29,2.3,2.3,0,0,1-2.29-2.29,2.3,2.3,0,0,1,2.29-2.29h0v-4.25h-66.67a6.56,6.56,0,0,0-6.55,6.54,6.55,6.55,0,0,0,6.54,6.54A6.55,6.55,0,0,0-193.66,362Z" transform="translate(291.46 -299.3)"/>
    <path class="cls-2" d="M-205.78,383.31c2.9-1.72,6.15-3.65,8.61-8.36h63.65a13.13,13.13,0,0,0,1.41-.08h48.29v-4.25h-40A13,13,0,0,0-120.9,365a13,13,0,0,0,0-5.93A13.09,13.09,0,0,0-133.52,349H-200.2a13.09,13.09,0,0,0-12.65,10.08,13,13,0,0,0,0,5.93,12.94,12.94,0,0,0,10.76,9.8,17.51,17.51,0,0,1-5.88,4.84c-3,1.81-6.51,3.86-8.21,9.33-1.44,4.63-6.81,7.83-13.47,8.07l-18.75-11.6c-6-13.27-23.06-14.36-43.08-14.36v4.25c17.25,0,32.09.79,38,9.79-5,.15-8.77,1.29-13,2.58a74.71,74.71,0,0,1-24.82,3.8v4.25a79.39,79.39,0,0,0,26.06-4c5-1.52,9-2.73,15.19-2.32l19.18,11.87h.61a21.41,21.41,0,0,0,14-4.86v0c8.13-5.74,15.59-6.07,28.5-1.23a20.48,20.48,0,0,0,7.16,1.47c5.17,0,8.17-2.79,10.71-5.16s4.71-4.38,8.79-3.88a20.52,20.52,0,0,1,6.78,2.89c4.63,2.66,9.87,5.68,20.21,2.29l.25-.1c9.26-4.42,28.93-1.43,40.68.36a81.83,81.83,0,0,0,9.33,1.15V390a86.74,86.74,0,0,1-8.69-1.1c-13-2-32.55-5-43-.05-8.45,2.74-12.25.55-16.64-2a24.15,24.15,0,0,0-8.28-3.41c-6.15-.77-9.42,2.28-12.31,5-3.37,3.14-6,5.62-13.49,2.82-9.44-3.53-17.38-5.07-25.51-2C-210.47,386.1-208.38,384.85-205.78,383.31Zm-2.91-19.3a8.74,8.74,0,0,1,0-4,8.8,8.8,0,0,1,8.51-6.78h66.68A8.8,8.8,0,0,1-125,360a8.74,8.74,0,0,1,0,4,8.83,8.83,0,0,1-7.35,6.61h-67.47l0,.08h-.31A8.82,8.82,0,0,1-208.69,364Z" transform="translate(291.46 -299.3)"/>
    <rect class="cls-2" y="103.44" width="207.64" height="4.25"/>
  </g>
</svg>
