<svg id="Layer_1" data-name="Layer 1" xmlns="http://www.w3.org/2000/svg" width="207.64" height="145.66" viewBox="0 0 207.64 145.66">
  <defs>
    <style>
      .cls-1 {
        fill: none;
      }

      .cls-2 {
        fill: #02cfa6;
      }
    </style>
  </defs>
  <title>work-saw-4</title>
  <g>
    <path class="cls-1" d="M718.67,377.86l13.72-5,1.47,4-5.2,1.91,7.78,13.49,16.4-4a8.94,8.94,0,0,0-.72-1.68l-12.5-22.17a8.26,8.26,0,0,0-6.06-4.47c-3.37-.43-5.2.81-8.33,3.54-1.58,1.39-4.41,3.35-7.14,5.26-2.55,1.78-5.19,3.62-6.36,4.67a3.82,3.82,0,0,1-2.66.94l-15.9-1.16c-.71-.13-1,.78-1.11,1.33-.26,1.28.14,2.47.55,2.61l17,2.9c1.65.32,5.62-.9,9.09-2.12Z" transform="translate(-579.54 -304.38)"/>
    <path class="cls-1" d="M725.12,357.12a8,8,0,0,0,6.21-9.43,9.7,9.7,0,0,0-1.61-3.26l-12.26,10.1A8.83,8.83,0,0,0,725.12,357.12Z" transform="translate(-579.54 -304.38)"/>
    <path class="cls-1" d="M713.39,352.38l15.28-12.58c-3-3.19-8.19-2.91-11.76-.9-1.68.95-6.92,4.61-4,12A8.49,8.49,0,0,1,713.39,352.38Z" transform="translate(-579.54 -304.38)"/>
    <path class="cls-1" d="M697.59,396.9l22-5.29,6.48-8.9-1.44-2.5-.26.1c-2.07.79-4.09,1.54-6,2.18l-4.91,6L696.31,392a5.83,5.83,0,0,0,.21,2.91A4,4,0,0,0,697.59,396.9Z" transform="translate(-579.54 -304.38)"/>
    <path class="cls-1" d="M674.25,384.95l.2,0h0l16.83,3.73.53-2.24-17.72-4.15c0,.42.09.84.11,1.27S674.24,384.5,674.25,384.95Z" transform="translate(-579.54 -304.38)"/>
    <path class="cls-1" d="M646.25,412.88l-5.72,5.41,2,5.12,23,.1,1.68-1.79-4.13-14.23L661,406A27.91,27.91,0,0,1,646.25,412.88Z" transform="translate(-579.54 -304.38)"/>
    <path class="cls-1" d="M642.33,386.77a1.43,1.43,0,0,0,1-.29,1.41,1.41,0,0,0,.53-1,1.43,1.43,0,0,0-1.25-1.58h-.17a1.42,1.42,0,0,0-.17,2.84Z" transform="translate(-579.54 -304.38)"/>
    <path class="cls-1" d="M727,441.63l-9.11-2.57-6.43,1.49c-.53.88-.66,3.73-.39,5.24h15.1A35.32,35.32,0,0,0,727,441.63Z" transform="translate(-579.54 -304.38)"/>
    <path class="cls-1" d="M737.27,396.37l-13.69,14a3.69,3.69,0,0,0-.36,1.67c0,.27,0,.53-.08.79l-2.82,22.5,7.32,2.07q.81-6.35,1.82-16.93c.16-1.66.27-2.86.33-3.36l.07-.61,11.23-13.81L739.5,411c-.89,4.66-.25,10.09.33,11.57l5.07,12.88,9.12-.29a112.87,112.87,0,0,0-4.63-13.47,7.79,7.79,0,0,1-.69-4.93l4.23-20.91a21.23,21.23,0,0,0,.41-3.32Z" transform="translate(-579.54 -304.38)"/>
    <path class="cls-1" d="M739,436.51l1.59-.4-4.73-12a23.94,23.94,0,0,1-1.05-7l-.89,1.09c-.06.61-.15,1.52-.25,2.65-.39,4.07-1,10.89-1.78,16.73-.48,3.74-.9,6.36-1.33,8.21h5.22C735.74,445.33,734.93,437.69,739,436.51Z" transform="translate(-579.54 -304.38)"/>
    <path class="cls-1" d="M755.13,439.34l-11.36.36-3.32.84c-.52.89-.64,3.73-.38,5.26h16A26,26,0,0,0,755.13,439.34Z" transform="translate(-579.54 -304.38)"/>
    <polygon class="cls-1" points="35.34 131.23 35.34 141.4 41.04 141.4 44.41 131.23 35.34 131.23"/>
    <path class="cls-1" d="M614.88,431.36h84v-3.58H630.72V410.51a27.93,27.93,0,0,1-7.81-5.48l-12.26,14.41v11.91h4.23Z" transform="translate(-579.54 -304.38)"/>
    <polygon class="cls-1" points="94.22 131.23 48.89 131.23 45.52 141.4 98.18 141.4 94.8 131.23 94.22 131.23"/>
    <path class="cls-1" d="M706.82,445.72c-.34-3,0-8.28,3.3-9.21l.1,0,5.84-1.35,2.86-22.84c0-.21,0-.43.07-.65a6.31,6.31,0,0,1,1.72-4.41L733,394.69l-4.58-7.95-6.29,8.64L698.57,401a3.67,3.67,0,0,1-1,.14,4.38,4.38,0,0,1-3-1.34,10.31,10.31,0,0,1-2.53-6.67,3.1,3.1,0,0,1-.68-.08l-15.46-3.43L669,411.8l-.34-.25L672,422.86l-.62.67H677l2.64-9.37,15.77,1.63,3.62,7.74h4.07v12.09h-11v10.17h14.68Z" transform="translate(-579.54 -304.38)"/>
    <polygon class="cls-1" points="99.28 131.23 102.66 141.4 108.36 141.4 108.36 131.23 99.28 131.23"/>
    <polygon class="cls-1" points="103.21 114.37 101.87 119.14 114.79 119.14 113.03 115.39 103.21 114.37"/>
    <path class="cls-1" d="M635.52,417.17l4.4-4.16a27.56,27.56,0,0,1-4.94-.92v11.43h3Z" transform="translate(-579.54 -304.38)"/>
    <path class="cls-1" d="M629.16,404.71,632,396.9l4,1.46-3.09,8.47a23.47,23.47,0,0,0,7.71,2l-1.44-8.21,4.19-.74,1.56,8.89a23.58,23.58,0,0,0,7.67-2.15l-5.35-6.38,3.26-2.73,5.8,6.92c.41-.3.82-.61,1.21-.94l-4.1-3,2.72-3.87-2.09-.76,1.46-4,3.17,1.15.84-1.2-10.75-2.52.49-2.07a7,7,0,0,0-7.25-8.57,7,7,0,0,0-6.37,5.39l-.49,2.07-7.7-1.8.62,2.7-8.8,2a23.27,23.27,0,0,0,2,6.45l6.39-5.35,2.73,3.26-6.91,5.8A23.74,23.74,0,0,0,629.16,404.71Zm7.7-20a5.68,5.68,0,0,1,6.31-5h0a5.68,5.68,0,0,1-.66,11.31,5.76,5.76,0,0,1-.68,0A5.68,5.68,0,0,1,636.86,384.68Z" transform="translate(-579.54 -304.38)"/>
    <polygon class="cls-1" points="88.01 83.36 79.75 95.11 87.16 100.48 92.12 84.33 88.01 83.36"/>
    <path class="cls-1" d="M624.16,383.52l-5-1.17c-.1.78-.17,1.57-.19,2.36Z" transform="translate(-579.54 -304.38)"/>
    <path class="cls-1" d="M623.06,373.69a22.67,22.67,0,0,1,31.1-7.77L652,369.56a18.36,18.36,0,0,0-26.88,9.81l7.08,1.66a11.24,11.24,0,0,1,21.5,5l8.47,2,3.58-5.1,4.23,1s0-.05,0-.08a27.57,27.57,0,0,0-53.8-6.59l4.78,1.12A22.58,22.58,0,0,1,623.06,373.69Z" transform="translate(-579.54 -304.38)"/>
    <path class="cls-2" d="M760.27,445.79c.22-7.9-6.92-25.7-7-25.9a3.59,3.59,0,0,1-.39-2.37l4.23-20.87c1-4.93.58-8.91-1.26-12.18l-12.5-22.17a12.57,12.57,0,0,0-9.22-6.59l-.18,0a12.19,12.19,0,0,0,1.57-8.85,12.37,12.37,0,0,0-1.54-3.7,2.66,2.66,0,0,0,.11-3.34l-1.47-1.94c-4.37-5.78-12.42-5.68-17.77-2.66-6.31,3.56-8.6,10.33-5.83,17.23a4.16,4.16,0,0,1,.25.82c-1.67,1.84-.73,3.61.26,4.92a2.66,2.66,0,0,0,1.76,1.11,3,3,0,0,0,2.22-.67l1.17-.88a13.71,13.71,0,0,0,6.6,3.5c-1.49,1.15-3.55,2.59-5.57,4-2.69,1.88-5.24,3.65-6.59,4.84L693.83,369c-2.84-.46-5.26,1.45-5.92,4.68s.59,6.9,3.8,7.62l17.11,2.93a8.93,8.93,0,0,0,2.64,0l-.35.43-15.26,3.14.26-1.13a3.36,3.36,0,0,0-2.37-4.09l-20.48-4.8a31.82,31.82,0,0,0-61.82.58l-.49,2.07,4,.95a28,28,0,0,0-.28,4.77,27.61,27.61,0,0,0,5.38,15.63L606.4,417.88v17.73h4.23v10.17H579.54V450H787.18v-4.25Zm-48.78-5.24,6.43-1.49,9.11,2.57a35.32,35.32,0,0,1-.83,4.15H711.1C710.83,444.27,711,441.42,711.49,440.55Zm24.3,5.24h-5.22c.43-1.85.85-4.47,1.33-8.21.75-5.83,1.4-12.65,1.78-16.73.11-1.13.19-2,.25-2.65l.89-1.09a23.94,23.94,0,0,0,1.05,7l4.73,12-1.59.4C734.93,437.69,735.74,445.33,735.79,445.79Zm4.65-5.26,3.32-.84,11.36-.36a26,26,0,0,1,1,6.45h-16C739.8,444.27,739.93,441.42,740.44,440.53Zm8.25-23.82a7.79,7.79,0,0,0,.69,4.93A112.87,112.87,0,0,1,754,435.12l-9.12.29-5.07-12.88c-.58-1.48-1.23-6.91-.33-11.57l1.58-8.29-11.23,13.81-.07.61c-.06.5-.17,1.7-.33,3.36q-1,10.58-1.82,16.93l-7.32-2.07,2.82-22.5c0-.26.06-.52.08-.79a3.69,3.69,0,0,1,.36-1.67l13.69-14,16.07-3.89a21.23,21.23,0,0,1-.41,3.32Zm-19-72.27a9.7,9.7,0,0,1,1.61,3.26,8,8,0,0,1-6.21,9.43,8.83,8.83,0,0,1-7.67-2.59Zm-12.81-5.54c3.57-2,8.73-2.3,11.76.9l-15.28,12.58a8.49,8.49,0,0,0-.46-1.53C710,343.5,715.23,339.84,716.91,338.9ZM709.59,380l-17-2.9c-.41-.14-.81-1.32-.55-2.61.11-.55.4-1.46,1.11-1.33l15.9,1.16a3.82,3.82,0,0,0,2.66-.94c1.17-1.05,3.8-2.89,6.36-4.67,2.73-1.9,5.55-3.87,7.14-5.26,3.12-2.73,5-4,8.33-3.54a8.26,8.26,0,0,1,6.06,4.47l12.5,22.17a8.94,8.94,0,0,1,.72,1.68l-16.4,4-7.78-13.49,5.2-1.91-1.47-4-13.72,5v0C715.22,379.11,711.24,380.33,709.59,380Zm-13.28,12,17.14-3.53,4.91-6c1.91-.64,3.93-1.39,6-2.18l.26-.1,1.44,2.5-6.48,8.9-22,5.29a4,4,0,0,1-1.06-1.95A5.83,5.83,0,0,1,696.31,392Zm-4.52-5.55-.53,2.24L674.44,385h0l-.2,0c0-.45,0-.9-.05-1.35s-.07-.85-.11-1.27ZM667.2,421.72l-1.68,1.79-23-.1-2-5.12,5.72-5.41A27.91,27.91,0,0,0,661,406l2,1.47Zm-43.74-22.56,6.91-5.8-2.73-3.26-6.39,5.35a23.27,23.27,0,0,1-2-6.45l8.8-2-.62-2.7,7.7,1.8.49-2.07a7,7,0,0,1,13.79,1.15,7,7,0,0,1-.17,2l-.49,2.07,10.75,2.52-.84,1.2-3.17-1.15-1.46,4,2.09.76-2.72,3.87,4.1,3c-.39.33-.8.64-1.21.94l-5.8-6.92-3.26,2.73,5.35,6.38a23.58,23.58,0,0,1-7.67,2.15l-1.56-8.89-4.19.74,1.44,8.21a23.47,23.47,0,0,1-7.71-2l3.09-8.47-4-1.46-2.84,7.81A23.74,23.74,0,0,1,623.46,399.16ZM635,412.09a27.56,27.56,0,0,0,4.94.92l-4.4,4.16,2.5,6.36h-3Zm31.73-7.23-7.41-5.37,8.25-11.75,4.11,1Zm-26-46.77a27.61,27.61,0,0,1,29.27,25.77s0,.05,0,.08l-4.23-1-3.58,5.1-8.47-2a11.24,11.24,0,0,0-21.5-5l-7.08-1.66A18.4,18.4,0,0,1,652,369.56l2.19-3.65a22.63,22.63,0,0,0-33.23,12.48l-4.78-1.12A27.8,27.8,0,0,1,640.68,358.1Zm-16.52,25.42L619,384.71c0-.79.09-1.58.19-2.36Zm-13.51,35.93L622.91,405a27.93,27.93,0,0,0,7.81,5.48v17.26h68.13v3.58h-88.2Zm70.76,4.08,1.34-4.77,9.82,1,1.76,3.75Zm-66.53,22.26V435.61H624l-3.37,10.17Zm10.18,0,3.37-10.17h45.92l3.37,10.17Zm57.14,0-3.37-10.17h9.07v10.17Zm10-10.17h11V423.52H699l-3.62-7.74-15.77-1.63L677,423.52h-5.66l.62-.67-3.28-11.31.34.25,6.8-22.14,15.46,3.43a3.1,3.1,0,0,0,.68.08,10.31,10.31,0,0,0,2.53,6.67,4.38,4.38,0,0,0,3,1.34,3.67,3.67,0,0,0,1-.14l23.53-5.65,6.29-8.64,4.58,7.95L720.7,407.23a6.31,6.31,0,0,0-1.72,4.41c0,.22,0,.44-.07.65l-2.86,22.84-5.84,1.35-.1,0c-3.32.93-3.63,6.23-3.3,9.21v.07H692.15Z" transform="translate(-579.54 -304.38)"/>
    <path class="cls-2" d="M641.82,391a5.76,5.76,0,0,0,.68,0,5.68,5.68,0,0,0,.66-11.31h0A5.68,5.68,0,0,0,641.82,391Zm-.74-5.8a1.43,1.43,0,0,1,1.41-1.26h.17a1.43,1.43,0,0,1,1.25,1.58,1.41,1.41,0,0,1-.53,1,1.42,1.42,0,0,1-2.3-1.29Z" transform="translate(-579.54 -304.38)"/>
    <rect class="cls-2" x="640.3" y="345.37" width="8.5" height="4.25" transform="translate(-657.88 159.89) rotate(-37.51)"/>
    <rect class="cls-2" x="674.02" y="319.48" width="8.5" height="4.25" transform="translate(-635.14 175.07) rotate(-37.51)"/>
    <rect class="cls-2" x="657.16" y="332.42" width="8.5" height="4.25" transform="translate(-646.51 167.48) rotate(-37.51)"/>
    <rect class="cls-2" x="690.89" y="306.53" width="8.5" height="4.25" transform="translate(-623.81 182.53) rotate(-37.5)"/>
    <rect class="cls-2" x="695.83" y="334.41" width="8.5" height="4.25" transform="translate(-648.18 -79.41) rotate(-17.42)"/>
    <rect class="cls-2" x="675.54" y="340.77" width="8.5" height="4.25" transform="translate(-651 -85.24) rotate(-17.41)"/>
    <rect class="cls-2" x="655.26" y="347.14" width="8.5" height="4.25" transform="translate(-653.84 -91.01) rotate(-17.41)"/>
  </g>
</svg>
