<svg id="Layer_1" data-name="Layer 1" xmlns="http://www.w3.org/2000/svg" width="179.83" height="143.59" viewBox="0 0 179.83 143.59">
  <defs>
    <style>
      .cls-1 {
        fill: none;
      }

      .cls-2 {
        fill: #02cfa6;
      }
    </style>
  </defs>
  <title>work-otb-2</title>
  <g>
    <polygon class="cls-1" points="33.13 12.04 37.26 27.49 59.51 12.04 33.13 12.04"/>
    <path class="cls-1" d="M631.87,365.19l3.79,14.2,30.21-2.84V347.7a2.37,2.37,0,0,0-2.34-2.34h-3.12Z" transform="translate(-593.44 -333.33)"/>
    <path class="cls-1" d="M632.7,420.63l-27.22,17.22v7.26a2.37,2.37,0,0,0,2.34,2.34H644Z" transform="translate(-593.44 -333.33)"/>
    <path class="cls-1" d="M631.05,378.63l-8.88-33.27H607.82a2.37,2.37,0,0,0-2.34,2.34v23.83Z" transform="translate(-593.44 -333.33)"/>
    <path class="cls-1" d="M613.16,393.69l16-11.17-23.67-6.57v40.22l6.87-21.39A2.13,2.13,0,0,1,613.16,393.69Z" transform="translate(-593.44 -333.33)"/>
    <polygon class="cls-1" points="38.45 52.46 22.74 63.43 12.04 96.74 12.04 99.49 38.13 82.98 38.45 52.46"/>
    <path class="cls-1" d="M761.24,411V347.7a2.37,2.37,0,0,0-1.46-2.16l-17.27,21.7-6.82,14.67Z" transform="translate(-593.44 -333.33)"/>
    <path class="cls-1" d="M703.2,451.7a6.6,6.6,0,0,1-6.59-6.59V430.88l-.12-.29-3.41-5.38v19.9a10.13,10.13,0,0,0,10.12,10.12h6.57l-.06-.32c-.36-.56-1.14-1.77-2.12-3.21Z" transform="translate(-593.44 -333.33)"/>
    <path class="cls-1" d="M754.49,345.37H703.2a2.37,2.37,0,0,0-2.34,2.34v8.05l39,8Z" transform="translate(-593.44 -333.33)"/>
    <path class="cls-1" d="M735.14,440.42l1.47,7h22.29a2.37,2.37,0,0,0,2.34-2.34V417.42l-27.51-31.29-5.44,11.7c2.32,1.87,4.35,3.52,5.38,4.38a9,9,0,0,1,3.32,7.58Z" transform="translate(-593.44 -333.33)"/>
    <path class="cls-1" d="M668.57,388.91l-11.76,27.15,11.86,20.33,18.79-12.79,1.21-5.3-.26-.41-.42-.68-.88-1.38a15.19,15.19,0,0,1-1.72-3.35l-4.24-10.8c-1-2.7-.07-5.25,2.19-6.44l1.79-1Z" transform="translate(-593.44 -333.33)"/>
    <path class="cls-1" d="M703.2,447.45h1.39a69.38,69.38,0,0,1-3.73-7.07v4.73A2.37,2.37,0,0,0,703.2,447.45Z" transform="translate(-593.44 -333.33)"/>
    <path class="cls-2" d="M758.91,333.33H703.2a14.39,14.39,0,0,0-14.37,14.38V380h4.25V347.7a10.13,10.13,0,0,1,10.12-10.12h55.71A10.13,10.13,0,0,1,769,347.7v97.41a10.13,10.13,0,0,1-10.12,10.12H738.24l-.74-3.53h21.4a6.6,6.6,0,0,0,6.59-6.59V347.7a6.6,6.6,0,0,0-6.59-6.59H703.2a6.6,6.6,0,0,0-6.59,6.59V380h4.25V360.1l36.77,7.56-12.74,27.42-8.4-6.75-.2-.14a18,18,0,0,0-6.45-2.4c-.63-.12-6.17-1.18-8.76-1.37a34.86,34.86,0,0,0-4.23-.12h-.24l-14.86,4.35-15.56-5-14.14,32.65L665.87,440v5.11a2.37,2.37,0,0,1-2.34,2.34H648.59L636.2,418l17.25-17.29-3-3-14.57,14.61.3-28.68,33.95-3.19V347.7a6.6,6.6,0,0,0-6.59-6.59H607.82a6.6,6.6,0,0,0-6.59,6.59v97.41a6.6,6.6,0,0,0,6.59,6.59h55.71a6.6,6.6,0,0,0,6.59-6.59v-4.56l3.53-2.4v7a10.13,10.13,0,0,1-10.12,10.12H607.82a10.13,10.13,0,0,1-10.12-10.12V347.7a10.13,10.13,0,0,1,10.12-10.12h55.71a10.13,10.13,0,0,1,10.12,10.12v32.63h4.25V347.7a14.39,14.39,0,0,0-14.37-14.37H607.82a14.39,14.39,0,0,0-14.37,14.38v97.41a14.39,14.39,0,0,0,14.38,14.38h55.71a14.39,14.39,0,0,0,14.37-14.37v-9.86l10.92-7.43v17.29a14.39,14.39,0,0,0,14.38,14.38h7.34l3.08,17.07,4.18-.75-4-22.46-.22-.35c-.1-.16-2.43-3.86-5-7.39-2-2.71-6.56-13.06-8.14-16.83l-.16-.31-.74-1.16.06,0-7.82-12.21-.18-.3h0l-.79-1.23a11.88,11.88,0,0,1-1.24-2.33l-4.31-11c-.15-.42-.24-1,.19-1.19l2.47-1.44c.51-.22,1,.51,1,.54l10.42,12.83,5.4,6.36a4.44,4.44,0,0,0,5.72.75l5.51-3.1-2.09-3.71-5.56,3.13-.13.08a1.28,1.28,0,0,1-.23.05l0,0-5.32-6.26-2.78-3.41a10.27,10.27,0,0,1,2.63.4l6.08,4.2,2.42-3.5-6.23-4.3-.09-.06c-.59-.36-2.48-1.16-7.47-1l.53-2.34,2-.08c6,.46,7.73,1.31,8,1.44l7.26,5.3,2.51-3.44-7.19-5.25c-.87-.68-3.34-1.78-10.34-2.3h-.12l-1.58.06L689,391l8.33-2.44c.46,0,1.62,0,3.44.12,2.44.18,8.26,1.31,8.31,1.32l.13,0a13.81,13.81,0,0,1,4.71,1.74c1.26,1,13.94,11.18,17,13.74a4.72,4.72,0,0,1,1.82,3.84l-1.91,31.42,7.59,36.19,4.16-.87-3.47-16.56h19.77a14.39,14.39,0,0,0,14.37-14.37V347.7A14.39,14.39,0,0,0,758.91,333.33ZM605.48,430.07l10.7-33.31,15.71-11-.32,30.53-26.1,16.51Zm0-13.9V375.95l23.67,6.57-16,11.17a2.13,2.13,0,0,0-.81,1.09Zm60.38-68.47v28.85l-30.21,2.84-3.79-14.2,28.54-19.82h3.12A2.37,2.37,0,0,1,665.87,347.7Zm-39.29-2.34H653L630.7,360.82Zm-18.75,0h14.35l8.88,33.27-25.57-7.1V347.7A2.37,2.37,0,0,1,607.82,345.37Zm-2.34,99.74v-7.26l27.22-17.22L644,447.45H607.82A2.37,2.37,0,0,1,605.48,445.11Zm104.28,10.12H703.2a10.13,10.13,0,0,1-10.12-10.12v-19.9l3.41,5.38.12.29v14.23a6.6,6.6,0,0,0,6.59,6.59h4.39c1,1.44,1.76,2.65,2.12,3.21Zm-8.91-14.85a69.38,69.38,0,0,0,3.73,7.07H703.2a2.37,2.37,0,0,1-2.34-2.34Zm-17.52-45.14c-2.26,1.19-3.14,3.74-2.19,6.44l4.24,10.8a15.19,15.19,0,0,0,1.72,3.35l.88,1.38.42.68.26.41-1.21,5.3-18.79,12.79-11.86-20.33,11.76-27.15,16.56,5.29Zm17.52-39.48V347.7a2.37,2.37,0,0,1,2.34-2.34h51.3l-14.65,18.4Zm41.65,11.49,17.27-21.7a2.37,2.37,0,0,1,1.46,2.16V411l-25.55-29.06Zm-8.84,35c-1-.86-3.06-2.5-5.38-4.38l5.44-11.7,27.51,31.29v27.69a2.37,2.37,0,0,1-2.34,2.34H736.61l-1.47-7L737,409.78A9,9,0,0,0,733.67,402.2Z" transform="translate(-593.44 -333.33)"/>
  </g>
</svg>
