<svg id="Layer_1" data-name="Layer 1" xmlns="http://www.w3.org/2000/svg" width="179.83" height="143.59" viewBox="0 0 179.83 143.59">
  <defs>
    <style>
      .cls-1 {
        fill: none;
      }

      .cls-2 {
        fill: #02cfa6;
      }
    </style>
  </defs>
  <title>work-otb-1</title>
  <g>
    <path class="cls-1" d="M-169.9,338.84l22-28.48h-29.28a2.37,2.37,0,0,0-2.34,2.34v23.78Z" transform="translate(191.56 -298.33)"/>
    <path class="cls-1" d="M-149,318.75l29.87,9.39V312.7a2.37,2.37,0,0,0-2.34-2.34h-21.05Z" transform="translate(191.56 -298.33)"/>
    <polygon class="cls-1" points="43.9 62.43 30.15 69.12 39.24 79.72 43.9 62.43"/>
    <path class="cls-1" d="M-147,401.53l-10.07,10.92h35.63a2.37,2.37,0,0,0,2.34-2.34v-3.88Z" transform="translate(191.56 -298.33)"/>
    <path class="cls-1" d="M-150.11,398.6l-3.16-15.14-11.23-13.1-15,25v14.78a2.37,2.37,0,0,0,2.34,2.34h14.29Z" transform="translate(191.56 -298.33)"/>
    <polygon class="cls-1" points="12.04 88.75 24.52 67.99 20.63 44.64 12.04 42.53 12.04 88.75"/>
    <polygon class="cls-1" points="28.38 65.25 72.42 43.83 72.42 34.27 39.78 24.01 24.75 43.48 28.38 65.25"/>
    <polygon class="cls-1" points="72.42 48.56 48.97 59.96 42.43 84.22 45.53 99.06 72.42 103.58 72.42 48.56"/>
    <path class="cls-1" d="M-86.37,345.71-104.66,366l4.06,35.54,18.33-8.81,2.77-4.88-.13-.47c-.08-.29-.15-.55-.21-.8l-.44-1.54a15.25,15.25,0,0,1-.68-3.7l-.94-11.56c-.14-2.86,1.45-5,4-5.53l2.81-.67a4.76,4.76,0,0,1,3.67.88Z" transform="translate(191.56 -298.33)"/>
    <path class="cls-1" d="M-23.76,340V312.7a2.37,2.37,0,0,0-2.34-2.34H-61.53l18.52,19Z" transform="translate(191.56 -298.33)"/>
    <path class="cls-1" d="M-26.09,412.45a2.37,2.37,0,0,0,2.34-2.34V344.87l-18.32-10.1L-41,371.95c3.16,4.61,7.69,11.23,9.2,13.5a9,9,0,0,1,1,8.22l-6.93,18.78Z" transform="translate(191.56 -298.33)"/>
    <path class="cls-1" d="M-121.47,302.58h-55.71A10.13,10.13,0,0,0-187.3,312.7v97.41a10.13,10.13,0,0,0,10.12,10.12h55.71a10.13,10.13,0,0,0,10.12-10.12V312.7A10.13,10.13,0,0,0-121.47,302.58Zm6.59,107.53a6.6,6.6,0,0,1-6.59,6.59h-55.71a6.6,6.6,0,0,1-6.59-6.59V312.7a6.6,6.6,0,0,1,6.59-6.59h55.71a6.6,6.6,0,0,1,6.59,6.59Z" transform="translate(191.56 -298.33)"/>
    <path class="cls-1" d="M-84.14,410.11a2.37,2.37,0,0,0,2.34,2.34h7.59c-.69-4.59-1.22-9.31-1.35-10.56l-2.31-8.26L-79.23,396l-4.92,2.36Z" transform="translate(191.56 -298.33)"/>
    <path class="cls-1" d="M-73.51,416.7h-8.3a6.6,6.6,0,0,1-6.59-6.59v-9.7l-3.53,1.7v8A10.13,10.13,0,0,0-81.8,420.23h9.09C-73,419.27-73.25,418.05-73.51,416.7Z" transform="translate(191.56 -298.33)"/>
    <path class="cls-2" d="M-121.47,306.11h-55.71a6.6,6.6,0,0,0-6.59,6.59v97.41a6.6,6.6,0,0,0,6.59,6.59h55.71a6.6,6.6,0,0,0,6.59-6.59V312.7A6.6,6.6,0,0,0-121.47,306.11ZM-146,397.38l-3.1-14.83,6.54-24.26,23.45-11.41v55Zm-5.75-75,32.64,10.26v9.56l-44,21.42-3.63-21.78ZM-170.93,343l3.89,23.35-12.48,20.76V340.86Zm23.27,17.79-4.66,17.29-9.09-10.6Zm28.52-48.05v15.44L-149,318.75l6.48-8.38h21.05A2.37,2.37,0,0,1-119.13,312.7Zm-58-2.34h29.28l-22,28.48-9.62-2.36V312.7A2.37,2.37,0,0,1-177.18,310.37Zm-2.34,99.74V395.33l15-25,11.23,13.1,3.16,15.14-12.77,13.84h-14.29A2.37,2.37,0,0,1-179.52,410.11Zm58,2.34H-157.1L-147,401.53l27.89,4.7v3.88A2.37,2.37,0,0,1-121.47,412.45Z" transform="translate(191.56 -298.33)"/>
    <path class="cls-2" d="M-26.09,298.33H-81.8A14.39,14.39,0,0,0-96.18,312.7v22.2h4.25V312.7A10.13,10.13,0,0,1-81.8,302.58h55.71A10.13,10.13,0,0,1-16,312.7v97.41a10.13,10.13,0,0,1-10.12,10.12H-40.57l1.3-3.53h13.17a6.6,6.6,0,0,0,6.59-6.59V312.7a6.6,6.6,0,0,0-6.59-6.59H-81.8a6.6,6.6,0,0,0-6.59,6.59v22.21h4.25V312.7a2.37,2.37,0,0,1,2.34-2.34h14.35l21,21.64,1,33.95a18.36,18.36,0,0,0-4.45-3.1c-.57-.3-5.56-2.91-8-3.84a35,35,0,0,0-4-1.33l-11-1.89,0,.1-13.32-16.76-20.93,23.23V312.7a14.39,14.39,0,0,0-14.37-14.37h-55.71a14.39,14.39,0,0,0-14.37,14.38v97.41a14.39,14.39,0,0,0,14.38,14.38h55.71a14.39,14.39,0,0,0,14.37-14.37v-28l3,25.82,8-3.83v6A14.39,14.39,0,0,0-81.8,424.48h10.51c.79,2.44,1.35,4.46,1.46,4.84l2.6,12.59,4.16-.86-2.62-12.66,0-.13c0-.18-1.22-4.4-2.7-8.53-1.14-3.17-2.51-14.4-2.94-18.46l-.07-.35-.37-1.33.06,0-4-13.93c0-.11-.07-.24-.09-.35h0l-.4-1.41a11.91,11.91,0,0,1-.51-2.59v-.11l-1-11.67c0-.65.15-1,.53-1.09l2.78-.66c.57-.07.82.78.83.81l6.28,15.29,3.34,7.65a4.44,4.44,0,0,0,5.26,2.37l6.17-1.38-.93-4.15-6.23,1.39-.14,0a1,1,0,0,1-.23,0l0,0-3.28-7.53L-65,378.14a10.1,10.1,0,0,1,2.4,1.15l4.61,5.78,3.32-2.65-4.73-5.92-.07-.08c-.46-.52-2-1.83-6.85-3.14l1.19-2.08,2,.51c5.61,2.17,7,3.48,7.21,3.67l5.43,7.17,3.39-2.57-5.37-7.1c-.63-.9-2.68-2.67-9.24-5.19l-2.2-.57-5-6.35,6.19,1.06A34.14,34.14,0,0,1-59.36,363c2.29.88,7.53,3.63,7.58,3.66l.11.05a13.83,13.83,0,0,1,4,3c.91,1.32,10.12,14.72,12.34,18.07a4.72,4.72,0,0,1,.63,4.2l-10.9,29.54L-47.16,441l4.24.34,1.36-16.89h15.46a14.39,14.39,0,0,0,14.37-14.37V312.7A14.39,14.39,0,0,0-26.09,298.33Zm-85.25,111.78a10.13,10.13,0,0,1-10.12,10.12h-55.71a10.13,10.13,0,0,1-10.12-10.12V312.7a10.13,10.13,0,0,1,10.12-10.12h55.71a10.13,10.13,0,0,1,10.12,10.12Zm19.42,0v-8l3.53-1.7v9.7a6.6,6.6,0,0,0,6.59,6.59h8.3c.26,1.36.52,2.57.79,3.53H-81.8A10.13,10.13,0,0,1-91.93,410.11Zm14.05-16.48,2.31,8.26c.13,1.25.66,6,1.35,10.56H-81.8a2.37,2.37,0,0,1-2.34-2.34V398.37l4.92-2.36Zm2.74-30-2.81.67c-2.5.49-4.09,2.67-4,5.53l.94,11.56a15.25,15.25,0,0,0,.68,3.7l.44,1.54c.06.25.13.51.21.8l.13.47-2.77,4.88-18.33,8.81L-104.66,366l18.29-20.3,14.9,18.75A4.76,4.76,0,0,0-75.14,363.59Zm13.61-53.22h35.43a2.37,2.37,0,0,1,2.34,2.34V340L-43,329.41Zm30.76,83.3a9,9,0,0,0-1-8.22c-1.5-2.27-6-8.89-9.2-13.5l-1.11-37.17,18.32,10.1v65.24a2.37,2.37,0,0,1-2.34,2.34H-37.7Z" transform="translate(191.56 -298.33)"/>
  </g>
</svg>
