<svg id="Layer_1" data-name="Layer 1" xmlns="http://www.w3.org/2000/svg" width="207.64" height="116.88" viewBox="0 0 207.64 116.88">
  <defs>
    <style>
      .cls-1 { fill: none; } .cls-2 { fill: #02cfa6; }
    </style>
  </defs>
  <title>
    work-geo-4
  </title>
  <path class="cls-1" d="M62.25 109.57c.14 1.12.3 2.27.47 3.06h13.52l-.09-3.55-.18-.06-4.4-1.35zM92.85 33.72h26.61a1.37 1.37 0 0 0 1.35-1.35V27.6a1.37 1.37 0 0 0-1.35-1.35h-11.78v3.71h-4.25v-3.71H92.89a1.37 1.37 0 0 0-1.35 1.35v4.77a1.37 1.37 0 0 0 1.31 1.35zM58.39 112.63c-.26-1.44-.47-3.3-.72-5.71-.06-.59-.11-1.06-.14-1.31v-.1l-1.43-16a3.82 3.82 0 0 0-.61-1.17l-.29-.44-.28-.45a6 6 0 0 1-.81 3.61l-6.1 13 2.49.84a3.91 3.91 0 0 1 2.87 3.84v3.82zM103.38 93.4h-7.96l-2.29 19.23h10.25V93.4zM61.46 43.48l-.35 1.62 6 3.89 22.42-4.6a3.87 3.87 0 0 0 .31-2.07 6.15 6.15 0 0 0-.77-2.8l-17.85 4.41-5.53-2.63zM107.63 112.63h7.05c1.14 0 2.2 0 3.18-.11l-2.28-19.11h-8zM141.69 96.97c3.49 0 5.84 0 6.61-1.37a8.54 8.54 0 0 0 .54-3.53V55.14H140v2.12h4.35v4.25H140v2.4h4.35v4.25H140v2.4h6.59v4.25H140v2.4h4.35v4.25H140v2.4h4.35v4.25H140v2.4h6.59v4.25H140v2.17zM49.11 108.98l-3.75-1.26-10.05.65v.2a19.69 19.69 0 0 0 .53 4.05h13.28z"/>
  <path class="cls-1" d="M43.56 103.58l6.69-14.29c.51-1.09.51-1.09.31-1.85l-3.23-12.27 2.83-3.48 8.64 14 .22.34a6.74 6.74 0 0 1 1.29 3.12l1.43 15.91v.25l6.87-1.41-1-20a7.59 7.59 0 0 0-1.52-3.79l-12-15.27-19 .69v.12c-.49 2.65-.6 3.21.43 6l5.47 14.88a3.65 3.65 0 0 1 0 3.16l-.14.4-4.71 13.94zM56.22 9.81a9.57 9.57 0 0 1-.75-.91c-5-7-11.42-4.32-13.26-3.34-3.78 2-6.95 6.32-6.14 10.79zM53.33 60.67l3.18-14.64-7.38 3.84-2-3.77 11-5.72.37-.2 2.07-1.09c3.29-1.72 10.12-5.3 11.52-6.9l10.77-12.26c.77-.92.66-1.2.6-1.34l-2.21-5.47-12.59 15.37a3.68 3.68 0 0 1-2.39 1.21c-6 .38-13.42 1-19.06 1.56a7.63 7.63 0 0 0-6.89 5.75l-4.51 24.3zM54.1 23.72a9.66 9.66 0 0 0 1.88-9.34l-16.52 5.34.09.24a11.09 11.09 0 0 0 2.26 3.91 8.71 8.71 0 0 0 12.29-.15z"/>
  <path class="cls-2" d="M163.166 16.953l8.21-2.2 1.1 4.105-8.21 2.2zM142.63 22.452l8.21-2.2 1.1 4.105-8.21 2.2zM183.702 11.452l4.405-1.18 1.1 4.105-4.405 1.18zM144.044 38.745l1.105-4.123 8.244 2.21-1.105 4.123zM183.7 48.288l1.1-4.105 4.404 1.18-1.1 4.106zM163.176 42.77l1.1-4.106 8.21 2.2-1.1 4.106z"/>
  <path class="cls-2" d="M207.64 112.63h-78.52a13.8 13.8 0 0 0 3.69-7.39c.73-3.72 3.27-4.09 8.84-4a32.82 32.82 0 0 0 4.66-.18h24.15v-4.25h-18a13.18 13.18 0 0 0 .67-4.3v-.38c.13-4.12.26-8 9-10.41 10.07-2.75 15.54-8 19.93-12.24s7.49-7.21 13.47-7.21v-4.25c-7.69 0-11.93 4.08-16.42 8.4-4.25 4.09-9.07 8.73-18.1 11.2a20.67 20.67 0 0 0-7.92 3.79V50.89h-17.33v46.43a8.25 8.25 0 0 0-7.12 7.1c-.8 4-2.7 6.33-6.57 7.41l-8.22-68.89-4.22.5 5.45 45.71h-7.45v-46h-4.25v46h-7.45l5.45-45.71-4.22-.5-8.32 69.68h-8.38l-.1-3.87a4 4 0 0 0-3.18-3.81L73 103.66l-.16-.25-1-19.66a11.83 11.83 0 0 0-2.43-6.21L57.34 62.21l2.75-12.66 6.08 4 24.07-4.94a4.26 4.26 0 0 0 3.29-2.89 10.57 10.57 0 0 0-.55-7.68h26.48a5.61 5.61 0 0 0 5.6-5.44l5.3 1.42 1.1-4.11-1.1-4.11-5.32 1.42a5.61 5.61 0 0 0-5.58-5.2h-11.78v-3.86h-4.25v3.86H92.89a5.61 5.61 0 0 0-5.6 5.6v4.77a5.56 5.56 0 0 0 .86 3l-16.49 4.07-1.48-.7a23.48 23.48 0 0 0 5.2-3.74l10.8-12.3c.6-.72 2.45-2.92 1.32-5.71l-2.68-6.64a3.34 3.34 0 0 0-2.68-2 3.57 3.57 0 0 0-3.3 1.09l-13.11 16c-2.49.16-5.25.36-8 .58a14 14 0 0 0 2.75-11.66l1.58-.59a3 3 0 0 0 1.8-1.54 2.63 2.63 0 0 0 0-2.07c-.61-1.63-1.63-3.45-4.17-3a4.07 4.07 0 0 1-.67-.78C53.44-1.38 45.45-.95 40.31 1.78c-5.75 3.06-10.43 10.18-7.77 17.38l.9 2.44a2.7 2.7 0 0 0 1.4 1.51 2.68 2.68 0 0 0 1.62.2 13.23 13.23 0 0 0 2.47 3.58 12.9 12.9 0 0 0 2.55 1.91 12 12 0 0 0-5.14 7.11l-5.39 29a12.29 12.29 0 0 0 .61 8.22l5.37 14.63.1.28.06.16v.11l-5.34 15.41a14.74 14.74 0 0 0-.7 5 24.82 24.82 0 0 0 .41 3.89H-.01v4.25h207.64zm-67.63-17.84h6.59v-4.25h-6.59v-2.4h4.35v-4.25h-4.35v-2.4h4.35v-4.25h-4.35v-2.4h6.59v-4.25h-6.59v-2.4h4.35v-4.27h-4.35v-2.4h4.35v-4.25h-4.35v-2.12h8.84v36.93a8.54 8.54 0 0 1-.54 3.53c-.78 1.34-3.12 1.41-6.61 1.37h-1.68zm-22.14 17.73c-1 .07-2 .11-3.18.11h-7.05V93.41h8zM95.46 93.41h8v19.22H93.21zm-19.45 15.6l.18.06.09 3.55H62.76c-.17-.79-.33-1.94-.47-3.06l9.33-1.91zm-25.49-4l-2.49-.84 6.1-13a6 6 0 0 0 .81-3.61l.28.45.29.44a3.82 3.82 0 0 1 .61 1.17l1.43 16v.1c0 .25.08.72.14 1.31.25 2.41.46 4.27.72 5.71h-5v-3.82a3.91 3.91 0 0 0-2.95-3.96zm41-77.34a1.37 1.37 0 0 1 1.35-1.35h10.54v3.71h4.25v-3.71h11.8a1.37 1.37 0 0 1 1.35 1.35v4.77a1.37 1.37 0 0 1-1.35 1.28H92.89a1.37 1.37 0 0 1-1.35-1.35zm-2.49 11.89a6.15 6.15 0 0 1 .77 2.8 3.87 3.87 0 0 1-.31 2.07l-22.42 4.6-6-3.89.35-1.62 4.21-2.19 5.53 2.63zm-46.79-34c1.85-1 8.26-3.64 13.26 3.34a9.57 9.57 0 0 0 .75.91L36.1 16.34c-.84-4.46 2.36-8.78 6.11-10.79zm-2.78 14.16l16.52-5.35a9.66 9.66 0 0 1-1.88 9.34 8.71 8.71 0 0 1-12.29.17 11.09 11.09 0 0 1-2.26-3.91zm.9 17.29a7.63 7.63 0 0 1 6.89-5.75c5.64-.58 13.1-1.19 19.06-1.56a3.68 3.68 0 0 0 2.39-1.21l12.59-15.37 2.21 5.47c.06.15.17.42-.6 1.34L72.13 32.19c-1.4 1.6-8.24 5.18-11.52 6.9l-2.07 1.09-.37.2-11 5.72 2 3.77 7.38-3.84-3.18 14.64-17.48.63zm.48 53.13l.14-.4a3.65 3.65 0 0 0 0-3.16l-5.52-14.86c-1-2.78-.92-3.33-.43-6v-.12l19-.69 12 15.27a7.59 7.59 0 0 1 1.52 3.79l1 20-6.87 1.41v-.25l-1.43-15.91a6.74 6.74 0 0 0-1.29-3.12l-.22-.34-8.64-14-2.83 3.48 3.23 12.27c.2.76.2.76-.31 1.85l-6.69 14.29-7.43.48zm-5.54 18.45v-.2l10.05-.65L49.1 109v3.64H35.82a19.69 19.69 0 0 1-.52-4.06z"/>
</svg>