<svg id="Layer_1" data-name="Layer 1" xmlns="http://www.w3.org/2000/svg" width="207.64" height="132.71" viewBox="0 0 207.64 132.71">
  <defs>
    <style>
      .cls-1 {
        fill: none;
      }

      .cls-2 {
        fill: #02cfa6;
      }
    </style>
  </defs>
  <title>work-saw-5</title>
  <g>
    <path class="cls-1" d="M692.63,377.11l17,2.9c1.65.32,5.62-.9,9.09-2.12v0l13.72-5,1.47,4-5.2,1.91,7.78,13.49,16.4-4a8.94,8.94,0,0,0-.72-1.68l-12.5-22.17a8.26,8.26,0,0,0-6.06-4.47c-3.37-.43-5.2.81-8.32,3.54-1.59,1.39-4.41,3.35-7.13,5.26-2.55,1.78-5.19,3.62-6.36,4.68a3.82,3.82,0,0,1-2.66.94l-15.9-1.16c-.71-.13-1,.78-1.11,1.33C691.81,375.78,692.21,377,692.63,377.11Z" transform="translate(-579.54 -317.33)"/>
    <path class="cls-1" d="M621.07,377.95a22.67,22.67,0,0,1,28.83-14l-1.39,4a18.36,18.36,0,0,0-24.28,15.14l7.27.16a11.24,11.24,0,0,1,21.82-.64,11.09,11.09,0,0,1,.25,1.13l8.7.2,2.45-5.73,4.34.1,0-.07a27.57,27.57,0,0,0-54,4.65L620,383A22.59,22.59,0,0,1,621.07,377.95Z" transform="translate(-579.54 -317.33)"/>
    <path class="cls-1" d="M719.58,391.61l6.48-8.9-1.44-2.5-.26.1c-2.07.79-4.09,1.54-6,2.18l-4.91,6L696.31,392a5.84,5.84,0,0,0,.21,2.91,4,4,0,0,0,1.06,1.95Z" transform="translate(-579.54 -317.33)"/>
    <polygon class="cls-1" points="92.18 65.29 87.96 65.2 82.31 78.39 85.3 79.71 85.29 79.72 90.66 82.12 92.18 65.29"/>
    <path class="cls-1" d="M673.48,378.41h.2l14.78.15a7.18,7.18,0,0,1-.66-2.31l-15-.37c.13.4.26.8.37,1.21S673.38,378,673.48,378.41Z" transform="translate(-579.54 -317.33)"/>
    <path class="cls-1" d="M712.37,349.7l18.43-7.21c-1.88-4-6.88-5.31-10.9-4.51-1.89.38-8,2.23-7.5,10.12A8.5,8.5,0,0,1,712.37,349.7Z" transform="translate(-579.54 -317.33)"/>
    <path class="cls-1" d="M730.88,350.83a9.86,9.86,0,0,0-.51-3.6L715.56,353a8.82,8.82,0,0,0,6.48,4.84A8,8,0,0,0,730.88,350.83Z" transform="translate(-579.54 -317.33)"/>
    <path class="cls-1" d="M737.27,396.37l-13.69,14a3.69,3.69,0,0,0-.36,1.67c0,.27-.05.53-.08.79l-2.82,22.49,7.32,2.07q.81-6.35,1.82-16.93c.16-1.66.27-2.86.33-3.36l.07-.61,11.23-13.81L739.5,411c-.89,4.66-.25,10.09.33,11.57l5.07,12.88,9.12-.29a112.87,112.87,0,0,0-4.63-13.47,7.79,7.79,0,0,1-.69-4.93l4.23-20.91a21.23,21.23,0,0,0,.41-3.32Z" transform="translate(-579.54 -317.33)"/>
    <path class="cls-1" d="M727,441.63l-9.11-2.57-6.43,1.49c-.53.88-.66,3.73-.39,5.24h15.1A35.32,35.32,0,0,0,727,441.63Z" transform="translate(-579.54 -317.33)"/>
    <path class="cls-1" d="M739,436.51l1.59-.4-4.73-12a24,24,0,0,1-1.05-7l-.89,1.09c-.06.61-.15,1.52-.25,2.65-.39,4.07-1,10.89-1.78,16.73-.48,3.74-.9,6.36-1.33,8.21h5.22C735.74,445.33,734.93,437.69,739,436.51Z" transform="translate(-579.54 -317.33)"/>
    <path class="cls-1" d="M755.13,439.34l-11.36.36-3.32.84c-.52.89-.64,3.73-.38,5.26h16A26,26,0,0,0,755.13,439.34Z" transform="translate(-579.54 -317.33)"/>
    <path class="cls-1" d="M614.88,431.36h84v-3.58H630.72V410.5a27.29,27.29,0,0,1-7.82-5.45l-12.25,14.39v11.91h4.23Z" transform="translate(-579.54 -317.33)"/>
    <polygon class="cls-1" points="99.28 118.28 102.66 128.46 108.36 128.46 108.36 118.28 99.28 118.28"/>
    <polygon class="cls-1" points="35.34 118.28 35.34 128.46 41.04 128.46 44.41 118.28 35.34 118.28"/>
    <polygon class="cls-1" points="94.22 118.28 48.89 118.28 45.52 128.46 98.18 128.46 94.81 118.28 94.22 118.28"/>
    <path class="cls-1" d="M706.82,445.72c-.34-3,0-8.28,3.3-9.21l.1,0,5.84-1.35,2.86-22.84c0-.22,0-.43.07-.66a6.31,6.31,0,0,1,1.72-4.4L733,394.69l-4.58-7.95-6.29,8.64L698.57,401a3.67,3.67,0,0,1-1,.14,4.38,4.38,0,0,1-3-1.34,10.35,10.35,0,0,1-2.3-8.86,3.88,3.88,0,0,1,2.77-3l.1,0,16-3.3.35-.43a8.93,8.93,0,0,1-2.64,0l-14.53-2.48a3.15,3.15,0,0,1-2.39,1.15h-.07L676,382.69l-2.08,23.07-9-4A27.92,27.92,0,0,1,653.18,411l3.62,11.85-.64.68h6.17l2.64-9.37,15.77,1.63,3.62,7.74H703.1v12.09h-11v10.17h14.68Z" transform="translate(-579.54 -317.33)"/>
    <path class="cls-1" d="M642.33,386.77a1.42,1.42,0,1,0,.34-2.83h-.17a1.42,1.42,0,0,0-.17,2.84Z" transform="translate(-579.54 -317.33)"/>
    <path class="cls-1" d="M620.64,394l6.72-4.91,2.51,3.43-7.29,5.33a23.28,23.28,0,0,0,5.32,5.93l3.36-7.61,3.89,1.72-3.65,8.26a23.4,23.4,0,0,0,7.57,2.49l-.9-8.3,4.23-.46,1,9a23.74,23.74,0,0,0,4.63-.64,23.36,23.36,0,0,0,3.16-1l-4.92-6.73,3.43-2.51,5.32,7.29a23.65,23.65,0,0,0,5.93-5.3l-2.74-1.22-4.87-2.15L655,392.7,658,394l2.5-5.85-11-.25,0-2.13a7,7,0,0,0-8.87-6.89,7,7,0,0,0-5.12,6.58l0,2.12-16.4-.37a22.1,22.1,0,0,0,1.59,6.78Zm16.22-9.33a5.68,5.68,0,0,1,6.31-5h0a5.68,5.68,0,0,1-.66,11.31,5.76,5.76,0,0,1-.68,0A5.69,5.69,0,0,1,636.86,384.68Z" transform="translate(-579.54 -317.33)"/>
    <path class="cls-1" d="M642.44,413.15a27.44,27.44,0,0,1-7.47-1v11.41h15.36l1.68-1.79-2.87-9.41-.15,0A28,28,0,0,1,642.44,413.15Z" transform="translate(-579.54 -317.33)"/>
    <polygon class="cls-1" points="88.55 101.43 87.21 106.2 100.13 106.2 98.37 102.44 88.55 101.43"/>
    <path class="cls-2" d="M760.27,445.79c.22-7.9-6.92-25.7-7-25.9a3.59,3.59,0,0,1-.39-2.37l4.23-20.87c1-4.93.58-8.91-1.26-12.18l-12.5-22.17a12.57,12.57,0,0,0-9.22-6.59l-.36,0a12.18,12.18,0,0,0,1.35-4.36,12.37,12.37,0,0,0-.32-4,2.65,2.65,0,0,0,1.14-3.14l-.8-2.3c-2.36-6.85-10-9.27-16.07-8.05-7.1,1.43-11.38,7.14-10.9,14.56a4.15,4.15,0,0,1,0,.86c-2.16,1.23-1.82,3.21-1.29,4.75a2.67,2.67,0,0,0,1.33,1.6,3,3,0,0,0,2.32.06l1.38-.47a13.26,13.26,0,0,0,8.51,6.69c-1.38,1-3.07,2.2-4.72,3.36-2.69,1.88-5.24,3.65-6.59,4.84L693.83,369a5,5,0,0,0-5.36,3L671,371.59a31.82,31.82,0,0,0-60.38,13.32l0,2.13,4.16.09a27.74,27.74,0,0,0,5.31,14.67L606.4,417.88v17.73h4.23v10.17H579.54V450H787.18v-4.25Zm-48.78-5.24,6.43-1.49,9.11,2.57a35.32,35.32,0,0,1-.83,4.15H711.1C710.83,444.27,711,441.42,711.49,440.55Zm24.3,5.24h-5.22c.43-1.85.85-4.47,1.33-8.21.75-5.83,1.4-12.65,1.78-16.73.11-1.13.19-2,.25-2.65l.89-1.09a24,24,0,0,0,1.05,7l4.73,12-1.59.4C734.93,437.69,735.74,445.33,735.79,445.79Zm4.65-5.26,3.32-.84,11.36-.36a26,26,0,0,1,1,6.45h-16C739.8,444.27,739.93,441.42,740.44,440.53Zm8.25-23.82a7.79,7.79,0,0,0,.69,4.93A112.87,112.87,0,0,1,754,435.12l-9.12.29-5.07-12.88c-.58-1.48-1.23-6.91-.33-11.57l1.58-8.29-11.23,13.81-.07.61c-.06.5-.17,1.7-.33,3.36q-1,10.58-1.82,16.93l-7.32-2.07,2.82-22.49c0-.26.06-.52.08-.79a3.69,3.69,0,0,1,.36-1.67l13.69-14,16.07-3.89a21.23,21.23,0,0,1-.41,3.32ZM719.9,338c4-.8,9,.53,10.9,4.51l-18.43,7.21a8.5,8.5,0,0,0,0-1.59C711.9,340.21,718,338.36,719.9,338Zm-4.34,15,14.8-5.79a9.86,9.86,0,0,1,.51,3.6,8,8,0,0,1-8.83,7A8.82,8.82,0,0,1,715.56,353ZM692.08,374.5c.11-.55.4-1.46,1.11-1.33l15.9,1.16a3.82,3.82,0,0,0,2.66-.94c1.17-1.05,3.81-2.9,6.36-4.68,2.73-1.9,5.55-3.87,7.13-5.26,3.12-2.73,5-4,8.32-3.54a8.26,8.26,0,0,1,6.06,4.47l12.5,22.17a8.94,8.94,0,0,1,.72,1.68l-16.4,4-7.78-13.49,5.2-1.91-1.47-4-13.72,5v0c-3.47,1.23-7.44,2.44-9.09,2.12l-17-2.9C692.21,377,691.81,375.78,692.08,374.5Zm4.45,20.45a5.84,5.84,0,0,1-.21-2.91l17.14-3.53,4.91-6c1.91-.64,3.93-1.39,6-2.18l.26-.1,1.44,2.5-6.48,8.9-22,5.29A4,4,0,0,1,696.52,394.95Zm-8.72-18.7a7.18,7.18,0,0,0,.66,2.31l-14.78-.15h-.2c-.1-.44-.21-.87-.33-1.31s-.24-.81-.37-1.21Zm-23,20.8v0l-3-1.32,5.65-13.2,4.22.09-1.52,16.83Zm-29.74-38a27.61,27.61,0,0,1,34,19.17l0,.07-4.34-.1-2.45,5.73-8.7-.2a11.09,11.09,0,0,0-.25-1.13,11.24,11.24,0,0,0-21.82.64l-7.27-.16a18.36,18.36,0,0,1,24.28-15.14l1.39-4A22.63,22.63,0,0,0,620,383l-4.91-.11A27.8,27.8,0,0,1,635.1,359.06Zm.35,28.53,0-2.12a7,7,0,0,1,13.73-1.72,6.94,6.94,0,0,1,.25,2l0,2.13,11,.25L658,394,655,392.7l-1.72,3.89,4.87,2.15,2.74,1.22a23.65,23.65,0,0,1-5.93,5.3L649.68,398l-3.43,2.51,4.92,6.73a23.36,23.36,0,0,1-3.16,1,23.74,23.74,0,0,1-4.63.64l-1-9-4.23.46.9,8.3a23.4,23.4,0,0,1-7.57-2.49l3.65-8.26-3.89-1.72-3.36,7.61a23.28,23.28,0,0,1-5.32-5.93l7.29-5.33-2.51-3.43L620.64,394a22.1,22.1,0,0,1-1.59-6.78ZM652,421.73l-1.68,1.79H635V412.11a27.44,27.44,0,0,0,7.47,1,28,28,0,0,0,6.55-.78l.15,0Zm-41.37-2.28,12.25-14.39a27.29,27.29,0,0,0,7.82,5.45v17.27h68.13v3.58h-88.2Zm56.1,4.08,1.34-4.77,9.82,1,1.76,3.75Zm-51.87,22.26V435.61H624l-3.37,10.17Zm10.18,0,3.37-10.17h45.92l3.37,10.17Zm57.14,0-3.37-10.17h9.07v10.17Zm10-10.17h11V423.52H684.37l-3.62-7.74L665,414.16l-2.64,9.37h-6.17l.64-.68L653.18,411a27.92,27.92,0,0,0,11.73-9.25l9,4L676,382.69l15.84.16h.07a3.15,3.15,0,0,0,2.39-1.15l14.53,2.48a8.93,8.93,0,0,0,2.64,0l-.35.43-16,3.3-.1,0a3.88,3.88,0,0,0-2.77,3,10.35,10.35,0,0,0,2.3,8.86,4.38,4.38,0,0,0,3,1.34,3.67,3.67,0,0,0,1-.14l23.53-5.65,6.29-8.64,4.58,7.95L720.7,407.23a6.31,6.31,0,0,0-1.72,4.4c0,.22,0,.44-.07.66l-2.86,22.84-5.84,1.35-.1,0c-3.32.93-3.63,6.23-3.3,9.21v.07H692.15Z" transform="translate(-579.54 -317.33)"/>
    <path class="cls-2" d="M641.82,391a5.76,5.76,0,0,0,.68,0,5.68,5.68,0,0,0,.66-11.31h0A5.68,5.68,0,1,0,641.82,391Zm-.74-5.8a1.43,1.43,0,0,1,1.41-1.26h.17a1.42,1.42,0,1,1-1.58,1.25Z" transform="translate(-579.54 -317.33)"/>
    <rect class="cls-2" x="640.3" y="345.37" width="8.5" height="4.25" transform="translate(-657.88 146.94) rotate(-37.51)"/>
    <rect class="cls-2" x="674.02" y="319.48" width="8.5" height="4.25" transform="translate(-635.14 162.13) rotate(-37.51)"/>
    <rect class="cls-2" x="657.16" y="332.42" width="8.5" height="4.25" transform="translate(-646.51 154.53) rotate(-37.51)"/>
    <rect class="cls-2" x="675.54" y="340.77" width="8.5" height="4.25" transform="translate(-651.01 -98.14) rotate(-17.42)"/>
    <rect class="cls-2" x="695.83" y="334.41" width="8.5" height="4.25" transform="translate(-648.2 -92.2) rotate(-17.43)"/>
    <rect class="cls-2" x="655.26" y="347.14" width="8.5" height="4.25" transform="translate(-653.84 -103.96) rotate(-17.41)"/>
  </g>
</svg>
