<svg id="Layer_1" data-name="Layer 1" xmlns="http://www.w3.org/2000/svg" width="179.83" height="142.55" viewBox="0 0 179.83 142.55">
  <defs>
    <style>
      .cls-1 {
        fill: none;
      }

      .cls-2 {
        fill: #02cfa6;
      }
    </style>
  </defs>
  <title>work-otb-4</title>
  <g>
    <polygon class="cls-1" points="32.72 12.04 35.93 42.98 61.75 12.04 32.72 12.04"/>
    <path class="cls-1" d="M621.48,426.07l-16-7.84v25.88a2.37,2.37,0,0,0,2.34,2.34h32.43Z" transform="translate(-593.45 -332.33)"/>
    <path class="cls-1" d="M626,383.62l-4.08-39.26H607.82a2.37,2.37,0,0,0-2.34,2.34v4.76Z" transform="translate(-593.45 -332.33)"/>
    <path class="cls-1" d="M642.63,366.07l23.24,8.39V346.7a2.37,2.37,0,0,0-2.34-2.34h-2.79Z" transform="translate(-593.45 -332.33)"/>
    <polygon class="cls-1" points="12.04 56.21 12.04 81.17 27.78 88.88 33.09 61.59 12.04 56.21"/>
    <polygon class="cls-1" points="12.04 27.05 12.04 51.82 30.89 56.64 12.04 27.05"/>
    <path class="cls-1" d="M758.91,446.45a2.37,2.37,0,0,0,2.34-2.34v-41l-39-8-17.4,21.85-.25-.2,2.19,13.95,7.11,15.76Z" transform="translate(-593.45 -332.33)"/>
    <path class="cls-1" d="M660.89,423.29l0,2.9-19.14,20.26h21.8a2.37,2.37,0,0,0,2.34-2.34V428.3Z" transform="translate(-593.45 -332.33)"/>
    <path class="cls-1" d="M646.52,397.67l1.52-1.4-17.31-1.61-5.66,29L641,441l15.61-16.52,0-5.44-.35-.35-.57-.59L654.61,417a15.15,15.15,0,0,1-2.4-2.91l-6.45-9.64C644.25,402,644.57,399.31,646.52,397.67Z" transform="translate(-593.45 -332.33)"/>
    <polygon class="cls-1" points="109.99 12.04 135.15 40.66 148.97 12.04 109.99 12.04"/>
    <path class="cls-1" d="M761.24,346.7a2.37,2.37,0,0,0-2.34-2.34H747.14l-22.63,46.84,36.73,7.55Z" transform="translate(-593.45 -332.33)"/>
    <path class="cls-2" d="M758.91,332.33H703.2a14.39,14.39,0,0,0-14.37,14.38V379h4.25V346.7a10.13,10.13,0,0,1,10.12-10.12h55.71A10.13,10.13,0,0,1,769,346.7v97.41a10.13,10.13,0,0,1-10.12,10.12H717.42l-1.59-3.53h43.08a6.6,6.6,0,0,0,6.59-6.59V346.7a6.6,6.6,0,0,0-6.59-6.59H703.2a6.58,6.58,0,0,0-5.59,3.12l-.47.41.15.17a6.54,6.54,0,0,0-.68,2.89V379h4.25V347.88l25.73,29.26-7,14.46-15.82,19.87L702,400.37a9,9,0,0,0-4.87-6.69c-3.77-1.95-19.11-9.54-19.77-9.86l-.22-.1a18.06,18.06,0,0,0-6.81-1c-.64,0-6.28.17-8.85.54a34.93,34.93,0,0,0-4.15.79l-.34.1-11,7.63-15.06-1.4-1-9.19,9.74-11.67,30.39,11V346.7a6.6,6.6,0,0,0-6.59-6.59H607.82a6.6,6.6,0,0,0-6.59,6.59v97.41a6.6,6.6,0,0,0,6.59,6.59h55.71a6.6,6.6,0,0,0,6.59-6.59V433.78c1.08,1.46,2.3,3.09,3.53,4.67v5.66a10.13,10.13,0,0,1-10.12,10.12H607.82a10.13,10.13,0,0,1-10.12-10.12V346.7a10.13,10.13,0,0,1,10.12-10.12h55.71a10.13,10.13,0,0,1,10.12,10.12v32.63h4.25V346.7a14.39,14.39,0,0,0-14.37-14.37H607.82a14.39,14.39,0,0,0-14.37,14.38v97.41a14.39,14.39,0,0,0,14.37,14.38h55.71a14.39,14.39,0,0,0,14.38-14.37v-.59c.42.45.82.85,1.17,1.15,2.53,2.21,5,4.62,5.9,5.53l7,24.38,4.09-1.17L688.76,448l-.38-.39c-.13-.13-3.2-3.25-6.52-6.13-2.54-2.21-9.21-11.35-11.56-14.69l-.23-.27-1-1,0,0-10.26-10.25-.24-.25h0l-1-1a11.92,11.92,0,0,1-1.71-2h0l-6.57-9.83c-.34-.55-.37-1-.07-1.21l2.1-1.93c.46-.33,1.1.28,1.13.3l12.93,10.29,6.64,5.06a4.44,4.44,0,0,0,5.75-.49l4.72-4.21-2.83-3.17-4.83,4.31a.68.68,0,0,1-.25.14s-.06,0,0,0l-6.54-5-3.44-2.74a10.3,10.3,0,0,1,2.65-.17l6.84,2.8,1.61-3.94-7-2.87-.1,0c-.69-.24-2.87-.65-8.27.79v0L658,398.27l5-1.31c5.95-.84,7.83-.38,8.08-.3l8.23,3.62,1.71-3.89-8.15-3.58c-1-.48-3.64-1-10.59,0L653.61,395a4.93,4.93,0,0,0-4,.08l.06-.68,9.16-6.34c.5-.12,1.6-.36,3.28-.6,2.43-.35,8.34-.5,8.4-.5h.13a13.82,13.82,0,0,1,5,.69c1.44.71,16,7.93,19.58,9.77a4.72,4.72,0,0,1,2.6,3.36l4.83,30.82,0,.28,19.38,43,3.88-1.75-6.6-14.64h39.57a14.39,14.39,0,0,0,14.38-14.37V346.7A14.39,14.39,0,0,0,758.91,332.33ZM621.22,421.21l-15.74-7.71v-25l21.06,5.38Zm-15.74-61.83L624.33,389l-18.85-4.82Zm20.68-15h29l-25.82,30.94Zm39.7,2.34v27.76l-23.24-8.39,18.11-21.7h2.79A2.37,2.37,0,0,1,665.87,346.7Zm-58-2.34h14.07L626,383.62l-20.48-32.16V346.7A2.37,2.37,0,0,1,607.82,344.37Zm-2.34,99.74V418.23l16,7.84,18.77,20.37H607.82A2.37,2.37,0,0,1,605.48,444.11Zm58,2.34h-21.8l19.14-20.26,0-2.9,5,5v15.81A2.37,2.37,0,0,1,663.53,446.45Zm-11.31-32.38a15.15,15.15,0,0,0,2.4,2.91l1.14,1.14.57.59.35.35,0,5.44L641,441l-15.95-17.32,5.66-29L648,396.27l-1.52,1.4c-1.95,1.64-2.27,4.33-.75,6.76Zm51.22-69.7h39L728.59,373Zm43.71,0h11.76a2.37,2.37,0,0,1,2.34,2.34v52.06l-36.73-7.55Zm-42.53,72.38.25.2,17.4-21.85,39,8v41a2.37,2.37,0,0,1-2.34,2.34h-45l-7.11-15.76Z" transform="translate(-593.45 -332.33)"/>
  </g>
</svg>
