<svg id="Layer_1" data-name="Layer 1" xmlns="http://www.w3.org/2000/svg" width="179.83" height="142" viewBox="0 0 179.83 142">
  <defs>
    <style>
      .cls-1 {
        fill: none;
      }

      .cls-2 {
        fill: #02cfa6;
      }
    </style>
  </defs>
  <title>work-otb-5</title>
  <g>
    <path class="cls-1" d="M-240.13,456.14V440.7a2.37,2.37,0,0,0-2.34-2.34h-21.05l-6.48,8.38Z" transform="translate(312.55 -426.33)"/>
    <path class="cls-1" d="M-268.9,438.37h-29.28a2.37,2.37,0,0,0-2.34,2.34v23.78l9.62,2.36Z" transform="translate(312.55 -426.33)"/>
    <polygon class="cls-1" points="20.63 44.64 12.04 42.53 12.04 88.75 24.52 67.99 20.63 44.64"/>
    <path class="cls-1" d="M-274.28,511.46l-11.23-13.1-15,25v14.78a2.37,2.37,0,0,0,2.34,2.34h14.29l12.77-13.84Z" transform="translate(312.55 -426.33)"/>
    <polygon class="cls-1" points="24.75 43.48 28.38 65.25 72.42 43.83 72.42 34.27 39.78 24.01 24.75 43.48"/>
    <polygon class="cls-1" points="39.24 79.72 43.9 62.43 30.15 69.12 39.24 79.72"/>
    <path class="cls-1" d="M-209.39,538.11v-9.7l-3.53,1.7v8a10.13,10.13,0,0,0,10.12,10.12h9.09c-.27-1-.54-2.18-.79-3.53h-8.3A6.6,6.6,0,0,1-209.39,538.11Z" transform="translate(312.55 -426.33)"/>
    <path class="cls-1" d="M-278.1,540.45h35.63a2.37,2.37,0,0,0,2.34-2.34v-3.88l-27.89-4.7Z" transform="translate(312.55 -426.33)"/>
    <path class="cls-1" d="M-144.76,538.11V472.87l-18.32-10.1,1.11,37.17c3.16,4.61,7.69,11.23,9.2,13.5a9,9,0,0,1,1,8.22l-6.93,18.78h11.6A2.37,2.37,0,0,0-144.76,538.11Z" transform="translate(312.55 -426.33)"/>
    <path class="cls-1" d="M-144.76,440.7a2.37,2.37,0,0,0-2.34-2.34h-35.43l18.52,19L-144.76,468Z" transform="translate(312.55 -426.33)"/>
    <path class="cls-1" d="M-236.71,483.37-253.81,505l30.74,25.25,19.81-9.51,2.77-4.88-.13-.47c-.08-.28-.15-.54-.21-.79l-.44-1.56a15.17,15.17,0,0,1-.68-3.71l-.94-11.56c-.14-2.86,1.45-5,4-5.53l2.81-.67a4.74,4.74,0,0,1,3.67.88L-208,472.94Z" transform="translate(312.55 -426.33)"/>
    <path class="cls-1" d="M-200.22,524l-4.92,2.36v11.74a2.37,2.37,0,0,0,2.34,2.34h7.59c-.69-4.59-1.22-9.31-1.35-10.56l-2.31-8.26Z" transform="translate(312.55 -426.33)"/>
    <path class="cls-2" d="M-147.09,426.33H-202.8a14.39,14.39,0,0,0-14.37,14.38v22.2h4.25V440.7a10.13,10.13,0,0,1,10.12-10.12h55.71A10.13,10.13,0,0,1-137,440.7v97.41a10.13,10.13,0,0,1-10.12,10.12h-14.48l1.3-3.53h13.17a6.6,6.6,0,0,0,6.59-6.59V440.7a6.6,6.6,0,0,0-6.59-6.59H-202.8a6.6,6.6,0,0,0-6.59,6.59v22.21h4.25V440.7a2.37,2.37,0,0,1,2.34-2.34h14.35l21,21.64,1,33.95a18.38,18.38,0,0,0-4.45-3.1c-.57-.3-5.56-2.91-8-3.84a34.8,34.8,0,0,0-4-1.33l-11-1.89,0,.1-12.71-16-32.75,11.89-20.43,25.86,19.6,16.1v8.17L-267,525.38l-3.1-14.83,6.54-24.26,27.7-13.47V440.7a6.6,6.6,0,0,0-6.59-6.59h-55.71a6.6,6.6,0,0,0-6.59,6.59v97.41a6.6,6.6,0,0,0,6.59,6.59h55.71a6.6,6.6,0,0,0,6.59-6.59V525.24l3.53,2.9v10a10.13,10.13,0,0,1-10.12,10.12h-55.71a10.13,10.13,0,0,1-10.12-10.12V440.7a10.13,10.13,0,0,1,10.12-10.12h55.71a10.13,10.13,0,0,1,10.12,10.12V470h4.25V440.7a14.39,14.39,0,0,0-14.37-14.37h-55.71a14.39,14.39,0,0,0-14.37,14.38v97.41a14.39,14.39,0,0,0,14.37,14.38h55.71a14.39,14.39,0,0,0,14.37-14.37v-6.48l4.42,3.63,6.49-3.12v6a14.39,14.39,0,0,0,14.38,14.38h10.51c.76,2.35,1.31,4.31,1.45,4.79l1.75,11.06,4.2-.66-1.77-11.18,0-.23c0-.18-1.22-4.4-2.7-8.53-1.14-3.17-2.51-14.4-2.94-18.46l-.07-.35-.37-1.33.06,0-4-13.95c0-.11-.06-.24-.09-.34h0l-.4-1.4a11.91,11.91,0,0,1-.51-2.59v-.11l-1-11.68c0-.65.15-1,.53-1.08l2.78-.66c.56-.08.82.78.83.81l6.28,15.29,3.34,7.65a4.44,4.44,0,0,0,5.26,2.37l6.17-1.38-.93-4.15-6.23,1.39-.14,0a1,1,0,0,1-.23,0l0,0-3.28-7.53-1.67-4.07a10.13,10.13,0,0,1,2.4,1.15l4.61,5.78,3.32-2.65-4.73-5.92-.07-.08c-.46-.52-2-1.83-6.85-3.14l1.19-2.08,2,.51c5.6,2.17,7,3.48,7.21,3.67l5.43,7.17,3.39-2.57-5.37-7.1c-.63-.9-2.68-2.67-9.24-5.19l-2.2-.57-5-6.35,6.19,1.06a33.7,33.7,0,0,1,3.42,1.15c2.29.88,7.53,3.63,7.58,3.66l.11.05a13.84,13.84,0,0,1,4,3c.91,1.33,10.12,14.72,12.34,18.07a4.72,4.72,0,0,1,.63,4.2l-10.8,29.27-.1.27-1.54,18.29,4.24.36,1.32-15.69h15.47a14.39,14.39,0,0,0,14.38-14.37V440.7A14.39,14.39,0,0,0-147.09,426.33Zm-126.22,79.72-9.09-10.6,13.75-6.69Zm33.18-35.89-44,21.42-3.63-21.78,15-19.47,32.64,10.26Zm-2.34-31.79a2.37,2.37,0,0,1,2.34,2.34v15.44L-270,446.75l6.48-8.38Zm-58,2.34a2.37,2.37,0,0,1,2.34-2.34h29.28l-22,28.48-9.62-2.36Zm0,28.16,8.59,2.11,3.89,23.35-12.48,20.76Zm2.34,71.59a2.37,2.37,0,0,1-2.34-2.34V523.33l15-25,11.23,13.1,3.16,15.14-12.77,13.84Zm58-2.34a2.37,2.37,0,0,1-2.34,2.34H-278.1L-268,529.53l27.89,4.7Zm46.42,10.12h-9.09a10.13,10.13,0,0,1-10.12-10.12v-8l3.53-1.7v9.7a6.6,6.6,0,0,0,6.59,6.59h8.3C-194.25,546.05-194,547.27-193.71,548.23Zm-2.86-18.34c.13,1.25.66,6,1.35,10.56h-7.59a2.37,2.37,0,0,1-2.34-2.34V526.37l4.92-2.36,1.35-2.37Zm.43-38.3-2.81.67c-2.5.49-4.09,2.67-4,5.53l.94,11.56a15.17,15.17,0,0,0,.68,3.71l.44,1.56c.06.25.13.5.21.79l.13.47-2.77,4.88-19.81,9.51L-253.81,505l17.1-21.64L-208,472.94l15.52,19.52A4.74,4.74,0,0,0-196.14,491.59Zm13.61-53.22h35.43a2.37,2.37,0,0,1,2.34,2.34V468L-164,457.41Zm30.76,83.3a9,9,0,0,0-1-8.22c-1.5-2.27-6-8.89-9.2-13.5l-1.11-37.17,18.32,10.1v65.24a2.37,2.37,0,0,1-2.34,2.34h-11.6Z" transform="translate(312.55 -426.33)"/>
  </g>
</svg>
